%TF.GenerationSoftware,KiCad,Pcbnew,(6.0.2)*%
%TF.CreationDate,2023-02-15T15:55:08+01:00*%
%TF.ProjectId,usb,7573622e-6b69-4636-9164-5f7063625858,rev?*%
%TF.SameCoordinates,Original*%
%TF.FileFunction,Paste,Top*%
%TF.FilePolarity,Positive*%
%FSLAX46Y46*%
G04 Gerber Fmt 4.6, Leading zero omitted, Abs format (unit mm)*
G04 Created by KiCad (PCBNEW (6.0.2)) date 2023-02-15 15:55:08*
%MOMM*%
%LPD*%
G01*
G04 APERTURE LIST*
G04 Aperture macros list*
%AMRoundRect*
0 Rectangle with rounded corners*
0 $1 Rounding radius*
0 $2 $3 $4 $5 $6 $7 $8 $9 X,Y pos of 4 corners*
0 Add a 4 corners polygon primitive as box body*
4,1,4,$2,$3,$4,$5,$6,$7,$8,$9,$2,$3,0*
0 Add four circle primitives for the rounded corners*
1,1,$1+$1,$2,$3*
1,1,$1+$1,$4,$5*
1,1,$1+$1,$6,$7*
1,1,$1+$1,$8,$9*
0 Add four rect primitives between the rounded corners*
20,1,$1+$1,$2,$3,$4,$5,0*
20,1,$1+$1,$4,$5,$6,$7,0*
20,1,$1+$1,$6,$7,$8,$9,0*
20,1,$1+$1,$8,$9,$2,$3,0*%
G04 Aperture macros list end*
%ADD10RoundRect,0.250000X-0.650000X0.412500X-0.650000X-0.412500X0.650000X-0.412500X0.650000X0.412500X0*%
%ADD11RoundRect,0.250000X0.625000X-0.400000X0.625000X0.400000X-0.625000X0.400000X-0.625000X-0.400000X0*%
%ADD12R,1.450000X0.600000*%
%ADD13R,1.450000X0.300000*%
%ADD14RoundRect,0.150000X0.825000X0.150000X-0.825000X0.150000X-0.825000X-0.150000X0.825000X-0.150000X0*%
%ADD15R,0.700000X1.000000*%
%ADD16RoundRect,0.250000X-0.625000X0.400000X-0.625000X-0.400000X0.625000X-0.400000X0.625000X0.400000X0*%
G04 APERTURE END LIST*
D10*
%TO.C,C3*%
X59330000Y-128872500D03*
X59330000Y-125747500D03*
%TD*%
D11*
%TO.C,R4*%
X62560000Y-139530000D03*
X62560000Y-142630000D03*
%TD*%
D12*
%TO.C,J3*%
X59000000Y-134170000D03*
X59000000Y-134970000D03*
D13*
X59000000Y-136170000D03*
X59000000Y-137170000D03*
X59000000Y-137670000D03*
X59000000Y-138670000D03*
D12*
X59000000Y-139870000D03*
X59000000Y-140670000D03*
X59000000Y-140670000D03*
X59000000Y-139870000D03*
D13*
X59000000Y-139170000D03*
X59000000Y-138170000D03*
X59000000Y-136670000D03*
X59000000Y-135670000D03*
D12*
X59000000Y-134970000D03*
X59000000Y-134170000D03*
%TD*%
D14*
%TO.C,U1*%
X62845000Y-128895000D03*
X62845000Y-127625000D03*
X62845000Y-126355000D03*
X62845000Y-125085000D03*
X62845000Y-123815000D03*
X62845000Y-122545000D03*
X62845000Y-121275000D03*
X62845000Y-120005000D03*
X67795000Y-120005000D03*
X67795000Y-121275000D03*
X67795000Y-122545000D03*
X67795000Y-123815000D03*
X67795000Y-125085000D03*
X67795000Y-126355000D03*
X67795000Y-127625000D03*
X67795000Y-128895000D03*
%TD*%
D15*
%TO.C,Q2*%
X67690000Y-136610000D03*
X69590000Y-136610000D03*
X68640000Y-134210000D03*
%TD*%
D16*
%TO.C,R2*%
X72120000Y-138810000D03*
X72120000Y-141910000D03*
%TD*%
D15*
%TO.C,Q1*%
X69540000Y-139510000D03*
X67640000Y-139510000D03*
X68590000Y-141910000D03*
%TD*%
D11*
%TO.C,R1*%
X65240000Y-137330000D03*
X65240000Y-134230000D03*
%TD*%
D10*
%TO.C,C4*%
X59370000Y-123712500D03*
X59370000Y-120587500D03*
%TD*%
M02*
