%TF.GenerationSoftware,KiCad,Pcbnew,(6.0.2)*%
%TF.CreationDate,2023-02-15T15:55:09+01:00*%
%TF.ProjectId,usb,7573622e-6b69-4636-9164-5f7063625858,rev?*%
%TF.SameCoordinates,Original*%
%TF.FileFunction,Legend,Bot*%
%TF.FilePolarity,Positive*%
%FSLAX46Y46*%
G04 Gerber Fmt 4.6, Leading zero omitted, Abs format (unit mm)*
G04 Created by KiCad (PCBNEW (6.0.2)) date 2023-02-15 15:55:09*
%MOMM*%
%LPD*%
G01*
G04 APERTURE LIST*
%ADD10C,0.300000*%
G04 APERTURE END LIST*
D10*
X70734285Y-114087142D02*
X70591428Y-114158571D01*
X70305714Y-114158571D01*
X70162857Y-114087142D01*
X70091428Y-113944285D01*
X70091428Y-113872857D01*
X70162857Y-113730000D01*
X70305714Y-113658571D01*
X70520000Y-113658571D01*
X70662857Y-113587142D01*
X70734285Y-113444285D01*
X70734285Y-113372857D01*
X70662857Y-113230000D01*
X70520000Y-113158571D01*
X70305714Y-113158571D01*
X70162857Y-113230000D01*
X68805714Y-113158571D02*
X68805714Y-114158571D01*
X69448571Y-113158571D02*
X69448571Y-113944285D01*
X69377142Y-114087142D01*
X69234285Y-114158571D01*
X69020000Y-114158571D01*
X68877142Y-114087142D01*
X68805714Y-114015714D01*
X68091428Y-114158571D02*
X68091428Y-113158571D01*
X68091428Y-112658571D02*
X68162857Y-112730000D01*
X68091428Y-112801428D01*
X68020000Y-112730000D01*
X68091428Y-112658571D01*
X68091428Y-112801428D01*
X67377142Y-114015714D02*
X67305714Y-114087142D01*
X67377142Y-114158571D01*
X67448571Y-114087142D01*
X67377142Y-114015714D01*
X67377142Y-114158571D01*
X66448571Y-114158571D02*
X66591428Y-114087142D01*
X66662857Y-113944285D01*
X66662857Y-112658571D01*
X65877142Y-114158571D02*
X65877142Y-113158571D01*
X65877142Y-112658571D02*
X65948571Y-112730000D01*
X65877142Y-112801428D01*
X65805714Y-112730000D01*
X65877142Y-112658571D01*
X65877142Y-112801428D01*
M02*
