%TF.GenerationSoftware,KiCad,Pcbnew,(6.0.2)*%
%TF.CreationDate,2023-02-15T15:55:09+01:00*%
%TF.ProjectId,usb,7573622e-6b69-4636-9164-5f7063625858,rev?*%
%TF.SameCoordinates,Original*%
%TF.FileFunction,Soldermask,Bot*%
%TF.FilePolarity,Negative*%
%FSLAX46Y46*%
G04 Gerber Fmt 4.6, Leading zero omitted, Abs format (unit mm)*
G04 Created by KiCad (PCBNEW (6.0.2)) date 2023-02-15 15:55:09*
%MOMM*%
%LPD*%
G01*
G04 APERTURE LIST*
%ADD10C,1.524000*%
%ADD11C,1.600000*%
%ADD12C,4.000000*%
%ADD13R,1.700000X1.700000*%
%ADD14O,1.700000X1.700000*%
%ADD15C,0.650000*%
%ADD16O,2.100000X1.000000*%
%ADD17O,1.600000X1.000000*%
%ADD18C,2.000000*%
G04 APERTURE END LIST*
D10*
%TO.C,J4*%
X84580000Y-107780000D03*
X87120000Y-115800000D03*
X87120000Y-107780000D03*
X84580000Y-115800000D03*
X89680000Y-115800000D03*
X89660000Y-107780000D03*
D11*
X80370000Y-114530000D03*
X93870000Y-114530000D03*
%TD*%
D12*
%TO.C,REF\u002A\u002A*%
X59000000Y-109000000D03*
%TD*%
%TO.C,REF\u002A\u002A*%
X77000000Y-142000000D03*
%TD*%
D13*
%TO.C,J5*%
X91130000Y-124380000D03*
D14*
X91130000Y-126920000D03*
X91130000Y-129460000D03*
X91130000Y-132000000D03*
X91130000Y-134540000D03*
X91130000Y-137080000D03*
X91130000Y-139620000D03*
X91130000Y-142160000D03*
%TD*%
D15*
%TO.C,J3*%
X57555000Y-134530000D03*
X57555000Y-140310000D03*
D16*
X58085000Y-141740000D03*
X58085000Y-133100000D03*
D17*
X53905000Y-133100000D03*
X53905000Y-141740000D03*
%TD*%
D13*
%TO.C,J1*%
X53570000Y-110000000D03*
D14*
X53570000Y-112540000D03*
X53570000Y-115080000D03*
X53570000Y-117620000D03*
X53570000Y-120160000D03*
X53570000Y-122700000D03*
X53570000Y-125240000D03*
X53570000Y-127780000D03*
%TD*%
D18*
%TO.C,SW1*%
X81000000Y-132120000D03*
X87500000Y-132120000D03*
X87500000Y-127620000D03*
X81000000Y-127620000D03*
%TD*%
D13*
%TO.C,J2*%
X76430000Y-110000000D03*
D14*
X76430000Y-112540000D03*
X76430000Y-115080000D03*
X76430000Y-117620000D03*
X76430000Y-120160000D03*
X76430000Y-122700000D03*
X76430000Y-125240000D03*
X76430000Y-127780000D03*
%TD*%
D18*
%TO.C,SW2*%
X81000000Y-137970000D03*
X87500000Y-137970000D03*
X81000000Y-142470000D03*
X87500000Y-142470000D03*
%TD*%
M02*
