M48
; DRILL file {KiCad (6.0.2)} date Tue Feb 14 21:12:33 2023
; FORMAT={-:-/ absolute / inch / decimal}
; #@! TF.CreationDate,2023-02-14T21:12:33+01:00
; #@! TF.GenerationSoftware,Kicad,Pcbnew,(6.0.2)
; #@! TF.FileFunction,Plated,1,2,PTH
FMAT,2
INCH
; #@! TA.AperFunction,Plated,PTH,ViaDrill
T1C0.0157
; #@! TA.AperFunction,Plated,PTH,ComponentDrill
T2C0.0236
; #@! TA.AperFunction,Plated,PTH,ComponentDrill
T3C0.0300
; #@! TA.AperFunction,Plated,PTH,ComponentDrill
T4C0.0394
; #@! TA.AperFunction,Plated,PTH,ComponentDrill
T5C0.0433
; #@! TA.AperFunction,Plated,PTH,ComponentDrill
T6C0.0591
; #@! TA.AperFunction,Plated,PTH,ComponentDrill
T7C0.1260
%
G90
G05
T1
X2.2854Y-4.4783
X2.385Y-5.5077
X2.385Y-5.3094
X2.5447Y-4.9348
X2.5537Y-4.986
X2.5772Y-5.5063
X2.6252Y-5.224
X2.6925Y-5.1634
X2.7417Y-5.2004
T3
X3.3299Y-4.2433
X3.3299Y-4.5591
X3.4299Y-4.2433
X3.4299Y-4.5591
X3.5299Y-4.2433
X3.5307Y-4.5591
T4
X2.1091Y-4.3307
X2.1091Y-4.4307
X2.1091Y-4.5307
X2.1091Y-4.6307
X2.1091Y-4.7307
X2.1091Y-4.8307
X2.1091Y-4.9307
X2.1091Y-5.0307
X3.0091Y-4.3307
X3.0091Y-4.4307
X3.0091Y-4.5307
X3.0091Y-4.6307
X3.0091Y-4.7307
X3.0091Y-4.8307
X3.0091Y-4.9307
X3.0091Y-5.0307
X3.5878Y-4.8969
X3.5878Y-4.9969
X3.5878Y-5.0969
X3.5878Y-5.1969
X3.5878Y-5.2969
X3.5878Y-5.3969
X3.5878Y-5.4969
X3.5878Y-5.5969
T5
X3.189Y-5.0244
X3.189Y-5.2016
X3.189Y-5.4319
X3.189Y-5.6091
X3.4449Y-5.0244
X3.4449Y-5.2016
X3.4449Y-5.4319
X3.4449Y-5.6091
T6
X3.1642Y-4.5091
X3.6957Y-4.5091
T7
X2.3228Y-4.2913
X3.0315Y-5.5906
T2
G00X2.1341Y-5.2402
M15
G01X2.1104Y-5.2402
M16
G05
G00X2.1341Y-5.5803
M15
G01X2.1104Y-5.5803
M16
G05
G00X2.3085Y-5.2402
M15
G01X2.2652Y-5.2402
M16
G05
G00X2.3085Y-5.5803
M15
G01X2.2652Y-5.5803
M16
G05
T0
M30
