%TF.GenerationSoftware,KiCad,Pcbnew,(6.0.2)*%
%TF.CreationDate,2023-02-15T15:55:08+01:00*%
%TF.ProjectId,usb,7573622e-6b69-4636-9164-5f7063625858,rev?*%
%TF.SameCoordinates,Original*%
%TF.FileFunction,Copper,L1,Top*%
%TF.FilePolarity,Positive*%
%FSLAX46Y46*%
G04 Gerber Fmt 4.6, Leading zero omitted, Abs format (unit mm)*
G04 Created by KiCad (PCBNEW (6.0.2)) date 2023-02-15 15:55:08*
%MOMM*%
%LPD*%
G01*
G04 APERTURE LIST*
G04 Aperture macros list*
%AMRoundRect*
0 Rectangle with rounded corners*
0 $1 Rounding radius*
0 $2 $3 $4 $5 $6 $7 $8 $9 X,Y pos of 4 corners*
0 Add a 4 corners polygon primitive as box body*
4,1,4,$2,$3,$4,$5,$6,$7,$8,$9,$2,$3,0*
0 Add four circle primitives for the rounded corners*
1,1,$1+$1,$2,$3*
1,1,$1+$1,$4,$5*
1,1,$1+$1,$6,$7*
1,1,$1+$1,$8,$9*
0 Add four rect primitives between the rounded corners*
20,1,$1+$1,$2,$3,$4,$5,0*
20,1,$1+$1,$4,$5,$6,$7,0*
20,1,$1+$1,$6,$7,$8,$9,0*
20,1,$1+$1,$8,$9,$2,$3,0*%
%AMFreePoly0*
4,1,22,0.500000,-0.750000,0.000000,-0.750000,0.000000,-0.745033,-0.079941,-0.743568,-0.215256,-0.701293,-0.333266,-0.622738,-0.424486,-0.514219,-0.481581,-0.384460,-0.499164,-0.250000,-0.500000,-0.250000,-0.500000,0.250000,-0.499164,0.250000,-0.499963,0.256109,-0.478152,0.396186,-0.417904,0.524511,-0.324060,0.630769,-0.204165,0.706417,-0.067858,0.745374,0.000000,0.744959,0.000000,0.750000,
0.500000,0.750000,0.500000,-0.750000,0.500000,-0.750000,$1*%
%AMFreePoly1*
4,1,20,0.000000,0.744959,0.073905,0.744508,0.209726,0.703889,0.328688,0.626782,0.421226,0.519385,0.479903,0.390333,0.500000,0.250000,0.500000,-0.250000,0.499851,-0.262216,0.476331,-0.402017,0.414519,-0.529596,0.319384,-0.634700,0.198574,-0.708877,0.061801,-0.746166,0.000000,-0.745033,0.000000,-0.750000,-0.500000,-0.750000,-0.500000,0.750000,0.000000,0.750000,0.000000,0.744959,
0.000000,0.744959,$1*%
G04 Aperture macros list end*
%TA.AperFunction,ComponentPad*%
%ADD10C,1.524000*%
%TD*%
%TA.AperFunction,ComponentPad*%
%ADD11C,1.600000*%
%TD*%
%TA.AperFunction,SMDPad,CuDef*%
%ADD12FreePoly0,0.000000*%
%TD*%
%TA.AperFunction,SMDPad,CuDef*%
%ADD13FreePoly1,0.000000*%
%TD*%
%TA.AperFunction,ComponentPad*%
%ADD14C,4.000000*%
%TD*%
%TA.AperFunction,ComponentPad*%
%ADD15R,1.700000X1.700000*%
%TD*%
%TA.AperFunction,ComponentPad*%
%ADD16O,1.700000X1.700000*%
%TD*%
%TA.AperFunction,SMDPad,CuDef*%
%ADD17RoundRect,0.250000X-0.650000X0.412500X-0.650000X-0.412500X0.650000X-0.412500X0.650000X0.412500X0*%
%TD*%
%TA.AperFunction,SMDPad,CuDef*%
%ADD18RoundRect,0.250000X0.625000X-0.400000X0.625000X0.400000X-0.625000X0.400000X-0.625000X-0.400000X0*%
%TD*%
%TA.AperFunction,SMDPad,CuDef*%
%ADD19R,1.450000X0.600000*%
%TD*%
%TA.AperFunction,SMDPad,CuDef*%
%ADD20R,1.450000X0.300000*%
%TD*%
%TA.AperFunction,ComponentPad*%
%ADD21O,2.100000X1.000000*%
%TD*%
%TA.AperFunction,ComponentPad*%
%ADD22O,1.600000X1.000000*%
%TD*%
%TA.AperFunction,SMDPad,CuDef*%
%ADD23RoundRect,0.150000X0.825000X0.150000X-0.825000X0.150000X-0.825000X-0.150000X0.825000X-0.150000X0*%
%TD*%
%TA.AperFunction,SMDPad,CuDef*%
%ADD24R,0.700000X1.000000*%
%TD*%
%TA.AperFunction,SMDPad,CuDef*%
%ADD25RoundRect,0.250000X-0.625000X0.400000X-0.625000X-0.400000X0.625000X-0.400000X0.625000X0.400000X0*%
%TD*%
%TA.AperFunction,ComponentPad*%
%ADD26C,2.000000*%
%TD*%
%TA.AperFunction,ViaPad*%
%ADD27C,0.800000*%
%TD*%
%TA.AperFunction,Conductor*%
%ADD28C,0.500000*%
%TD*%
%TA.AperFunction,Conductor*%
%ADD29C,0.250000*%
%TD*%
%TA.AperFunction,Conductor*%
%ADD30C,0.300000*%
%TD*%
G04 APERTURE END LIST*
D10*
%TO.P,J4,1,Pin_1*%
%TO.N,GPIO13*%
X84580000Y-107780000D03*
X87120000Y-115800000D03*
%TO.P,J4,2,Pin_2*%
%TO.N,3.3V*%
X87120000Y-107780000D03*
X84580000Y-115800000D03*
%TO.P,J4,3,Pin_3*%
%TO.N,GND*%
X89680000Y-115800000D03*
X89660000Y-107780000D03*
D11*
%TO.P,J4,4*%
%TO.N,N/C*%
X80370000Y-114530000D03*
%TO.P,J4,5*%
X93870000Y-114530000D03*
%TD*%
D12*
%TO.P,JP2,1,A*%
%TO.N,Net-(JP2-Pad1)*%
X76350000Y-134150000D03*
D13*
%TO.P,JP2,2,B*%
%TO.N,GPIO0*%
X77650000Y-134150000D03*
%TD*%
D14*
%TO.P,REF\u002A\u002A,1*%
%TO.N,N/C*%
X59000000Y-109000000D03*
%TD*%
%TO.P,REF\u002A\u002A,1*%
%TO.N,N/C*%
X77000000Y-142000000D03*
%TD*%
D12*
%TO.P,JP1,1,A*%
%TO.N,Net-(Q1-Pad1)*%
X76350000Y-137730000D03*
D13*
%TO.P,JP1,2,B*%
%TO.N,RST*%
X77650000Y-137730000D03*
%TD*%
D15*
%TO.P,J5,1,Pin_1*%
%TO.N,Vin*%
X91130000Y-124380000D03*
D16*
%TO.P,J5,2,Pin_2*%
%TO.N,3.3V*%
X91130000Y-126920000D03*
%TO.P,J5,3,Pin_3*%
%TO.N,GND*%
X91130000Y-129460000D03*
%TO.P,J5,4,Pin_4*%
X91130000Y-132000000D03*
%TO.P,J5,5,Pin_5*%
%TO.N,GPIO12*%
X91130000Y-134540000D03*
%TO.P,J5,6,Pin_6*%
%TO.N,GPIO13*%
X91130000Y-137080000D03*
%TO.P,J5,7,Pin_7*%
%TO.N,GPIO14*%
X91130000Y-139620000D03*
%TO.P,J5,8,Pin_8*%
%TO.N,GPIO15*%
X91130000Y-142160000D03*
%TD*%
D17*
%TO.P,C3,2*%
%TO.N,Vin*%
X59330000Y-128872500D03*
%TO.P,C3,1*%
%TO.N,GND*%
X59330000Y-125747500D03*
%TD*%
D18*
%TO.P,R4,2*%
%TO.N,Net-(J3-PadA5)*%
X62560000Y-139530000D03*
%TO.P,R4,1*%
%TO.N,GND*%
X62560000Y-142630000D03*
%TD*%
D19*
%TO.P,J3,A1,GND*%
%TO.N,GND*%
X59000000Y-134170000D03*
%TO.P,J3,A4,VBUS*%
%TO.N,Vin*%
X59000000Y-134970000D03*
D20*
%TO.P,J3,A5,CC1*%
%TO.N,Net-(J3-PadA5)*%
X59000000Y-136170000D03*
%TO.P,J3,A6,D+*%
%TO.N,D+*%
X59000000Y-137170000D03*
%TO.P,J3,A7,D-*%
%TO.N,D-*%
X59000000Y-137670000D03*
%TO.P,J3,A8,SBU1*%
%TO.N,unconnected-(J3-PadA8)*%
X59000000Y-138670000D03*
D19*
%TO.P,J3,A9,VBUS*%
%TO.N,Vin*%
X59000000Y-139870000D03*
%TO.P,J3,A12,GND*%
%TO.N,GND*%
X59000000Y-140670000D03*
%TO.P,J3,B1,GND*%
X59000000Y-140670000D03*
%TO.P,J3,B4,VBUS*%
%TO.N,Vin*%
X59000000Y-139870000D03*
D20*
%TO.P,J3,B5,CC2*%
%TO.N,Net-(J3-PadA5)*%
X59000000Y-139170000D03*
%TO.P,J3,B6,D+*%
%TO.N,D+*%
X59000000Y-138170000D03*
%TO.P,J3,B7,D-*%
%TO.N,D-*%
X59000000Y-136670000D03*
%TO.P,J3,B8,SBU2*%
%TO.N,unconnected-(J3-PadB8)*%
X59000000Y-135670000D03*
D19*
%TO.P,J3,B9,VBUS*%
%TO.N,Vin*%
X59000000Y-134970000D03*
%TO.P,J3,B12,GND*%
%TO.N,GND*%
X59000000Y-134170000D03*
D21*
%TO.P,J3,S1,SHIELD*%
X58085000Y-141740000D03*
X58085000Y-133100000D03*
D22*
X53905000Y-133100000D03*
X53905000Y-141740000D03*
%TD*%
D23*
%TO.P,U1,16,VCC*%
%TO.N,Vin*%
X62845000Y-128895000D03*
%TO.P,U1,15,R232*%
%TO.N,unconnected-(U1-Pad15)*%
X62845000Y-127625000D03*
%TO.P,U1,14,~{RTS}*%
%TO.N,Net-(U1-Pad14)*%
X62845000Y-126355000D03*
%TO.P,U1,13,~{DTR}*%
%TO.N,Net-(U1-Pad13)*%
X62845000Y-125085000D03*
%TO.P,U1,12,~{DCD}*%
%TO.N,unconnected-(U1-Pad12)*%
X62845000Y-123815000D03*
%TO.P,U1,11,~{RI}*%
%TO.N,unconnected-(U1-Pad11)*%
X62845000Y-122545000D03*
%TO.P,U1,10,~{DSR}*%
%TO.N,unconnected-(U1-Pad10)*%
X62845000Y-121275000D03*
%TO.P,U1,9,~{CTS}*%
%TO.N,unconnected-(U1-Pad9)*%
X62845000Y-120005000D03*
%TO.P,U1,8,XO*%
%TO.N,unconnected-(U1-Pad8)*%
X67795000Y-120005000D03*
%TO.P,U1,7,XI*%
%TO.N,unconnected-(U1-Pad7)*%
X67795000Y-121275000D03*
%TO.P,U1,6,UD-*%
%TO.N,D-*%
X67795000Y-122545000D03*
%TO.P,U1,5,UD+*%
%TO.N,D+*%
X67795000Y-123815000D03*
%TO.P,U1,4,V3*%
%TO.N,unconnected-(U1-Pad4)*%
X67795000Y-125085000D03*
%TO.P,U1,3,RXD*%
%TO.N,TX*%
X67795000Y-126355000D03*
%TO.P,U1,2,TXD*%
%TO.N,RX*%
X67795000Y-127625000D03*
%TO.P,U1,1,GND*%
%TO.N,GND*%
X67795000Y-128895000D03*
%TD*%
D24*
%TO.P,Q2,1,C*%
%TO.N,Net-(JP2-Pad1)*%
X67690000Y-136610000D03*
%TO.P,Q2,2,B*%
%TO.N,Net-(Q2-Pad2)*%
X69590000Y-136610000D03*
%TO.P,Q2,3,E*%
%TO.N,Net-(U1-Pad13)*%
X68640000Y-134210000D03*
%TD*%
D25*
%TO.P,R2,1*%
%TO.N,Net-(Q2-Pad2)*%
X72120000Y-138810000D03*
%TO.P,R2,2*%
%TO.N,Net-(U1-Pad14)*%
X72120000Y-141910000D03*
%TD*%
D24*
%TO.P,Q1,1,C*%
%TO.N,Net-(Q1-Pad1)*%
X69540000Y-139510000D03*
%TO.P,Q1,2,B*%
%TO.N,Net-(Q1-Pad2)*%
X67640000Y-139510000D03*
%TO.P,Q1,3,E*%
%TO.N,Net-(U1-Pad14)*%
X68590000Y-141910000D03*
%TD*%
D18*
%TO.P,R1,1*%
%TO.N,Net-(Q1-Pad2)*%
X65240000Y-137330000D03*
%TO.P,R1,2*%
%TO.N,Net-(U1-Pad13)*%
X65240000Y-134230000D03*
%TD*%
D17*
%TO.P,C4,2*%
%TO.N,Vin*%
X59370000Y-123712500D03*
%TO.P,C4,1*%
%TO.N,GND*%
X59370000Y-120587500D03*
%TD*%
D15*
%TO.P,J1,1,Pin_1*%
%TO.N,Vin*%
X53570000Y-110000000D03*
D16*
%TO.P,J1,2,Pin_2*%
%TO.N,GND*%
X53570000Y-112540000D03*
%TO.P,J1,3,Pin_3*%
%TO.N,GPIO12*%
X53570000Y-115080000D03*
%TO.P,J1,4,Pin_4*%
%TO.N,GPIO13*%
X53570000Y-117620000D03*
%TO.P,J1,5,Pin_5*%
%TO.N,GPIO15*%
X53570000Y-120160000D03*
%TO.P,J1,6,Pin_6*%
%TO.N,GPIO14*%
X53570000Y-122700000D03*
%TO.P,J1,7,Pin_7*%
%TO.N,GPIO2*%
X53570000Y-125240000D03*
%TO.P,J1,8,Pin_8*%
%TO.N,GPIO4*%
X53570000Y-127780000D03*
%TD*%
D26*
%TO.P,SW1,2,2*%
%TO.N,GND*%
X81000000Y-132120000D03*
X87500000Y-132120000D03*
%TO.P,SW1,1,1*%
%TO.N,GPIO0*%
X87500000Y-127620000D03*
X81000000Y-127620000D03*
%TD*%
D15*
%TO.P,J2,1,Pin_1*%
%TO.N,3.3V*%
X76430000Y-110000000D03*
D16*
%TO.P,J2,2,Pin_2*%
%TO.N,GPIO16*%
X76430000Y-112540000D03*
%TO.P,J2,3,Pin_3*%
%TO.N,GPIO0*%
X76430000Y-115080000D03*
%TO.P,J2,4,Pin_4*%
%TO.N,GND*%
X76430000Y-117620000D03*
%TO.P,J2,5,Pin_5*%
%TO.N,3.3V{slash}5V*%
X76430000Y-120160000D03*
%TO.P,J2,6,Pin_6*%
%TO.N,RX*%
X76430000Y-122700000D03*
%TO.P,J2,7,Pin_7*%
%TO.N,TX*%
X76430000Y-125240000D03*
%TO.P,J2,8,Pin_8*%
%TO.N,RST*%
X76430000Y-127780000D03*
%TD*%
D26*
%TO.P,SW2,1,1*%
%TO.N,RST*%
X81000000Y-137970000D03*
X87500000Y-137970000D03*
%TO.P,SW2,2,2*%
%TO.N,GND*%
X81000000Y-142470000D03*
X87500000Y-142470000D03*
%TD*%
D27*
%TO.N,GND*%
X69640000Y-132090000D03*
X68390000Y-131150000D03*
%TO.N,Vin*%
X58050000Y-113750000D03*
%TO.N,Net-(U1-Pad13)*%
X64635023Y-125344977D03*
X66680000Y-132690000D03*
%TO.N,Net-(U1-Pad14)*%
X64865023Y-126644977D03*
X65460000Y-139860000D03*
%TO.N,Vin*%
X60580000Y-134860000D03*
X60579642Y-139894500D03*
%TD*%
D28*
%TO.N,3.3V*%
X76430000Y-110000000D02*
X84260000Y-110000000D01*
X84260000Y-110000000D02*
X84580000Y-110320000D01*
X84580000Y-110320000D02*
X87120000Y-107780000D01*
X84580000Y-115800000D02*
X84580000Y-110320000D01*
D29*
%TO.N,Net-(J3-PadA5)*%
X59000000Y-139170000D02*
X62200000Y-139170000D01*
D28*
%TO.N,Vin*%
X59000000Y-139870000D02*
X60555142Y-139870000D01*
D29*
%TO.N,Net-(J3-PadA5)*%
X62200000Y-139170000D02*
X62560000Y-139530000D01*
D28*
%TO.N,Vin*%
X60555142Y-139870000D02*
X60579642Y-139894500D01*
X62822500Y-128872500D02*
X62845000Y-128895000D01*
X59330000Y-128872500D02*
X62822500Y-128872500D01*
X58020480Y-114450480D02*
X58020480Y-113779520D01*
X58020480Y-113779520D02*
X58050000Y-113750000D01*
D30*
%TO.N,TX*%
X75315000Y-126355000D02*
X76430000Y-125240000D01*
X67795000Y-126355000D02*
X75315000Y-126355000D01*
%TO.N,RX*%
X77630000Y-123900000D02*
X76430000Y-122700000D01*
X77630000Y-125740000D02*
X77630000Y-123900000D01*
X75933145Y-126580489D02*
X76789511Y-126580489D01*
X74888634Y-127625000D02*
X75933145Y-126580489D01*
%TO.N,RST*%
X78129511Y-126080489D02*
X76430000Y-127780000D01*
%TO.N,RX*%
X76789511Y-126580489D02*
X77630000Y-125740000D01*
%TO.N,RST*%
X78129511Y-117623145D02*
X78129511Y-126080489D01*
X76926855Y-116420489D02*
X78129511Y-117623145D01*
X75230489Y-114583145D02*
X75230489Y-115576855D01*
X75933145Y-113880489D02*
X75230489Y-114583145D01*
X76926855Y-113880489D02*
X75933145Y-113880489D01*
X75230489Y-115576855D02*
X76074123Y-116420489D01*
X76074123Y-116420489D02*
X76926855Y-116420489D01*
%TO.N,RX*%
X67795000Y-127625000D02*
X74888634Y-127625000D01*
%TO.N,RST*%
X87500000Y-137970000D02*
X88849511Y-136620489D01*
X88849511Y-136620489D02*
X88849511Y-125803145D01*
X88849511Y-125803145D02*
X76926855Y-113880489D01*
D28*
%TO.N,GPIO16*%
X76434202Y-112540000D02*
X76430000Y-112540000D01*
D30*
%TO.N,RST*%
X81000000Y-137970000D02*
X87500000Y-137970000D01*
%TO.N,GPIO0*%
X81000000Y-119650000D02*
X76430000Y-115080000D01*
X81000000Y-127620000D02*
X81000000Y-119650000D01*
X87500000Y-127620000D02*
X81000000Y-127620000D01*
%TO.N,RST*%
X77890000Y-137970000D02*
X81000000Y-137970000D01*
X77650000Y-137730000D02*
X77890000Y-137970000D01*
%TO.N,GPIO0*%
X77650000Y-130970000D02*
X81000000Y-127620000D01*
X77650000Y-134150000D02*
X77650000Y-130970000D01*
%TO.N,Net-(U1-Pad13)*%
X64375046Y-125085000D02*
X64635023Y-125344977D01*
X62845000Y-125085000D02*
X64375046Y-125085000D01*
%TO.N,Net-(U1-Pad14)*%
X62845000Y-126355000D02*
X63134977Y-126644977D01*
X63134977Y-126644977D02*
X64865023Y-126644977D01*
%TO.N,Net-(U1-Pad13)*%
X65240000Y-134230000D02*
X65240000Y-134130000D01*
X65240000Y-134130000D02*
X66680000Y-132690000D01*
%TO.N,D-*%
X66835000Y-122545000D02*
X67795000Y-122545000D01*
X65970969Y-130773052D02*
X65970969Y-123409031D01*
X60074021Y-136670000D02*
X65970969Y-130773052D01*
X59000000Y-136670000D02*
X60074021Y-136670000D01*
%TO.N,D+*%
X62029501Y-135420935D02*
X66470480Y-130979956D01*
X62029501Y-136280455D02*
X62029501Y-135420935D01*
X67245000Y-123815000D02*
X67795000Y-123815000D01*
%TO.N,D-*%
X65970969Y-123409031D02*
X66835000Y-122545000D01*
%TO.N,D+*%
X66470480Y-130979956D02*
X66470480Y-124589520D01*
X61139956Y-137170000D02*
X62029501Y-136280455D01*
X66470480Y-124589520D02*
X67245000Y-123815000D01*
%TO.N,Net-(U1-Pad14)*%
X67510000Y-141910000D02*
X65460000Y-139860000D01*
X68590000Y-141910000D02*
X67510000Y-141910000D01*
%TO.N,Net-(JP2-Pad1)*%
X70150000Y-134150000D02*
X76350000Y-134150000D01*
X67690000Y-136610000D02*
X70150000Y-134150000D01*
%TO.N,Net-(Q1-Pad1)*%
X69839520Y-139809520D02*
X74270480Y-139809520D01*
X69540000Y-139510000D02*
X69839520Y-139809520D01*
X74270480Y-139809520D02*
X76350000Y-137730000D01*
%TO.N,D+*%
X60139956Y-138170000D02*
X61139956Y-137170000D01*
X59000000Y-138170000D02*
X60139956Y-138170000D01*
D28*
%TO.N,Vin*%
X60784270Y-134860000D02*
X61634520Y-134009750D01*
X60580000Y-134860000D02*
X60784270Y-134860000D01*
X60470000Y-134970000D02*
X60580000Y-134860000D01*
X59000000Y-134970000D02*
X60470000Y-134970000D01*
X61634519Y-131177019D02*
X59330000Y-128872500D01*
D30*
%TO.N,D+*%
X59000000Y-137170000D02*
X61139956Y-137170000D01*
D28*
%TO.N,GND*%
X59450000Y-133720000D02*
X60935000Y-133720000D01*
%TO.N,Vin*%
X61634520Y-134009750D02*
X61634519Y-131177019D01*
%TO.N,GND*%
X59000000Y-134170000D02*
X59450000Y-133720000D01*
%TO.N,Vin*%
X58020480Y-122362980D02*
X58020480Y-114450480D01*
X59370000Y-123712500D02*
X58020480Y-122362980D01*
X58887500Y-123712500D02*
X59370000Y-123712500D01*
X57980480Y-124619520D02*
X58887500Y-123712500D01*
X57980480Y-127522980D02*
X57980480Y-124619520D01*
X59330000Y-128872500D02*
X57980480Y-127522980D01*
D30*
%TO.N,Net-(Q2-Pad2)*%
X69920000Y-136610000D02*
X72120000Y-138810000D01*
X69590000Y-136610000D02*
X69920000Y-136610000D01*
%TO.N,Net-(Q1-Pad2)*%
X65460000Y-137330000D02*
X67640000Y-139510000D01*
X65240000Y-137330000D02*
X65460000Y-137330000D01*
%TO.N,Net-(U1-Pad13)*%
X65260000Y-134210000D02*
X68640000Y-134210000D01*
X65240000Y-134230000D02*
X65260000Y-134210000D01*
%TO.N,Net-(U1-Pad14)*%
X68590000Y-141910000D02*
X72120000Y-141910000D01*
D28*
%TO.N,GND*%
X59000000Y-140670000D02*
X60135000Y-140670000D01*
X60135000Y-140670000D02*
X60435000Y-140970000D01*
D29*
%TO.N,Net-(J3-PadA5)*%
X59000000Y-139170000D02*
X58110689Y-139170000D01*
X57440489Y-138499800D02*
X57440489Y-136666993D01*
X57937482Y-136170000D02*
X59000000Y-136170000D01*
D30*
%TO.N,D-*%
X57915000Y-136863542D02*
X58108542Y-136670000D01*
X59000000Y-137670000D02*
X57925978Y-137670000D01*
X58108542Y-136670000D02*
X59000000Y-136670000D01*
D29*
%TO.N,Net-(J3-PadA5)*%
X57440489Y-136666993D02*
X57937482Y-136170000D01*
D30*
%TO.N,D-*%
X57925978Y-137670000D02*
X57915000Y-137659022D01*
D29*
%TO.N,Net-(J3-PadA5)*%
X58110689Y-139170000D02*
X57440489Y-138499800D01*
D30*
%TO.N,D-*%
X57915000Y-137659022D02*
X57915000Y-136863542D01*
%TD*%
%TA.AperFunction,Conductor*%
%TO.N,GND*%
G36*
X93970056Y-105909500D02*
G01*
X93972284Y-105909847D01*
X93984859Y-105911805D01*
X93984861Y-105911805D01*
X93993730Y-105913186D01*
X94002632Y-105912022D01*
X94002634Y-105912022D01*
X94008959Y-105911195D01*
X94034282Y-105910452D01*
X94198126Y-105922170D01*
X94203343Y-105922543D01*
X94221137Y-105925101D01*
X94411540Y-105966521D01*
X94428788Y-105971586D01*
X94611358Y-106039682D01*
X94627710Y-106047149D01*
X94693020Y-106082810D01*
X94798734Y-106140534D01*
X94813848Y-106150248D01*
X94923516Y-106232344D01*
X94969842Y-106267023D01*
X94983428Y-106278796D01*
X95121204Y-106416572D01*
X95132977Y-106430158D01*
X95249752Y-106586152D01*
X95259466Y-106601266D01*
X95298976Y-106673624D01*
X95352851Y-106772290D01*
X95360318Y-106788642D01*
X95428414Y-106971212D01*
X95433479Y-106988460D01*
X95456048Y-107092207D01*
X95474899Y-107178863D01*
X95477457Y-107196657D01*
X95487637Y-107338993D01*
X95489041Y-107358629D01*
X95488297Y-107376533D01*
X95488195Y-107384858D01*
X95486814Y-107393730D01*
X95487978Y-107402632D01*
X95487978Y-107402635D01*
X95490936Y-107425251D01*
X95492000Y-107441589D01*
X95492000Y-143350672D01*
X95490500Y-143370056D01*
X95486814Y-143393730D01*
X95487978Y-143402632D01*
X95487978Y-143402634D01*
X95488805Y-143408959D01*
X95489548Y-143434282D01*
X95483878Y-143513567D01*
X95477457Y-143603343D01*
X95474899Y-143621137D01*
X95438601Y-143787999D01*
X95433480Y-143811538D01*
X95428414Y-143828788D01*
X95360318Y-144011358D01*
X95352851Y-144027710D01*
X95259469Y-144198729D01*
X95249752Y-144213848D01*
X95203449Y-144275702D01*
X95132977Y-144369842D01*
X95121204Y-144383428D01*
X94983428Y-144521204D01*
X94969841Y-144532977D01*
X94813848Y-144649752D01*
X94798734Y-144659466D01*
X94693020Y-144717190D01*
X94627710Y-144752851D01*
X94611358Y-144760318D01*
X94428788Y-144828414D01*
X94411540Y-144833479D01*
X94248022Y-144869051D01*
X94221137Y-144874899D01*
X94203342Y-144877457D01*
X94154443Y-144880954D01*
X94041369Y-144889041D01*
X94023467Y-144888297D01*
X94015142Y-144888195D01*
X94006270Y-144886814D01*
X93997368Y-144887978D01*
X93997365Y-144887978D01*
X93974749Y-144890936D01*
X93958411Y-144892000D01*
X53049328Y-144892000D01*
X53029943Y-144890500D01*
X53029661Y-144890456D01*
X53027117Y-144890060D01*
X53015141Y-144888195D01*
X53015139Y-144888195D01*
X53006270Y-144886814D01*
X52997368Y-144887978D01*
X52997366Y-144887978D01*
X52991041Y-144888805D01*
X52965718Y-144889548D01*
X52796657Y-144877457D01*
X52778863Y-144874899D01*
X52751978Y-144869051D01*
X52588460Y-144833479D01*
X52571212Y-144828414D01*
X52388642Y-144760318D01*
X52372290Y-144752851D01*
X52306980Y-144717190D01*
X52201266Y-144659466D01*
X52186152Y-144649752D01*
X52030159Y-144532977D01*
X52016572Y-144521204D01*
X51878796Y-144383428D01*
X51867023Y-144369842D01*
X51796551Y-144275702D01*
X51750248Y-144213848D01*
X51740531Y-144198729D01*
X51647149Y-144027710D01*
X51639682Y-144011358D01*
X51571586Y-143828788D01*
X51566520Y-143811538D01*
X51561400Y-143787999D01*
X51525101Y-143621137D01*
X51522543Y-143603342D01*
X51515811Y-143509208D01*
X51510959Y-143441369D01*
X51511703Y-143423467D01*
X51511805Y-143415142D01*
X51513186Y-143406270D01*
X51511547Y-143393730D01*
X51509064Y-143374749D01*
X51508000Y-143358411D01*
X51508000Y-143077095D01*
X61177001Y-143077095D01*
X61177338Y-143083614D01*
X61187257Y-143179206D01*
X61190149Y-143192600D01*
X61241588Y-143346784D01*
X61247761Y-143359962D01*
X61333063Y-143497807D01*
X61342099Y-143509208D01*
X61456829Y-143623739D01*
X61468240Y-143632751D01*
X61606243Y-143717816D01*
X61619424Y-143723963D01*
X61773710Y-143775138D01*
X61787086Y-143778005D01*
X61881438Y-143787672D01*
X61887854Y-143788000D01*
X62287885Y-143788000D01*
X62303124Y-143783525D01*
X62304329Y-143782135D01*
X62306000Y-143774452D01*
X62306000Y-143769884D01*
X62814000Y-143769884D01*
X62818475Y-143785123D01*
X62819865Y-143786328D01*
X62827548Y-143787999D01*
X63232095Y-143787999D01*
X63238614Y-143787662D01*
X63334206Y-143777743D01*
X63347600Y-143774851D01*
X63501784Y-143723412D01*
X63514962Y-143717239D01*
X63652807Y-143631937D01*
X63664208Y-143622901D01*
X63778739Y-143508171D01*
X63787751Y-143496760D01*
X63872816Y-143358757D01*
X63878963Y-143345576D01*
X63930138Y-143191290D01*
X63933005Y-143177914D01*
X63942672Y-143083562D01*
X63943000Y-143077146D01*
X63943000Y-142902115D01*
X63938525Y-142886876D01*
X63937135Y-142885671D01*
X63929452Y-142884000D01*
X62832115Y-142884000D01*
X62816876Y-142888475D01*
X62815671Y-142889865D01*
X62814000Y-142897548D01*
X62814000Y-143769884D01*
X62306000Y-143769884D01*
X62306000Y-142902115D01*
X62301525Y-142886876D01*
X62300135Y-142885671D01*
X62292452Y-142884000D01*
X61195116Y-142884000D01*
X61179877Y-142888475D01*
X61178672Y-142889865D01*
X61177001Y-142897548D01*
X61177001Y-143077095D01*
X51508000Y-143077095D01*
X51508000Y-142005768D01*
X52632425Y-142005768D01*
X52664138Y-142113521D01*
X52668731Y-142124889D01*
X52754607Y-142289154D01*
X52761321Y-142299415D01*
X52877468Y-142443873D01*
X52886046Y-142452632D01*
X53028039Y-142571778D01*
X53038159Y-142578708D01*
X53200585Y-142668002D01*
X53211858Y-142672834D01*
X53388538Y-142728880D01*
X53400532Y-142731430D01*
X53544761Y-142747607D01*
X53551785Y-142748000D01*
X53632885Y-142748000D01*
X53648124Y-142743525D01*
X53649329Y-142742135D01*
X53651000Y-142734452D01*
X53651000Y-142729885D01*
X54159000Y-142729885D01*
X54163475Y-142745124D01*
X54164865Y-142746329D01*
X54172548Y-142748000D01*
X54251657Y-142748000D01*
X54257805Y-142747699D01*
X54395603Y-142734188D01*
X54407638Y-142731805D01*
X54585076Y-142678233D01*
X54596416Y-142673559D01*
X54760077Y-142586540D01*
X54770294Y-142579751D01*
X54913933Y-142462603D01*
X54922637Y-142453959D01*
X55040784Y-142311144D01*
X55047644Y-142300973D01*
X55135804Y-142137924D01*
X55140556Y-142126619D01*
X55176250Y-142011308D01*
X55176331Y-142005768D01*
X56562425Y-142005768D01*
X56594138Y-142113521D01*
X56598731Y-142124889D01*
X56684607Y-142289154D01*
X56691321Y-142299415D01*
X56807468Y-142443873D01*
X56816046Y-142452632D01*
X56958039Y-142571778D01*
X56968159Y-142578708D01*
X57130585Y-142668002D01*
X57141858Y-142672834D01*
X57318538Y-142728880D01*
X57330532Y-142731430D01*
X57474761Y-142747607D01*
X57481785Y-142748000D01*
X57812885Y-142748000D01*
X57828124Y-142743525D01*
X57829329Y-142742135D01*
X57831000Y-142734452D01*
X57831000Y-142729885D01*
X58339000Y-142729885D01*
X58343475Y-142745124D01*
X58344865Y-142746329D01*
X58352548Y-142748000D01*
X58681657Y-142748000D01*
X58687805Y-142747699D01*
X58825603Y-142734188D01*
X58837638Y-142731805D01*
X59015076Y-142678233D01*
X59026416Y-142673559D01*
X59190077Y-142586540D01*
X59200294Y-142579751D01*
X59343933Y-142462603D01*
X59352637Y-142453959D01*
X59432116Y-142357885D01*
X61177000Y-142357885D01*
X61181475Y-142373124D01*
X61182865Y-142374329D01*
X61190548Y-142376000D01*
X62287885Y-142376000D01*
X62303124Y-142371525D01*
X62304329Y-142370135D01*
X62306000Y-142362452D01*
X62306000Y-142357885D01*
X62814000Y-142357885D01*
X62818475Y-142373124D01*
X62819865Y-142374329D01*
X62827548Y-142376000D01*
X63924884Y-142376000D01*
X63940123Y-142371525D01*
X63941328Y-142370135D01*
X63942999Y-142362452D01*
X63942999Y-142182905D01*
X63942662Y-142176386D01*
X63932743Y-142080794D01*
X63929851Y-142067400D01*
X63878412Y-141913216D01*
X63872239Y-141900038D01*
X63786937Y-141762193D01*
X63777901Y-141750792D01*
X63663171Y-141636261D01*
X63651760Y-141627249D01*
X63513757Y-141542184D01*
X63500576Y-141536037D01*
X63346290Y-141484862D01*
X63332914Y-141481995D01*
X63238562Y-141472328D01*
X63232145Y-141472000D01*
X62832115Y-141472000D01*
X62816876Y-141476475D01*
X62815671Y-141477865D01*
X62814000Y-141485548D01*
X62814000Y-142357885D01*
X62306000Y-142357885D01*
X62306000Y-141490116D01*
X62301525Y-141474877D01*
X62300135Y-141473672D01*
X62292452Y-141472001D01*
X61887905Y-141472001D01*
X61881386Y-141472338D01*
X61785794Y-141482257D01*
X61772400Y-141485149D01*
X61618216Y-141536588D01*
X61605038Y-141542761D01*
X61467193Y-141628063D01*
X61455792Y-141637099D01*
X61341261Y-141751829D01*
X61332249Y-141763240D01*
X61247184Y-141901243D01*
X61241037Y-141914424D01*
X61189862Y-142068710D01*
X61186995Y-142082086D01*
X61177328Y-142176438D01*
X61177000Y-142182855D01*
X61177000Y-142357885D01*
X59432116Y-142357885D01*
X59470784Y-142311144D01*
X59477644Y-142300973D01*
X59565804Y-142137924D01*
X59570556Y-142126619D01*
X59606250Y-142011308D01*
X59606456Y-141997205D01*
X59599701Y-141994000D01*
X58357115Y-141994000D01*
X58341876Y-141998475D01*
X58340671Y-141999865D01*
X58339000Y-142007548D01*
X58339000Y-142729885D01*
X57831000Y-142729885D01*
X57831000Y-142012115D01*
X57826525Y-141996876D01*
X57825135Y-141995671D01*
X57817452Y-141994000D01*
X56577076Y-141994000D01*
X56563545Y-141997973D01*
X56562425Y-142005768D01*
X55176331Y-142005768D01*
X55176456Y-141997205D01*
X55169701Y-141994000D01*
X54177115Y-141994000D01*
X54161876Y-141998475D01*
X54160671Y-141999865D01*
X54159000Y-142007548D01*
X54159000Y-142729885D01*
X53651000Y-142729885D01*
X53651000Y-142012115D01*
X53646525Y-141996876D01*
X53645135Y-141995671D01*
X53637452Y-141994000D01*
X52647076Y-141994000D01*
X52633545Y-141997973D01*
X52632425Y-142005768D01*
X51508000Y-142005768D01*
X51508000Y-141482795D01*
X52633544Y-141482795D01*
X52640299Y-141486000D01*
X53632885Y-141486000D01*
X53648124Y-141481525D01*
X53649329Y-141480135D01*
X53651000Y-141472452D01*
X53651000Y-141467885D01*
X54159000Y-141467885D01*
X54163475Y-141483124D01*
X54164865Y-141484329D01*
X54172548Y-141486000D01*
X55162924Y-141486000D01*
X55176455Y-141482027D01*
X55177575Y-141474232D01*
X55145862Y-141366479D01*
X55141269Y-141355111D01*
X55055393Y-141190846D01*
X55048679Y-141180585D01*
X54932532Y-141036127D01*
X54923954Y-141027368D01*
X54781961Y-140908222D01*
X54771841Y-140901292D01*
X54609415Y-140811998D01*
X54598142Y-140807166D01*
X54421462Y-140751120D01*
X54409468Y-140748570D01*
X54265239Y-140732393D01*
X54258215Y-140732000D01*
X54177115Y-140732000D01*
X54161876Y-140736475D01*
X54160671Y-140737865D01*
X54159000Y-140745548D01*
X54159000Y-141467885D01*
X53651000Y-141467885D01*
X53651000Y-140750115D01*
X53646525Y-140734876D01*
X53645135Y-140733671D01*
X53637452Y-140732000D01*
X53558343Y-140732000D01*
X53552195Y-140732301D01*
X53414397Y-140745812D01*
X53402362Y-140748195D01*
X53224924Y-140801767D01*
X53213584Y-140806441D01*
X53049923Y-140893460D01*
X53039706Y-140900249D01*
X52896067Y-141017397D01*
X52887363Y-141026041D01*
X52769216Y-141168856D01*
X52762356Y-141179027D01*
X52674196Y-141342076D01*
X52669444Y-141353381D01*
X52633750Y-141468692D01*
X52633544Y-141482795D01*
X51508000Y-141482795D01*
X51508000Y-133365768D01*
X52632425Y-133365768D01*
X52664138Y-133473521D01*
X52668731Y-133484889D01*
X52754607Y-133649154D01*
X52761321Y-133659415D01*
X52877468Y-133803873D01*
X52886046Y-133812632D01*
X53028039Y-133931778D01*
X53038159Y-133938708D01*
X53200585Y-134028002D01*
X53211858Y-134032834D01*
X53388538Y-134088880D01*
X53400532Y-134091430D01*
X53544761Y-134107607D01*
X53551785Y-134108000D01*
X53632885Y-134108000D01*
X53648124Y-134103525D01*
X53649329Y-134102135D01*
X53651000Y-134094452D01*
X53651000Y-134089885D01*
X54159000Y-134089885D01*
X54163475Y-134105124D01*
X54164865Y-134106329D01*
X54172548Y-134108000D01*
X54251657Y-134108000D01*
X54257805Y-134107699D01*
X54395603Y-134094188D01*
X54407638Y-134091805D01*
X54585076Y-134038233D01*
X54596416Y-134033559D01*
X54760077Y-133946540D01*
X54770294Y-133939751D01*
X54913933Y-133822603D01*
X54922637Y-133813959D01*
X55040784Y-133671144D01*
X55047644Y-133660973D01*
X55135804Y-133497924D01*
X55140556Y-133486619D01*
X55176250Y-133371308D01*
X55176331Y-133365768D01*
X56562425Y-133365768D01*
X56594138Y-133473521D01*
X56598731Y-133484889D01*
X56684607Y-133649154D01*
X56691321Y-133659415D01*
X56807468Y-133803873D01*
X56816045Y-133812632D01*
X56868110Y-133856319D01*
X56907436Y-133915428D01*
X56908563Y-133986416D01*
X56891331Y-134023663D01*
X56814723Y-134136388D01*
X56747470Y-134304534D01*
X56746356Y-134311262D01*
X56746355Y-134311266D01*
X56728180Y-134421053D01*
X56717892Y-134483198D01*
X56718249Y-134490015D01*
X56718249Y-134490019D01*
X56720093Y-134525196D01*
X56727370Y-134664047D01*
X56729181Y-134670620D01*
X56729181Y-134670623D01*
X56758640Y-134777572D01*
X56775461Y-134838641D01*
X56859922Y-134998836D01*
X56864327Y-135004049D01*
X56864330Y-135004053D01*
X56972406Y-135131943D01*
X56972410Y-135131947D01*
X56976813Y-135137157D01*
X56982237Y-135141304D01*
X56982238Y-135141305D01*
X57115257Y-135243006D01*
X57115261Y-135243009D01*
X57120678Y-135247150D01*
X57173429Y-135271748D01*
X57278631Y-135320805D01*
X57278634Y-135320806D01*
X57284808Y-135323685D01*
X57291456Y-135325171D01*
X57291459Y-135325172D01*
X57380559Y-135345088D01*
X57461543Y-135363190D01*
X57467088Y-135363500D01*
X57593069Y-135363500D01*
X57661190Y-135383502D01*
X57707683Y-135437158D01*
X57717787Y-135507432D01*
X57688293Y-135572012D01*
X57644021Y-135603411D01*
X57644185Y-135603709D01*
X57641585Y-135605138D01*
X57639451Y-135606652D01*
X57637558Y-135607402D01*
X57629865Y-135610448D01*
X57623450Y-135615109D01*
X57594107Y-135636427D01*
X57584189Y-135642943D01*
X57566631Y-135653327D01*
X57546119Y-135665458D01*
X57531795Y-135679782D01*
X57516763Y-135692621D01*
X57500375Y-135704528D01*
X57472194Y-135738593D01*
X57464204Y-135747373D01*
X57048236Y-136163341D01*
X57039950Y-136170881D01*
X57033471Y-136174993D01*
X57028046Y-136180770D01*
X57027048Y-136181833D01*
X56992709Y-136218401D01*
X56986846Y-136224644D01*
X56984091Y-136227486D01*
X56964354Y-136247223D01*
X56961874Y-136250420D01*
X56954171Y-136259440D01*
X56923903Y-136291672D01*
X56920084Y-136298618D01*
X56920082Y-136298621D01*
X56914141Y-136309427D01*
X56903290Y-136325946D01*
X56890875Y-136341952D01*
X56887730Y-136349221D01*
X56887727Y-136349225D01*
X56873315Y-136382530D01*
X56868098Y-136393180D01*
X56846794Y-136431933D01*
X56844823Y-136439608D01*
X56844823Y-136439609D01*
X56841756Y-136451555D01*
X56835352Y-136470259D01*
X56833992Y-136473403D01*
X56827308Y-136488848D01*
X56826069Y-136496671D01*
X56826066Y-136496681D01*
X56820390Y-136532517D01*
X56817984Y-136544137D01*
X56806989Y-136586963D01*
X56806989Y-136607217D01*
X56805438Y-136626927D01*
X56802269Y-136646936D01*
X56803015Y-136654828D01*
X56806430Y-136690954D01*
X56806989Y-136702812D01*
X56806989Y-138421033D01*
X56806462Y-138432216D01*
X56804787Y-138439709D01*
X56805036Y-138447635D01*
X56805036Y-138447636D01*
X56806927Y-138507786D01*
X56806989Y-138511745D01*
X56806989Y-138539656D01*
X56807486Y-138543590D01*
X56807486Y-138543591D01*
X56807494Y-138543656D01*
X56808427Y-138555493D01*
X56809816Y-138599689D01*
X56815467Y-138619139D01*
X56819476Y-138638500D01*
X56822015Y-138658597D01*
X56824934Y-138665968D01*
X56824934Y-138665970D01*
X56838293Y-138699712D01*
X56842138Y-138710942D01*
X56843686Y-138716270D01*
X56854471Y-138753393D01*
X56858504Y-138760212D01*
X56858506Y-138760217D01*
X56864782Y-138770828D01*
X56873477Y-138788576D01*
X56880937Y-138807417D01*
X56885599Y-138813833D01*
X56885599Y-138813834D01*
X56906925Y-138843187D01*
X56913441Y-138853107D01*
X56930167Y-138881388D01*
X56935947Y-138891162D01*
X56950268Y-138905483D01*
X56963108Y-138920516D01*
X56975017Y-138936907D01*
X57001081Y-138958469D01*
X57009082Y-138965088D01*
X57017863Y-138973078D01*
X57351701Y-139306917D01*
X57385726Y-139369229D01*
X57380661Y-139440045D01*
X57338114Y-139496880D01*
X57302795Y-139515430D01*
X57273772Y-139525198D01*
X57209795Y-139546728D01*
X57209790Y-139546730D01*
X57203325Y-139548906D01*
X57048095Y-139642177D01*
X57043138Y-139646865D01*
X57043135Y-139646867D01*
X56957700Y-139727660D01*
X56916515Y-139766607D01*
X56912683Y-139772245D01*
X56912680Y-139772249D01*
X56848583Y-139866565D01*
X56814723Y-139916388D01*
X56747470Y-140084534D01*
X56746356Y-140091262D01*
X56746355Y-140091266D01*
X56719548Y-140253194D01*
X56717892Y-140263198D01*
X56718249Y-140270015D01*
X56718249Y-140270019D01*
X56722992Y-140360511D01*
X56727370Y-140444047D01*
X56729181Y-140450620D01*
X56729181Y-140450623D01*
X56768657Y-140593938D01*
X56775461Y-140618641D01*
X56859922Y-140778836D01*
X56864327Y-140784049D01*
X56864330Y-140784053D01*
X56882694Y-140805783D01*
X56911386Y-140870724D01*
X56900413Y-140940868D01*
X56866092Y-140984754D01*
X56826067Y-141017397D01*
X56817363Y-141026041D01*
X56699216Y-141168856D01*
X56692356Y-141179027D01*
X56604196Y-141342076D01*
X56599444Y-141353381D01*
X56563750Y-141468692D01*
X56563544Y-141482795D01*
X56570299Y-141486000D01*
X57812885Y-141486000D01*
X57828124Y-141481525D01*
X57829329Y-141480135D01*
X57831000Y-141472452D01*
X57831000Y-141185830D01*
X57851002Y-141117709D01*
X57903218Y-141072257D01*
X57906675Y-141071094D01*
X57953552Y-141042928D01*
X57996042Y-141017397D01*
X58061905Y-140977823D01*
X58066862Y-140973135D01*
X58066865Y-140973133D01*
X58126427Y-140916807D01*
X58189664Y-140884535D01*
X58260311Y-140891575D01*
X58315937Y-140935691D01*
X58339000Y-141008355D01*
X58339000Y-141467885D01*
X58343475Y-141483124D01*
X58344865Y-141484329D01*
X58352548Y-141486000D01*
X58727885Y-141486000D01*
X58743124Y-141481525D01*
X58744329Y-141480135D01*
X58746000Y-141472452D01*
X58746000Y-140942115D01*
X58741525Y-140926876D01*
X58730947Y-140917710D01*
X58686786Y-140893596D01*
X58652761Y-140831284D01*
X58657825Y-140760468D01*
X58700372Y-140703632D01*
X58766892Y-140678821D01*
X58775881Y-140678500D01*
X59128000Y-140678500D01*
X59196121Y-140698502D01*
X59242614Y-140752158D01*
X59254000Y-140804500D01*
X59254000Y-141467885D01*
X59258475Y-141483124D01*
X59259865Y-141484329D01*
X59267548Y-141486000D01*
X59592924Y-141486000D01*
X59602790Y-141483103D01*
X59638288Y-141477999D01*
X59769669Y-141477999D01*
X59776490Y-141477629D01*
X59827352Y-141472105D01*
X59842604Y-141468479D01*
X59963054Y-141423324D01*
X59978649Y-141414786D01*
X60080724Y-141338285D01*
X60093285Y-141325724D01*
X60169786Y-141223649D01*
X60178324Y-141208054D01*
X60223478Y-141087606D01*
X60227105Y-141072351D01*
X60232631Y-141021486D01*
X60233000Y-141014672D01*
X60233000Y-140905213D01*
X60253002Y-140837092D01*
X60306658Y-140790599D01*
X60376932Y-140780495D01*
X60385197Y-140781966D01*
X60477698Y-140801628D01*
X60477703Y-140801628D01*
X60484155Y-140803000D01*
X60675129Y-140803000D01*
X60681581Y-140801628D01*
X60681586Y-140801628D01*
X60768529Y-140783147D01*
X60861930Y-140763294D01*
X60867961Y-140760609D01*
X61030364Y-140688303D01*
X61030366Y-140688302D01*
X61036394Y-140685618D01*
X61050139Y-140675632D01*
X61115010Y-140628500D01*
X61190895Y-140573366D01*
X61251209Y-140506380D01*
X61311654Y-140469142D01*
X61382638Y-140470494D01*
X61433861Y-140501518D01*
X61450873Y-140518500D01*
X61461697Y-140529305D01*
X61467927Y-140533145D01*
X61467928Y-140533146D01*
X61605090Y-140617694D01*
X61612262Y-140622115D01*
X61688003Y-140647237D01*
X61773611Y-140675632D01*
X61773613Y-140675632D01*
X61780139Y-140677797D01*
X61786975Y-140678497D01*
X61786978Y-140678498D01*
X61818593Y-140681737D01*
X61884600Y-140688500D01*
X63235400Y-140688500D01*
X63238646Y-140688163D01*
X63238650Y-140688163D01*
X63334308Y-140678238D01*
X63334312Y-140678237D01*
X63341166Y-140677526D01*
X63347702Y-140675345D01*
X63347704Y-140675345D01*
X63499564Y-140624680D01*
X63508946Y-140621550D01*
X63659348Y-140528478D01*
X63668238Y-140519573D01*
X63779134Y-140408483D01*
X63784305Y-140403303D01*
X63789996Y-140394071D01*
X63873275Y-140258968D01*
X63873276Y-140258966D01*
X63877115Y-140252738D01*
X63921037Y-140120316D01*
X63930632Y-140091389D01*
X63930632Y-140091387D01*
X63932797Y-140084861D01*
X63935002Y-140063346D01*
X63943172Y-139983598D01*
X63943500Y-139980400D01*
X63943500Y-139079600D01*
X63942388Y-139068882D01*
X63933238Y-138980692D01*
X63933237Y-138980688D01*
X63932526Y-138973834D01*
X63925054Y-138951436D01*
X63878868Y-138813002D01*
X63876550Y-138806054D01*
X63783478Y-138655652D01*
X63768835Y-138641034D01*
X63663483Y-138535866D01*
X63658303Y-138530695D01*
X63649721Y-138525405D01*
X63513968Y-138441725D01*
X63513966Y-138441724D01*
X63507738Y-138437885D01*
X63347254Y-138384655D01*
X63346389Y-138384368D01*
X63346387Y-138384368D01*
X63339861Y-138382203D01*
X63333025Y-138381503D01*
X63333022Y-138381502D01*
X63289969Y-138377091D01*
X63235400Y-138371500D01*
X61884600Y-138371500D01*
X61881354Y-138371837D01*
X61881350Y-138371837D01*
X61785692Y-138381762D01*
X61785688Y-138381763D01*
X61778834Y-138382474D01*
X61772298Y-138384655D01*
X61772296Y-138384655D01*
X61663259Y-138421033D01*
X61611054Y-138438450D01*
X61604822Y-138442306D01*
X61604823Y-138442306D01*
X61483078Y-138517644D01*
X61416775Y-138536500D01*
X61008906Y-138536500D01*
X60940785Y-138516498D01*
X60894292Y-138462842D01*
X60884188Y-138392568D01*
X60913682Y-138327988D01*
X60919811Y-138321405D01*
X61561927Y-137679289D01*
X61576961Y-137666448D01*
X61587899Y-137658501D01*
X61594313Y-137653841D01*
X61623759Y-137618247D01*
X61631748Y-137609468D01*
X62437106Y-136804110D01*
X62445886Y-136796120D01*
X62445888Y-136796118D01*
X62452581Y-136791871D01*
X62464578Y-136779096D01*
X62501105Y-136740198D01*
X62503860Y-136737356D01*
X62524428Y-136716788D01*
X62527148Y-136713281D01*
X62534854Y-136704259D01*
X62555043Y-136682760D01*
X62566473Y-136670588D01*
X62570295Y-136663636D01*
X62576804Y-136651797D01*
X62587658Y-136635273D01*
X62595946Y-136624587D01*
X62600805Y-136618323D01*
X62603953Y-136611049D01*
X62619155Y-136575920D01*
X62624377Y-136565260D01*
X62642806Y-136531739D01*
X62642807Y-136531737D01*
X62646625Y-136524792D01*
X62651960Y-136504014D01*
X62658359Y-136485324D01*
X62666881Y-136465631D01*
X62674107Y-136420007D01*
X62676514Y-136408384D01*
X62686029Y-136371323D01*
X62688001Y-136363643D01*
X62688001Y-136342196D01*
X62689552Y-136322486D01*
X62691667Y-136309132D01*
X62692907Y-136301303D01*
X62688560Y-136255314D01*
X62688001Y-136243459D01*
X62688001Y-135745885D01*
X62708003Y-135677764D01*
X62724906Y-135656790D01*
X63656350Y-134725346D01*
X63718662Y-134691320D01*
X63789477Y-134696385D01*
X63846313Y-134738932D01*
X63867366Y-134785127D01*
X63867474Y-134786166D01*
X63923450Y-134953946D01*
X64016522Y-135104348D01*
X64141697Y-135229305D01*
X64147927Y-135233145D01*
X64147928Y-135233146D01*
X64285090Y-135317694D01*
X64292262Y-135322115D01*
X64348261Y-135340689D01*
X64453611Y-135375632D01*
X64453613Y-135375632D01*
X64460139Y-135377797D01*
X64466975Y-135378497D01*
X64466978Y-135378498D01*
X64510031Y-135382909D01*
X64564600Y-135388500D01*
X65915400Y-135388500D01*
X65918646Y-135388163D01*
X65918650Y-135388163D01*
X66014308Y-135378238D01*
X66014312Y-135378237D01*
X66021166Y-135377526D01*
X66027702Y-135375345D01*
X66027704Y-135375345D01*
X66159806Y-135331272D01*
X66188946Y-135321550D01*
X66339348Y-135228478D01*
X66464305Y-135103303D01*
X66468146Y-135097072D01*
X66553273Y-134958972D01*
X66553275Y-134958967D01*
X66557115Y-134952738D01*
X66559420Y-134945787D01*
X66561535Y-134941252D01*
X66608452Y-134887966D01*
X66675731Y-134868500D01*
X67718991Y-134868500D01*
X67787112Y-134888502D01*
X67833605Y-134942158D01*
X67835903Y-134947694D01*
X67836232Y-134948296D01*
X67839385Y-134956705D01*
X67926739Y-135073261D01*
X67933919Y-135078642D01*
X68021219Y-135144070D01*
X68063734Y-135200929D01*
X68068760Y-135271748D01*
X68034749Y-135333991D01*
X67804144Y-135564596D01*
X67741832Y-135598621D01*
X67715049Y-135601500D01*
X67291866Y-135601500D01*
X67229684Y-135608255D01*
X67093295Y-135659385D01*
X66976739Y-135746739D01*
X66889385Y-135863295D01*
X66838255Y-135999684D01*
X66831500Y-136061866D01*
X66831500Y-136654378D01*
X66811498Y-136722499D01*
X66757842Y-136768992D01*
X66687568Y-136779096D01*
X66622988Y-136749602D01*
X66585976Y-136694254D01*
X66558868Y-136613002D01*
X66556550Y-136606054D01*
X66463478Y-136455652D01*
X66338303Y-136330695D01*
X66324986Y-136322486D01*
X66193968Y-136241725D01*
X66193966Y-136241724D01*
X66187738Y-136237885D01*
X66027254Y-136184655D01*
X66026389Y-136184368D01*
X66026387Y-136184368D01*
X66019861Y-136182203D01*
X66013025Y-136181503D01*
X66013022Y-136181502D01*
X65969969Y-136177091D01*
X65915400Y-136171500D01*
X64564600Y-136171500D01*
X64561354Y-136171837D01*
X64561350Y-136171837D01*
X64465692Y-136181762D01*
X64465688Y-136181763D01*
X64458834Y-136182474D01*
X64452298Y-136184655D01*
X64452296Y-136184655D01*
X64384601Y-136207240D01*
X64291054Y-136238450D01*
X64140652Y-136331522D01*
X64015695Y-136456697D01*
X64011855Y-136462927D01*
X64011854Y-136462928D01*
X63935398Y-136586963D01*
X63922885Y-136607262D01*
X63901309Y-136672313D01*
X63889277Y-136708589D01*
X63867203Y-136775139D01*
X63866503Y-136781975D01*
X63866502Y-136781978D01*
X63865053Y-136796120D01*
X63856500Y-136879600D01*
X63856500Y-137780400D01*
X63856837Y-137783646D01*
X63856837Y-137783650D01*
X63863657Y-137849375D01*
X63867474Y-137886166D01*
X63869655Y-137892702D01*
X63869655Y-137892704D01*
X63894488Y-137967137D01*
X63923450Y-138053946D01*
X64016522Y-138204348D01*
X64021704Y-138209521D01*
X64051711Y-138239476D01*
X64141697Y-138329305D01*
X64147927Y-138333145D01*
X64147928Y-138333146D01*
X64274821Y-138411364D01*
X64292262Y-138422115D01*
X64341511Y-138438450D01*
X64453611Y-138475632D01*
X64453613Y-138475632D01*
X64460139Y-138477797D01*
X64466975Y-138478497D01*
X64466978Y-138478498D01*
X64502175Y-138482104D01*
X64564600Y-138488500D01*
X65635050Y-138488500D01*
X65703171Y-138508502D01*
X65724145Y-138525405D01*
X66072059Y-138873319D01*
X66106085Y-138935631D01*
X66101020Y-139006446D01*
X66058473Y-139063282D01*
X65991953Y-139088093D01*
X65920604Y-139071680D01*
X65916752Y-139068882D01*
X65749123Y-138994249D01*
X65748319Y-138993891D01*
X65748318Y-138993891D01*
X65742288Y-138991206D01*
X65643854Y-138970283D01*
X65561944Y-138952872D01*
X65561939Y-138952872D01*
X65555487Y-138951500D01*
X65364513Y-138951500D01*
X65358061Y-138952872D01*
X65358056Y-138952872D01*
X65276146Y-138970283D01*
X65177712Y-138991206D01*
X65171682Y-138993891D01*
X65171681Y-138993891D01*
X65009278Y-139066197D01*
X65009276Y-139066198D01*
X65003248Y-139068882D01*
X64848747Y-139181134D01*
X64844326Y-139186044D01*
X64844325Y-139186045D01*
X64735492Y-139306917D01*
X64720960Y-139323056D01*
X64625473Y-139488444D01*
X64566458Y-139670072D01*
X64546496Y-139860000D01*
X64547186Y-139866565D01*
X64559487Y-139983598D01*
X64566458Y-140049928D01*
X64625473Y-140231556D01*
X64628776Y-140237278D01*
X64628777Y-140237279D01*
X64644142Y-140263891D01*
X64720960Y-140396944D01*
X64725378Y-140401851D01*
X64725379Y-140401852D01*
X64840138Y-140529305D01*
X64848747Y-140538866D01*
X65003248Y-140651118D01*
X65009276Y-140653802D01*
X65009278Y-140653803D01*
X65121152Y-140703612D01*
X65177712Y-140728794D01*
X65256533Y-140745548D01*
X65358056Y-140767128D01*
X65358061Y-140767128D01*
X65364513Y-140768500D01*
X65385050Y-140768500D01*
X65453171Y-140788502D01*
X65474145Y-140805405D01*
X66986345Y-142317605D01*
X66994335Y-142326385D01*
X66998584Y-142333080D01*
X67004362Y-142338506D01*
X67004363Y-142338507D01*
X67050257Y-142381604D01*
X67053099Y-142384359D01*
X67073667Y-142404927D01*
X67077170Y-142407644D01*
X67086195Y-142415352D01*
X67119867Y-142446972D01*
X67126818Y-142450793D01*
X67126819Y-142450794D01*
X67138658Y-142457303D01*
X67155182Y-142468157D01*
X67163915Y-142474930D01*
X67172132Y-142481304D01*
X67179404Y-142484451D01*
X67179406Y-142484452D01*
X67214535Y-142499654D01*
X67225196Y-142504876D01*
X67265663Y-142527124D01*
X67286441Y-142532459D01*
X67305131Y-142538858D01*
X67324824Y-142547380D01*
X67368596Y-142554313D01*
X67370448Y-142554606D01*
X67382071Y-142557013D01*
X67403817Y-142562596D01*
X67426812Y-142568500D01*
X67448259Y-142568500D01*
X67467969Y-142570051D01*
X67489152Y-142573406D01*
X67535141Y-142569059D01*
X67546996Y-142568500D01*
X67668991Y-142568500D01*
X67737112Y-142588502D01*
X67783605Y-142642158D01*
X67785903Y-142647694D01*
X67786232Y-142648296D01*
X67789385Y-142656705D01*
X67876739Y-142773261D01*
X67993295Y-142860615D01*
X68129684Y-142911745D01*
X68191866Y-142918500D01*
X68988134Y-142918500D01*
X69050316Y-142911745D01*
X69186705Y-142860615D01*
X69303261Y-142773261D01*
X69390615Y-142656705D01*
X69393767Y-142648296D01*
X69398077Y-142640425D01*
X69399741Y-142641336D01*
X69435663Y-142593510D01*
X69502224Y-142568807D01*
X69511009Y-142568500D01*
X70693613Y-142568500D01*
X70761734Y-142588502D01*
X70802184Y-142634730D01*
X70803450Y-142633946D01*
X70896522Y-142784348D01*
X71021697Y-142909305D01*
X71027927Y-142913145D01*
X71027928Y-142913146D01*
X71165090Y-142997694D01*
X71172262Y-143002115D01*
X71252005Y-143028564D01*
X71333611Y-143055632D01*
X71333613Y-143055632D01*
X71340139Y-143057797D01*
X71346975Y-143058497D01*
X71346978Y-143058498D01*
X71390031Y-143062909D01*
X71444600Y-143068500D01*
X72795400Y-143068500D01*
X72798646Y-143068163D01*
X72798650Y-143068163D01*
X72894308Y-143058238D01*
X72894312Y-143058237D01*
X72901166Y-143057526D01*
X72907702Y-143055345D01*
X72907704Y-143055345D01*
X73039806Y-143011272D01*
X73068946Y-143001550D01*
X73219348Y-142908478D01*
X73344305Y-142783303D01*
X73366252Y-142747699D01*
X73433275Y-142638968D01*
X73433276Y-142638966D01*
X73437115Y-142632738D01*
X73492797Y-142464861D01*
X73493572Y-142457303D01*
X73498938Y-142404927D01*
X73503500Y-142360400D01*
X73503500Y-142000000D01*
X74486540Y-142000000D01*
X74506359Y-142315020D01*
X74565505Y-142625072D01*
X74571057Y-142642158D01*
X74655906Y-142903296D01*
X74663044Y-142925266D01*
X74664731Y-142928852D01*
X74664733Y-142928856D01*
X74795750Y-143207283D01*
X74795754Y-143207290D01*
X74797438Y-143210869D01*
X74966568Y-143477375D01*
X75003281Y-143521753D01*
X75159278Y-143710320D01*
X75167767Y-143720582D01*
X75170657Y-143723296D01*
X75170658Y-143723297D01*
X75171367Y-143723963D01*
X75397860Y-143936654D01*
X75653221Y-144122184D01*
X75656690Y-144124091D01*
X75656693Y-144124093D01*
X75819965Y-144213853D01*
X75929821Y-144274247D01*
X75933490Y-144275700D01*
X75933495Y-144275702D01*
X76171266Y-144369842D01*
X76223298Y-144390443D01*
X76529025Y-144468940D01*
X76842179Y-144508500D01*
X77157821Y-144508500D01*
X77470975Y-144468940D01*
X77776702Y-144390443D01*
X77828734Y-144369842D01*
X78066505Y-144275702D01*
X78066510Y-144275700D01*
X78070179Y-144274247D01*
X78180035Y-144213853D01*
X78343307Y-144124093D01*
X78343310Y-144124091D01*
X78346779Y-144122184D01*
X78602140Y-143936654D01*
X78828633Y-143723963D01*
X78829342Y-143723297D01*
X78829343Y-143723296D01*
X78832233Y-143720582D01*
X78840723Y-143710320D01*
X78847052Y-143702670D01*
X80132160Y-143702670D01*
X80137887Y-143710320D01*
X80309042Y-143815205D01*
X80317837Y-143819687D01*
X80527988Y-143906734D01*
X80537373Y-143909783D01*
X80758554Y-143962885D01*
X80768301Y-143964428D01*
X80995070Y-143982275D01*
X81004930Y-143982275D01*
X81231699Y-143964428D01*
X81241446Y-143962885D01*
X81462627Y-143909783D01*
X81472012Y-143906734D01*
X81682163Y-143819687D01*
X81690958Y-143815205D01*
X81858445Y-143712568D01*
X81867400Y-143702670D01*
X86632160Y-143702670D01*
X86637887Y-143710320D01*
X86809042Y-143815205D01*
X86817837Y-143819687D01*
X87027988Y-143906734D01*
X87037373Y-143909783D01*
X87258554Y-143962885D01*
X87268301Y-143964428D01*
X87495070Y-143982275D01*
X87504930Y-143982275D01*
X87731699Y-143964428D01*
X87741446Y-143962885D01*
X87962627Y-143909783D01*
X87972012Y-143906734D01*
X88182163Y-143819687D01*
X88190958Y-143815205D01*
X88358445Y-143712568D01*
X88367907Y-143702110D01*
X88364124Y-143693334D01*
X87512812Y-142842022D01*
X87498868Y-142834408D01*
X87497035Y-142834539D01*
X87490420Y-142838790D01*
X86638920Y-143690290D01*
X86632160Y-143702670D01*
X81867400Y-143702670D01*
X81867907Y-143702110D01*
X81864124Y-143693334D01*
X81012812Y-142842022D01*
X80998868Y-142834408D01*
X80997035Y-142834539D01*
X80990420Y-142838790D01*
X80138920Y-143690290D01*
X80132160Y-143702670D01*
X78847052Y-143702670D01*
X78996719Y-143521753D01*
X79033432Y-143477375D01*
X79202562Y-143210869D01*
X79332279Y-142935205D01*
X79379381Y-142882084D01*
X79447726Y-142862861D01*
X79515614Y-142883640D01*
X79562696Y-142940635D01*
X79650313Y-143152163D01*
X79654795Y-143160958D01*
X79757432Y-143328445D01*
X79767890Y-143337907D01*
X79776666Y-143334124D01*
X80627978Y-142482812D01*
X80634356Y-142471132D01*
X81364408Y-142471132D01*
X81364539Y-142472965D01*
X81368790Y-142479580D01*
X82220290Y-143331080D01*
X82232670Y-143337840D01*
X82240320Y-143332113D01*
X82345205Y-143160958D01*
X82349687Y-143152163D01*
X82436734Y-142942012D01*
X82439783Y-142932627D01*
X82492885Y-142711446D01*
X82494428Y-142701699D01*
X82512275Y-142474930D01*
X85987725Y-142474930D01*
X86005572Y-142701699D01*
X86007115Y-142711446D01*
X86060217Y-142932627D01*
X86063266Y-142942012D01*
X86150313Y-143152163D01*
X86154795Y-143160958D01*
X86257432Y-143328445D01*
X86267890Y-143337907D01*
X86276666Y-143334124D01*
X87127978Y-142482812D01*
X87134356Y-142471132D01*
X87864408Y-142471132D01*
X87864539Y-142472965D01*
X87868790Y-142479580D01*
X88720290Y-143331080D01*
X88732670Y-143337840D01*
X88740320Y-143332113D01*
X88845205Y-143160958D01*
X88849687Y-143152163D01*
X88936734Y-142942012D01*
X88939783Y-142932627D01*
X88992885Y-142711446D01*
X88994428Y-142701699D01*
X89012275Y-142474930D01*
X89012275Y-142465070D01*
X88994428Y-142238301D01*
X88992885Y-142228554D01*
X88968430Y-142126695D01*
X89767251Y-142126695D01*
X89767548Y-142131848D01*
X89767548Y-142131851D01*
X89778259Y-142317605D01*
X89780110Y-142349715D01*
X89781247Y-142354761D01*
X89781248Y-142354767D01*
X89793100Y-142407356D01*
X89829222Y-142567639D01*
X89913266Y-142774616D01*
X89949987Y-142834539D01*
X89995599Y-142908971D01*
X90029987Y-142965088D01*
X90176250Y-143133938D01*
X90348126Y-143276632D01*
X90541000Y-143389338D01*
X90545825Y-143391180D01*
X90545826Y-143391181D01*
X90585340Y-143406270D01*
X90749692Y-143469030D01*
X90754760Y-143470061D01*
X90754763Y-143470062D01*
X90862017Y-143491883D01*
X90968597Y-143513567D01*
X90973772Y-143513757D01*
X90973774Y-143513757D01*
X91186673Y-143521564D01*
X91186677Y-143521564D01*
X91191837Y-143521753D01*
X91196957Y-143521097D01*
X91196959Y-143521097D01*
X91408288Y-143494025D01*
X91408289Y-143494025D01*
X91413416Y-143493368D01*
X91418366Y-143491883D01*
X91622429Y-143430661D01*
X91622434Y-143430659D01*
X91627384Y-143429174D01*
X91827994Y-143330896D01*
X92009860Y-143201173D01*
X92033201Y-143177914D01*
X92091209Y-143120107D01*
X92168096Y-143043489D01*
X92196171Y-143004419D01*
X92295435Y-142866277D01*
X92298453Y-142862077D01*
X92301838Y-142855229D01*
X92395136Y-142666453D01*
X92395137Y-142666451D01*
X92397430Y-142661811D01*
X92438351Y-142527124D01*
X92460865Y-142453023D01*
X92460865Y-142453021D01*
X92462370Y-142448069D01*
X92491529Y-142226590D01*
X92491611Y-142223240D01*
X92493074Y-142163365D01*
X92493074Y-142163361D01*
X92493156Y-142160000D01*
X92474852Y-141937361D01*
X92420431Y-141720702D01*
X92331354Y-141515840D01*
X92218941Y-141342076D01*
X92212822Y-141332617D01*
X92212820Y-141332614D01*
X92210014Y-141328277D01*
X92059670Y-141163051D01*
X92055619Y-141159852D01*
X92055615Y-141159848D01*
X91888414Y-141027800D01*
X91888410Y-141027798D01*
X91884359Y-141024598D01*
X91843053Y-141001796D01*
X91793084Y-140951364D01*
X91778312Y-140881921D01*
X91803428Y-140815516D01*
X91830780Y-140788909D01*
X91891570Y-140745548D01*
X92009860Y-140661173D01*
X92042648Y-140628500D01*
X92127812Y-140543632D01*
X92168096Y-140503489D01*
X92187822Y-140476038D01*
X92295435Y-140326277D01*
X92298453Y-140322077D01*
X92312646Y-140293361D01*
X92395136Y-140126453D01*
X92395137Y-140126451D01*
X92397430Y-140121811D01*
X92430134Y-140014171D01*
X92460865Y-139913023D01*
X92460865Y-139913021D01*
X92462370Y-139908069D01*
X92491529Y-139686590D01*
X92493156Y-139620000D01*
X92474852Y-139397361D01*
X92420431Y-139180702D01*
X92331354Y-138975840D01*
X92253304Y-138855193D01*
X92212822Y-138792617D01*
X92212820Y-138792614D01*
X92210014Y-138788277D01*
X92059670Y-138623051D01*
X92055619Y-138619852D01*
X92055615Y-138619848D01*
X91888414Y-138487800D01*
X91888410Y-138487798D01*
X91884359Y-138484598D01*
X91843053Y-138461796D01*
X91793084Y-138411364D01*
X91778312Y-138341921D01*
X91803428Y-138275516D01*
X91830780Y-138248909D01*
X91896857Y-138201777D01*
X92009860Y-138121173D01*
X92168096Y-137963489D01*
X92227594Y-137880689D01*
X92295435Y-137786277D01*
X92298453Y-137782077D01*
X92322566Y-137733289D01*
X92395136Y-137586453D01*
X92395137Y-137586451D01*
X92397430Y-137581811D01*
X92462370Y-137368069D01*
X92491529Y-137146590D01*
X92491611Y-137143240D01*
X92493074Y-137083365D01*
X92493074Y-137083361D01*
X92493156Y-137080000D01*
X92474852Y-136857361D01*
X92420431Y-136640702D01*
X92331354Y-136435840D01*
X92239213Y-136293412D01*
X92212822Y-136252617D01*
X92212820Y-136252614D01*
X92210014Y-136248277D01*
X92059670Y-136083051D01*
X92055619Y-136079852D01*
X92055615Y-136079848D01*
X91888414Y-135947800D01*
X91888410Y-135947798D01*
X91884359Y-135944598D01*
X91843053Y-135921796D01*
X91793084Y-135871364D01*
X91778312Y-135801921D01*
X91803428Y-135735516D01*
X91830780Y-135708909D01*
X91900210Y-135659385D01*
X92009860Y-135581173D01*
X92168096Y-135423489D01*
X92176087Y-135412369D01*
X92295435Y-135246277D01*
X92298453Y-135242077D01*
X92303270Y-135232332D01*
X92395136Y-135046453D01*
X92395137Y-135046451D01*
X92397430Y-135041811D01*
X92462370Y-134828069D01*
X92491529Y-134606590D01*
X92493156Y-134540000D01*
X92474852Y-134317361D01*
X92420431Y-134100702D01*
X92331354Y-133895840D01*
X92210014Y-133708277D01*
X92059670Y-133543051D01*
X92055619Y-133539852D01*
X92055615Y-133539848D01*
X91888414Y-133407800D01*
X91888410Y-133407798D01*
X91884359Y-133404598D01*
X91877092Y-133400586D01*
X91842569Y-133381529D01*
X91792598Y-133331097D01*
X91777826Y-133261654D01*
X91802942Y-133195248D01*
X91830294Y-133168641D01*
X92005328Y-133043792D01*
X92013200Y-133037139D01*
X92164052Y-132886812D01*
X92170730Y-132878965D01*
X92295003Y-132706020D01*
X92300313Y-132697183D01*
X92394670Y-132506267D01*
X92398469Y-132496672D01*
X92460377Y-132292910D01*
X92462555Y-132282837D01*
X92463986Y-132271962D01*
X92461775Y-132257778D01*
X92448617Y-132254000D01*
X89813225Y-132254000D01*
X89799694Y-132257973D01*
X89798257Y-132267966D01*
X89828565Y-132402446D01*
X89831645Y-132412275D01*
X89911770Y-132609603D01*
X89916413Y-132618794D01*
X90027694Y-132800388D01*
X90033777Y-132808699D01*
X90173213Y-132969667D01*
X90180580Y-132976883D01*
X90344434Y-133112916D01*
X90352881Y-133118831D01*
X90421969Y-133159203D01*
X90470693Y-133210842D01*
X90483764Y-133280625D01*
X90457033Y-133346396D01*
X90416584Y-133379752D01*
X90403607Y-133386507D01*
X90399474Y-133389610D01*
X90399471Y-133389612D01*
X90233434Y-133514276D01*
X90224965Y-133520635D01*
X90199894Y-133546870D01*
X90092344Y-133659415D01*
X90070629Y-133682138D01*
X90067715Y-133686410D01*
X90067714Y-133686411D01*
X90049838Y-133712617D01*
X89944743Y-133866680D01*
X89924572Y-133910135D01*
X89866380Y-134035500D01*
X89850688Y-134069305D01*
X89790989Y-134284570D01*
X89767251Y-134506695D01*
X89767548Y-134511848D01*
X89767548Y-134511851D01*
X89777896Y-134691320D01*
X89780110Y-134729715D01*
X89781247Y-134734761D01*
X89781248Y-134734767D01*
X89782187Y-134738932D01*
X89829222Y-134947639D01*
X89882416Y-135078642D01*
X89905817Y-135136270D01*
X89913266Y-135154616D01*
X89915965Y-135159020D01*
X90025373Y-135337558D01*
X90029987Y-135345088D01*
X90176250Y-135513938D01*
X90348126Y-135656632D01*
X90363230Y-135665458D01*
X90421445Y-135699476D01*
X90470169Y-135751114D01*
X90483240Y-135820897D01*
X90456509Y-135886669D01*
X90416055Y-135920027D01*
X90403607Y-135926507D01*
X90399474Y-135929610D01*
X90399471Y-135929612D01*
X90306144Y-135999684D01*
X90224965Y-136060635D01*
X90070629Y-136222138D01*
X89944743Y-136406680D01*
X89914655Y-136471500D01*
X89859487Y-136590350D01*
X89850688Y-136609305D01*
X89790989Y-136824570D01*
X89767251Y-137046695D01*
X89767548Y-137051848D01*
X89767548Y-137051851D01*
X89777023Y-137216174D01*
X89780110Y-137269715D01*
X89781247Y-137274761D01*
X89781248Y-137274767D01*
X89796515Y-137342509D01*
X89829222Y-137487639D01*
X89878691Y-137609468D01*
X89900105Y-137662203D01*
X89913266Y-137694616D01*
X90029987Y-137885088D01*
X90176250Y-138053938D01*
X90348126Y-138196632D01*
X90370183Y-138209521D01*
X90421445Y-138239476D01*
X90470169Y-138291114D01*
X90483240Y-138360897D01*
X90456509Y-138426669D01*
X90416055Y-138460027D01*
X90403607Y-138466507D01*
X90399474Y-138469610D01*
X90399471Y-138469612D01*
X90272731Y-138564771D01*
X90224965Y-138600635D01*
X90171137Y-138656963D01*
X90114462Y-138716270D01*
X90070629Y-138762138D01*
X90067715Y-138766410D01*
X90067714Y-138766411D01*
X90040403Y-138806448D01*
X89944743Y-138946680D01*
X89922721Y-138994122D01*
X89859177Y-139131018D01*
X89850688Y-139149305D01*
X89790989Y-139364570D01*
X89767251Y-139586695D01*
X89767548Y-139591848D01*
X89767548Y-139591851D01*
X89773011Y-139686590D01*
X89780110Y-139809715D01*
X89781247Y-139814761D01*
X89781248Y-139814767D01*
X89786971Y-139840159D01*
X89829222Y-140027639D01*
X89913266Y-140234616D01*
X89915965Y-140239020D01*
X90023580Y-140414632D01*
X90029987Y-140425088D01*
X90176250Y-140593938D01*
X90348126Y-140736632D01*
X90393753Y-140763294D01*
X90421445Y-140779476D01*
X90470169Y-140831114D01*
X90483240Y-140900897D01*
X90456509Y-140966669D01*
X90416055Y-141000027D01*
X90403607Y-141006507D01*
X90399474Y-141009610D01*
X90399471Y-141009612D01*
X90229100Y-141137530D01*
X90224965Y-141140635D01*
X90070629Y-141302138D01*
X90067715Y-141306410D01*
X90067714Y-141306411D01*
X90023551Y-141371152D01*
X89944743Y-141486680D01*
X89850688Y-141689305D01*
X89790989Y-141904570D01*
X89767251Y-142126695D01*
X88968430Y-142126695D01*
X88939783Y-142007373D01*
X88936734Y-141997988D01*
X88849687Y-141787837D01*
X88845205Y-141779042D01*
X88742568Y-141611555D01*
X88732110Y-141602093D01*
X88723334Y-141605876D01*
X87872022Y-142457188D01*
X87864408Y-142471132D01*
X87134356Y-142471132D01*
X87135592Y-142468868D01*
X87135461Y-142467035D01*
X87131210Y-142460420D01*
X86279710Y-141608920D01*
X86267330Y-141602160D01*
X86259680Y-141607887D01*
X86154795Y-141779042D01*
X86150313Y-141787837D01*
X86063266Y-141997988D01*
X86060217Y-142007373D01*
X86007115Y-142228554D01*
X86005572Y-142238301D01*
X85987725Y-142465070D01*
X85987725Y-142474930D01*
X82512275Y-142474930D01*
X82512275Y-142465070D01*
X82494428Y-142238301D01*
X82492885Y-142228554D01*
X82439783Y-142007373D01*
X82436734Y-141997988D01*
X82349687Y-141787837D01*
X82345205Y-141779042D01*
X82242568Y-141611555D01*
X82232110Y-141602093D01*
X82223334Y-141605876D01*
X81372022Y-142457188D01*
X81364408Y-142471132D01*
X80634356Y-142471132D01*
X80635592Y-142468868D01*
X80635461Y-142467035D01*
X80631210Y-142460420D01*
X79779710Y-141608920D01*
X79767330Y-141602160D01*
X79759682Y-141607886D01*
X79715755Y-141679567D01*
X79663107Y-141727198D01*
X79593065Y-141738805D01*
X79527868Y-141710702D01*
X79488214Y-141651811D01*
X79484554Y-141637342D01*
X79435239Y-141378829D01*
X79434495Y-141374928D01*
X79389969Y-141237890D01*
X80132093Y-141237890D01*
X80135876Y-141246666D01*
X80987188Y-142097978D01*
X81001132Y-142105592D01*
X81002965Y-142105461D01*
X81009580Y-142101210D01*
X81861080Y-141249710D01*
X81867534Y-141237890D01*
X86632093Y-141237890D01*
X86635876Y-141246666D01*
X87487188Y-142097978D01*
X87501132Y-142105592D01*
X87502965Y-142105461D01*
X87509580Y-142101210D01*
X88361080Y-141249710D01*
X88367840Y-141237330D01*
X88362113Y-141229680D01*
X88190958Y-141124795D01*
X88182163Y-141120313D01*
X87972012Y-141033266D01*
X87962627Y-141030217D01*
X87741446Y-140977115D01*
X87731699Y-140975572D01*
X87504930Y-140957725D01*
X87495070Y-140957725D01*
X87268301Y-140975572D01*
X87258554Y-140977115D01*
X87037373Y-141030217D01*
X87027988Y-141033266D01*
X86817837Y-141120313D01*
X86809042Y-141124795D01*
X86641555Y-141227432D01*
X86632093Y-141237890D01*
X81867534Y-141237890D01*
X81867840Y-141237330D01*
X81862113Y-141229680D01*
X81690958Y-141124795D01*
X81682163Y-141120313D01*
X81472012Y-141033266D01*
X81462627Y-141030217D01*
X81241446Y-140977115D01*
X81231699Y-140975572D01*
X81004930Y-140957725D01*
X80995070Y-140957725D01*
X80768301Y-140975572D01*
X80758554Y-140977115D01*
X80537373Y-141030217D01*
X80527988Y-141033266D01*
X80317837Y-141120313D01*
X80309042Y-141124795D01*
X80141555Y-141227432D01*
X80132093Y-141237890D01*
X79389969Y-141237890D01*
X79336956Y-141074734D01*
X79333590Y-141067581D01*
X79204250Y-140792717D01*
X79204246Y-140792710D01*
X79202562Y-140789131D01*
X79033432Y-140522625D01*
X78832233Y-140279418D01*
X78815699Y-140263891D01*
X78701836Y-140156967D01*
X78602140Y-140063346D01*
X78574639Y-140043365D01*
X78408591Y-139922725D01*
X78346779Y-139877816D01*
X78335673Y-139871710D01*
X78073648Y-139727660D01*
X78073647Y-139727659D01*
X78070179Y-139725753D01*
X78066510Y-139724300D01*
X78066505Y-139724298D01*
X77780372Y-139611010D01*
X77780371Y-139611010D01*
X77776702Y-139609557D01*
X77470975Y-139531060D01*
X77157821Y-139491500D01*
X76842179Y-139491500D01*
X76529025Y-139531060D01*
X76223298Y-139609557D01*
X76219629Y-139611010D01*
X76219628Y-139611010D01*
X75933495Y-139724298D01*
X75933490Y-139724300D01*
X75929821Y-139725753D01*
X75926353Y-139727659D01*
X75926352Y-139727660D01*
X75664328Y-139871710D01*
X75653221Y-139877816D01*
X75591409Y-139922725D01*
X75425362Y-140043365D01*
X75397860Y-140063346D01*
X75298164Y-140156967D01*
X75184302Y-140263891D01*
X75167767Y-140279418D01*
X74966568Y-140522625D01*
X74797438Y-140789131D01*
X74795754Y-140792710D01*
X74795750Y-140792717D01*
X74666410Y-141067581D01*
X74663044Y-141074734D01*
X74565505Y-141374928D01*
X74506359Y-141684980D01*
X74486540Y-142000000D01*
X73503500Y-142000000D01*
X73503500Y-141459600D01*
X73499736Y-141423324D01*
X73493238Y-141360692D01*
X73493237Y-141360688D01*
X73492526Y-141353834D01*
X73487339Y-141338285D01*
X73438868Y-141193002D01*
X73436550Y-141186054D01*
X73343478Y-141035652D01*
X73218303Y-140910695D01*
X73201357Y-140900249D01*
X73073968Y-140821725D01*
X73073966Y-140821724D01*
X73067738Y-140817885D01*
X72980378Y-140788909D01*
X72906389Y-140764368D01*
X72906387Y-140764368D01*
X72899861Y-140762203D01*
X72893025Y-140761503D01*
X72893022Y-140761502D01*
X72849969Y-140757091D01*
X72795400Y-140751500D01*
X71444600Y-140751500D01*
X71441354Y-140751837D01*
X71441350Y-140751837D01*
X71345692Y-140761762D01*
X71345688Y-140761763D01*
X71338834Y-140762474D01*
X71332298Y-140764655D01*
X71332296Y-140764655D01*
X71207049Y-140806441D01*
X71171054Y-140818450D01*
X71020652Y-140911522D01*
X70895695Y-141036697D01*
X70891855Y-141042927D01*
X70891854Y-141042928D01*
X70833540Y-141137530D01*
X70802885Y-141187262D01*
X70801205Y-141186226D01*
X70760879Y-141232031D01*
X70693595Y-141251500D01*
X69511009Y-141251500D01*
X69442888Y-141231498D01*
X69396395Y-141177842D01*
X69394097Y-141172306D01*
X69393768Y-141171704D01*
X69390615Y-141163295D01*
X69303261Y-141046739D01*
X69186705Y-140959385D01*
X69050316Y-140908255D01*
X68988134Y-140901500D01*
X68191866Y-140901500D01*
X68129684Y-140908255D01*
X67993295Y-140959385D01*
X67876739Y-141046739D01*
X67835917Y-141101207D01*
X67779060Y-141143722D01*
X67708241Y-141148748D01*
X67645997Y-141114737D01*
X67264855Y-140733595D01*
X67230829Y-140671283D01*
X67235894Y-140600468D01*
X67278441Y-140543632D01*
X67344961Y-140518821D01*
X67353950Y-140518500D01*
X68038134Y-140518500D01*
X68100316Y-140511745D01*
X68236705Y-140460615D01*
X68353261Y-140373261D01*
X68440615Y-140256705D01*
X68472018Y-140172938D01*
X68514660Y-140116174D01*
X68581221Y-140091474D01*
X68650570Y-140106681D01*
X68700688Y-140156967D01*
X68707982Y-140172938D01*
X68739385Y-140256705D01*
X68826739Y-140373261D01*
X68943295Y-140460615D01*
X69079684Y-140511745D01*
X69141866Y-140518500D01*
X69938134Y-140518500D01*
X70000316Y-140511745D01*
X70095564Y-140476038D01*
X70139794Y-140468020D01*
X74188424Y-140468020D01*
X74200280Y-140468579D01*
X74200283Y-140468579D01*
X74208017Y-140470308D01*
X74278849Y-140468082D01*
X74282807Y-140468020D01*
X74311912Y-140468020D01*
X74316312Y-140467464D01*
X74328144Y-140466532D01*
X74374311Y-140465082D01*
X74394901Y-140459100D01*
X74414262Y-140455090D01*
X74421250Y-140454208D01*
X74427684Y-140453395D01*
X74427685Y-140453395D01*
X74435544Y-140452402D01*
X74442909Y-140449486D01*
X74442913Y-140449485D01*
X74478501Y-140435394D01*
X74489711Y-140431555D01*
X74534080Y-140418665D01*
X74552545Y-140407745D01*
X74570285Y-140399054D01*
X74590236Y-140391155D01*
X74627609Y-140364002D01*
X74637528Y-140357487D01*
X74670457Y-140338013D01*
X74670461Y-140338010D01*
X74677287Y-140333973D01*
X74692451Y-140318809D01*
X74707485Y-140305968D01*
X74718423Y-140298021D01*
X74724837Y-140293361D01*
X74754283Y-140257767D01*
X74762272Y-140248988D01*
X75376310Y-139634950D01*
X76006951Y-139004308D01*
X76069263Y-138970283D01*
X76116191Y-138969024D01*
X76219536Y-138985762D01*
X76259821Y-138992287D01*
X76326782Y-138993514D01*
X76398539Y-138994830D01*
X76398541Y-138994830D01*
X76403020Y-138994912D01*
X76407465Y-138994359D01*
X76411944Y-138994122D01*
X76411951Y-138994249D01*
X76420339Y-138993729D01*
X76850000Y-138993729D01*
X76885276Y-138991206D01*
X76916373Y-138988982D01*
X76916374Y-138988982D01*
X76923111Y-138988500D01*
X76959440Y-138977833D01*
X77012868Y-138974012D01*
X77150000Y-138993729D01*
X77637322Y-138993729D01*
X77639630Y-138993750D01*
X77703020Y-138994912D01*
X77732772Y-138991206D01*
X77843128Y-138977460D01*
X77843132Y-138977459D01*
X77847565Y-138976907D01*
X77985745Y-138939234D01*
X77989862Y-138937452D01*
X77989866Y-138937451D01*
X78115296Y-138883173D01*
X78115301Y-138883171D01*
X78119420Y-138881388D01*
X78241472Y-138806448D01*
X78244922Y-138803584D01*
X78350093Y-138716270D01*
X78350095Y-138716268D01*
X78353540Y-138713408D01*
X78392882Y-138669944D01*
X78453426Y-138632863D01*
X78486297Y-138628500D01*
X79563754Y-138628500D01*
X79631875Y-138648502D01*
X79671186Y-138688665D01*
X79773235Y-138855193D01*
X79773242Y-138855202D01*
X79775824Y-138859416D01*
X79930031Y-139039969D01*
X80110584Y-139194176D01*
X80114792Y-139196755D01*
X80114798Y-139196759D01*
X80294560Y-139306917D01*
X80313037Y-139318240D01*
X80317607Y-139320133D01*
X80317611Y-139320135D01*
X80491936Y-139392342D01*
X80532406Y-139409105D01*
X80612609Y-139428360D01*
X80758476Y-139463380D01*
X80758482Y-139463381D01*
X80763289Y-139464535D01*
X80989204Y-139482315D01*
X80994359Y-139482721D01*
X81000000Y-139483165D01*
X81005642Y-139482721D01*
X81010796Y-139482315D01*
X81236711Y-139464535D01*
X81241518Y-139463381D01*
X81241524Y-139463380D01*
X81387391Y-139428360D01*
X81467594Y-139409105D01*
X81508064Y-139392342D01*
X81682389Y-139320135D01*
X81682393Y-139320133D01*
X81686963Y-139318240D01*
X81705440Y-139306917D01*
X81885202Y-139196759D01*
X81885208Y-139196755D01*
X81889416Y-139194176D01*
X82069969Y-139039969D01*
X82224176Y-138859416D01*
X82226758Y-138855202D01*
X82226765Y-138855193D01*
X82328814Y-138688665D01*
X82381461Y-138641034D01*
X82436246Y-138628500D01*
X86063754Y-138628500D01*
X86131875Y-138648502D01*
X86171186Y-138688665D01*
X86273235Y-138855193D01*
X86273242Y-138855202D01*
X86275824Y-138859416D01*
X86430031Y-139039969D01*
X86610584Y-139194176D01*
X86614792Y-139196755D01*
X86614798Y-139196759D01*
X86794560Y-139306917D01*
X86813037Y-139318240D01*
X86817607Y-139320133D01*
X86817611Y-139320135D01*
X86991936Y-139392342D01*
X87032406Y-139409105D01*
X87112609Y-139428360D01*
X87258476Y-139463380D01*
X87258482Y-139463381D01*
X87263289Y-139464535D01*
X87489204Y-139482315D01*
X87494359Y-139482721D01*
X87500000Y-139483165D01*
X87505642Y-139482721D01*
X87510796Y-139482315D01*
X87736711Y-139464535D01*
X87741518Y-139463381D01*
X87741524Y-139463380D01*
X87887391Y-139428360D01*
X87967594Y-139409105D01*
X88008064Y-139392342D01*
X88182389Y-139320135D01*
X88182393Y-139320133D01*
X88186963Y-139318240D01*
X88205440Y-139306917D01*
X88385202Y-139196759D01*
X88385208Y-139196755D01*
X88389416Y-139194176D01*
X88569969Y-139039969D01*
X88724176Y-138859416D01*
X88726755Y-138855208D01*
X88726759Y-138855202D01*
X88845654Y-138661183D01*
X88848240Y-138656963D01*
X88858223Y-138632863D01*
X88937211Y-138442167D01*
X88937212Y-138442165D01*
X88939105Y-138437594D01*
X88966344Y-138324134D01*
X88993380Y-138211524D01*
X88993381Y-138211518D01*
X88994535Y-138206711D01*
X89013165Y-137970000D01*
X88994535Y-137733289D01*
X88985251Y-137694616D01*
X88947785Y-137538560D01*
X88951332Y-137467652D01*
X88981209Y-137420051D01*
X89257116Y-137144144D01*
X89265896Y-137136154D01*
X89265898Y-137136152D01*
X89272591Y-137131905D01*
X89293233Y-137109924D01*
X89321115Y-137080232D01*
X89323870Y-137077390D01*
X89344438Y-137056822D01*
X89347158Y-137053315D01*
X89354864Y-137044293D01*
X89381055Y-137016402D01*
X89386483Y-137010622D01*
X89392711Y-136999293D01*
X89396814Y-136991831D01*
X89407668Y-136975307D01*
X89415956Y-136964621D01*
X89420815Y-136958357D01*
X89423963Y-136951083D01*
X89439165Y-136915954D01*
X89444387Y-136905294D01*
X89462816Y-136871773D01*
X89462817Y-136871771D01*
X89466635Y-136864826D01*
X89471970Y-136844048D01*
X89478369Y-136825358D01*
X89486891Y-136805665D01*
X89494117Y-136760041D01*
X89496524Y-136748418D01*
X89506039Y-136711357D01*
X89508011Y-136703677D01*
X89508011Y-136682230D01*
X89509562Y-136662520D01*
X89511677Y-136649166D01*
X89512917Y-136641337D01*
X89508570Y-136595348D01*
X89508011Y-136583493D01*
X89508011Y-131734183D01*
X89794389Y-131734183D01*
X89795912Y-131742607D01*
X89808292Y-131746000D01*
X90857885Y-131746000D01*
X90873124Y-131741525D01*
X90874329Y-131740135D01*
X90876000Y-131732452D01*
X90876000Y-131727885D01*
X91384000Y-131727885D01*
X91388475Y-131743124D01*
X91389865Y-131744329D01*
X91397548Y-131746000D01*
X92448344Y-131746000D01*
X92461875Y-131742027D01*
X92463180Y-131732947D01*
X92421214Y-131565875D01*
X92417894Y-131556124D01*
X92332972Y-131360814D01*
X92328105Y-131351739D01*
X92212426Y-131172926D01*
X92206136Y-131164757D01*
X92062806Y-131007240D01*
X92055273Y-131000215D01*
X91888139Y-130868222D01*
X91879552Y-130862517D01*
X91842116Y-130841851D01*
X91792146Y-130791419D01*
X91777374Y-130721976D01*
X91802490Y-130655571D01*
X91829842Y-130628964D01*
X92005327Y-130503792D01*
X92013200Y-130497139D01*
X92164052Y-130346812D01*
X92170730Y-130338965D01*
X92295003Y-130166020D01*
X92300313Y-130157183D01*
X92394670Y-129966267D01*
X92398469Y-129956672D01*
X92460377Y-129752910D01*
X92462555Y-129742837D01*
X92463986Y-129731962D01*
X92461775Y-129717778D01*
X92448617Y-129714000D01*
X91402115Y-129714000D01*
X91386876Y-129718475D01*
X91385671Y-129719865D01*
X91384000Y-129727548D01*
X91384000Y-131727885D01*
X90876000Y-131727885D01*
X90876000Y-129732115D01*
X90871525Y-129716876D01*
X90870135Y-129715671D01*
X90862452Y-129714000D01*
X89813225Y-129714000D01*
X89799694Y-129717973D01*
X89798257Y-129727966D01*
X89828565Y-129862446D01*
X89831645Y-129872275D01*
X89911770Y-130069603D01*
X89916413Y-130078794D01*
X90027694Y-130260388D01*
X90033777Y-130268699D01*
X90173213Y-130429667D01*
X90180580Y-130436883D01*
X90344434Y-130572916D01*
X90352881Y-130578831D01*
X90422479Y-130619501D01*
X90471203Y-130671140D01*
X90484274Y-130740923D01*
X90457543Y-130806694D01*
X90417087Y-130840053D01*
X90408462Y-130844542D01*
X90399738Y-130850036D01*
X90229433Y-130977905D01*
X90221726Y-130984748D01*
X90074590Y-131138717D01*
X90068104Y-131146727D01*
X89948098Y-131322649D01*
X89943000Y-131331623D01*
X89853338Y-131524783D01*
X89849775Y-131534470D01*
X89794389Y-131734183D01*
X89508011Y-131734183D01*
X89508011Y-126886695D01*
X89767251Y-126886695D01*
X89767548Y-126891848D01*
X89767548Y-126891851D01*
X89777660Y-127067225D01*
X89780110Y-127109715D01*
X89781247Y-127114761D01*
X89781248Y-127114767D01*
X89787068Y-127140590D01*
X89829222Y-127327639D01*
X89881307Y-127455910D01*
X89911273Y-127529707D01*
X89913266Y-127534616D01*
X89933278Y-127567273D01*
X90021662Y-127711502D01*
X90029987Y-127725088D01*
X90176250Y-127893938D01*
X90348126Y-128036632D01*
X90400538Y-128067259D01*
X90421955Y-128079774D01*
X90470679Y-128131412D01*
X90483750Y-128201195D01*
X90457019Y-128266967D01*
X90416562Y-128300327D01*
X90408457Y-128304546D01*
X90399738Y-128310036D01*
X90229433Y-128437905D01*
X90221726Y-128444748D01*
X90074590Y-128598717D01*
X90068104Y-128606727D01*
X89948098Y-128782649D01*
X89943000Y-128791623D01*
X89853338Y-128984783D01*
X89849775Y-128994470D01*
X89794389Y-129194183D01*
X89795912Y-129202607D01*
X89808292Y-129206000D01*
X92448344Y-129206000D01*
X92461875Y-129202027D01*
X92463180Y-129192947D01*
X92421214Y-129025875D01*
X92417894Y-129016124D01*
X92332972Y-128820814D01*
X92328105Y-128811739D01*
X92212426Y-128632926D01*
X92206136Y-128624757D01*
X92062806Y-128467240D01*
X92055273Y-128460215D01*
X91888139Y-128328222D01*
X91879556Y-128322520D01*
X91842602Y-128302120D01*
X91792631Y-128251687D01*
X91777859Y-128182245D01*
X91802975Y-128115839D01*
X91830327Y-128089232D01*
X91879296Y-128054303D01*
X92009860Y-127961173D01*
X92168096Y-127803489D01*
X92182557Y-127783365D01*
X92295435Y-127626277D01*
X92298453Y-127622077D01*
X92303768Y-127611324D01*
X92395136Y-127426453D01*
X92395137Y-127426451D01*
X92397430Y-127421811D01*
X92462370Y-127208069D01*
X92491529Y-126986590D01*
X92492465Y-126948277D01*
X92493074Y-126923365D01*
X92493074Y-126923361D01*
X92493156Y-126920000D01*
X92474852Y-126697361D01*
X92420431Y-126480702D01*
X92331354Y-126275840D01*
X92263760Y-126171356D01*
X92212822Y-126092617D01*
X92212820Y-126092614D01*
X92210014Y-126088277D01*
X92206532Y-126084450D01*
X92062798Y-125926488D01*
X92031746Y-125862642D01*
X92040141Y-125792143D01*
X92085317Y-125737375D01*
X92111761Y-125723706D01*
X92218297Y-125683767D01*
X92226705Y-125680615D01*
X92343261Y-125593261D01*
X92430615Y-125476705D01*
X92481745Y-125340316D01*
X92488500Y-125278134D01*
X92488500Y-123481866D01*
X92481745Y-123419684D01*
X92430615Y-123283295D01*
X92343261Y-123166739D01*
X92226705Y-123079385D01*
X92090316Y-123028255D01*
X92028134Y-123021500D01*
X90231866Y-123021500D01*
X90169684Y-123028255D01*
X90033295Y-123079385D01*
X89916739Y-123166739D01*
X89829385Y-123283295D01*
X89778255Y-123419684D01*
X89771500Y-123481866D01*
X89771500Y-125278134D01*
X89778255Y-125340316D01*
X89829385Y-125476705D01*
X89916739Y-125593261D01*
X90033295Y-125680615D01*
X90041704Y-125683767D01*
X90041705Y-125683768D01*
X90150451Y-125724535D01*
X90207216Y-125767176D01*
X90231916Y-125833738D01*
X90216709Y-125903087D01*
X90197316Y-125929568D01*
X90083194Y-126048990D01*
X90070629Y-126062138D01*
X90067715Y-126066410D01*
X90067714Y-126066411D01*
X90001364Y-126163677D01*
X89944743Y-126246680D01*
X89926793Y-126285350D01*
X89853550Y-126443140D01*
X89850688Y-126449305D01*
X89790989Y-126664570D01*
X89767251Y-126886695D01*
X89508011Y-126886695D01*
X89508011Y-125885204D01*
X89508570Y-125873348D01*
X89510300Y-125865608D01*
X89509955Y-125854616D01*
X89508073Y-125794756D01*
X89508011Y-125790798D01*
X89508011Y-125761713D01*
X89507457Y-125757324D01*
X89506524Y-125745482D01*
X89505322Y-125707239D01*
X89505073Y-125699314D01*
X89499091Y-125678724D01*
X89495081Y-125659361D01*
X89493386Y-125645941D01*
X89493386Y-125645940D01*
X89492393Y-125638081D01*
X89489477Y-125630716D01*
X89489476Y-125630712D01*
X89475385Y-125595124D01*
X89471546Y-125583914D01*
X89458656Y-125539545D01*
X89447736Y-125521080D01*
X89439045Y-125503340D01*
X89431146Y-125483389D01*
X89403993Y-125446016D01*
X89397478Y-125436097D01*
X89378004Y-125403168D01*
X89378001Y-125403164D01*
X89373964Y-125396338D01*
X89358800Y-125381174D01*
X89345959Y-125366140D01*
X89338012Y-125355202D01*
X89333352Y-125348788D01*
X89297758Y-125319342D01*
X89288979Y-125311353D01*
X80008956Y-116031330D01*
X79974930Y-115969018D01*
X79979995Y-115898203D01*
X80022542Y-115841367D01*
X80089062Y-115816556D01*
X80130665Y-115820529D01*
X80136598Y-115822119D01*
X80136600Y-115822119D01*
X80141913Y-115823543D01*
X80370000Y-115843498D01*
X80598087Y-115823543D01*
X80603400Y-115822119D01*
X80603402Y-115822119D01*
X80813933Y-115765707D01*
X80813935Y-115765706D01*
X80819243Y-115764284D01*
X80824225Y-115761961D01*
X81021762Y-115669849D01*
X81021767Y-115669846D01*
X81026749Y-115667523D01*
X81161422Y-115573224D01*
X81209789Y-115539357D01*
X81209792Y-115539355D01*
X81214300Y-115536198D01*
X81376198Y-115374300D01*
X81379830Y-115369114D01*
X81504366Y-115191257D01*
X81507523Y-115186749D01*
X81509846Y-115181767D01*
X81509849Y-115181762D01*
X81601961Y-114984225D01*
X81601961Y-114984224D01*
X81604284Y-114979243D01*
X81621422Y-114915286D01*
X81662119Y-114763402D01*
X81662119Y-114763400D01*
X81663543Y-114758087D01*
X81683498Y-114530000D01*
X81663543Y-114301913D01*
X81659532Y-114286944D01*
X81605707Y-114086067D01*
X81605706Y-114086065D01*
X81604284Y-114080757D01*
X81542286Y-113947800D01*
X81509849Y-113878238D01*
X81509846Y-113878233D01*
X81507523Y-113873251D01*
X81421811Y-113750842D01*
X81379357Y-113690211D01*
X81379355Y-113690208D01*
X81376198Y-113685700D01*
X81214300Y-113523802D01*
X81209792Y-113520645D01*
X81209789Y-113520643D01*
X81075784Y-113426812D01*
X81026749Y-113392477D01*
X81021767Y-113390154D01*
X81021762Y-113390151D01*
X80824225Y-113298039D01*
X80824224Y-113298039D01*
X80819243Y-113295716D01*
X80813935Y-113294294D01*
X80813933Y-113294293D01*
X80603402Y-113237881D01*
X80603400Y-113237881D01*
X80598087Y-113236457D01*
X80370000Y-113216502D01*
X80141913Y-113236457D01*
X80136600Y-113237881D01*
X80136598Y-113237881D01*
X79926067Y-113294293D01*
X79926065Y-113294294D01*
X79920757Y-113295716D01*
X79915776Y-113298039D01*
X79915775Y-113298039D01*
X79718238Y-113390151D01*
X79718233Y-113390154D01*
X79713251Y-113392477D01*
X79664216Y-113426812D01*
X79530211Y-113520643D01*
X79530208Y-113520645D01*
X79525700Y-113523802D01*
X79363802Y-113685700D01*
X79360645Y-113690208D01*
X79360643Y-113690211D01*
X79318189Y-113750842D01*
X79232477Y-113873251D01*
X79230154Y-113878233D01*
X79230151Y-113878238D01*
X79197714Y-113947800D01*
X79135716Y-114080757D01*
X79134294Y-114086065D01*
X79134293Y-114086067D01*
X79080468Y-114286944D01*
X79076457Y-114301913D01*
X79056502Y-114530000D01*
X79076457Y-114758087D01*
X79077881Y-114763400D01*
X79077881Y-114763402D01*
X79079471Y-114769335D01*
X79077783Y-114840311D01*
X79037990Y-114899108D01*
X78972727Y-114927058D01*
X78902713Y-114915286D01*
X78868670Y-114891044D01*
X77515782Y-113538156D01*
X77481756Y-113475844D01*
X77486821Y-113405029D01*
X77502554Y-113375535D01*
X77508319Y-113367513D01*
X77598453Y-113242077D01*
X77601468Y-113235978D01*
X77695136Y-113046453D01*
X77695137Y-113046451D01*
X77697430Y-113041811D01*
X77746643Y-112879834D01*
X77760865Y-112833023D01*
X77760865Y-112833021D01*
X77762370Y-112828069D01*
X77791529Y-112606590D01*
X77793156Y-112540000D01*
X77774852Y-112317361D01*
X77720431Y-112100702D01*
X77631354Y-111895840D01*
X77510014Y-111708277D01*
X77490405Y-111686727D01*
X77362798Y-111546488D01*
X77331746Y-111482642D01*
X77340141Y-111412143D01*
X77385317Y-111357375D01*
X77411761Y-111343706D01*
X77518297Y-111303767D01*
X77526705Y-111300615D01*
X77643261Y-111213261D01*
X77730615Y-111096705D01*
X77781745Y-110960316D01*
X77788500Y-110898134D01*
X77788500Y-110884500D01*
X77808502Y-110816379D01*
X77862158Y-110769886D01*
X77914500Y-110758500D01*
X83695500Y-110758500D01*
X83763621Y-110778502D01*
X83810114Y-110832158D01*
X83821500Y-110884500D01*
X83821500Y-114714523D01*
X83801498Y-114782644D01*
X83767771Y-114817735D01*
X83760219Y-114823023D01*
X83603023Y-114980219D01*
X83599866Y-114984727D01*
X83599864Y-114984730D01*
X83486529Y-115146590D01*
X83475512Y-115162324D01*
X83473189Y-115167306D01*
X83473186Y-115167311D01*
X83413919Y-115294410D01*
X83381560Y-115363804D01*
X83380138Y-115369112D01*
X83380137Y-115369114D01*
X83377703Y-115378197D01*
X83324022Y-115578537D01*
X83304647Y-115800000D01*
X83324022Y-116021463D01*
X83381560Y-116236196D01*
X83383882Y-116241177D01*
X83383883Y-116241178D01*
X83473186Y-116432689D01*
X83473189Y-116432694D01*
X83475512Y-116437676D01*
X83478668Y-116442183D01*
X83478669Y-116442185D01*
X83589617Y-116600635D01*
X83603023Y-116619781D01*
X83760219Y-116776977D01*
X83764727Y-116780134D01*
X83764730Y-116780136D01*
X83776357Y-116788277D01*
X83942323Y-116904488D01*
X83947305Y-116906811D01*
X83947310Y-116906814D01*
X84088323Y-116972569D01*
X84143804Y-116998440D01*
X84149112Y-116999862D01*
X84149114Y-116999863D01*
X84196272Y-117012499D01*
X84358537Y-117055978D01*
X84580000Y-117075353D01*
X84801463Y-117055978D01*
X84963728Y-117012499D01*
X85010886Y-116999863D01*
X85010888Y-116999862D01*
X85016196Y-116998440D01*
X85071677Y-116972569D01*
X85212690Y-116906814D01*
X85212695Y-116906811D01*
X85217677Y-116904488D01*
X85383643Y-116788277D01*
X85395270Y-116780136D01*
X85395273Y-116780134D01*
X85399781Y-116776977D01*
X85556977Y-116619781D01*
X85570384Y-116600635D01*
X85681331Y-116442185D01*
X85681332Y-116442183D01*
X85684488Y-116437676D01*
X85686811Y-116432694D01*
X85686814Y-116432689D01*
X85735805Y-116327627D01*
X85782723Y-116274342D01*
X85851000Y-116254881D01*
X85918960Y-116275423D01*
X85964195Y-116327627D01*
X86013186Y-116432689D01*
X86013189Y-116432694D01*
X86015512Y-116437676D01*
X86018668Y-116442183D01*
X86018669Y-116442185D01*
X86129617Y-116600635D01*
X86143023Y-116619781D01*
X86300219Y-116776977D01*
X86304727Y-116780134D01*
X86304730Y-116780136D01*
X86316357Y-116788277D01*
X86482323Y-116904488D01*
X86487305Y-116906811D01*
X86487310Y-116906814D01*
X86628323Y-116972569D01*
X86683804Y-116998440D01*
X86689112Y-116999862D01*
X86689114Y-116999863D01*
X86736272Y-117012499D01*
X86898537Y-117055978D01*
X87120000Y-117075353D01*
X87341463Y-117055978D01*
X87503728Y-117012499D01*
X87550886Y-116999863D01*
X87550888Y-116999862D01*
X87556196Y-116998440D01*
X87611677Y-116972569D01*
X87752690Y-116906814D01*
X87752695Y-116906811D01*
X87757677Y-116904488D01*
X87822959Y-116858777D01*
X88985777Y-116858777D01*
X88995074Y-116870793D01*
X89038069Y-116900898D01*
X89047555Y-116906376D01*
X89238993Y-116995645D01*
X89249285Y-116999391D01*
X89453309Y-117054059D01*
X89464104Y-117055962D01*
X89674525Y-117074372D01*
X89685475Y-117074372D01*
X89895896Y-117055962D01*
X89906691Y-117054059D01*
X90110715Y-116999391D01*
X90121007Y-116995645D01*
X90312445Y-116906376D01*
X90321931Y-116900898D01*
X90365764Y-116870207D01*
X90374139Y-116859729D01*
X90367071Y-116846281D01*
X89692812Y-116172022D01*
X89678868Y-116164408D01*
X89677035Y-116164539D01*
X89670420Y-116168790D01*
X88992207Y-116847003D01*
X88985777Y-116858777D01*
X87822959Y-116858777D01*
X87923643Y-116788277D01*
X87935270Y-116780136D01*
X87935273Y-116780134D01*
X87939781Y-116776977D01*
X88096977Y-116619781D01*
X88110384Y-116600635D01*
X88221331Y-116442185D01*
X88221332Y-116442183D01*
X88224488Y-116437676D01*
X88226811Y-116432694D01*
X88226814Y-116432689D01*
X88286081Y-116305590D01*
X88332998Y-116252305D01*
X88401276Y-116232844D01*
X88469236Y-116253386D01*
X88514471Y-116305590D01*
X88573623Y-116432441D01*
X88579103Y-116441932D01*
X88609794Y-116485765D01*
X88620271Y-116494140D01*
X88633718Y-116487072D01*
X89307978Y-115812812D01*
X89314356Y-115801132D01*
X90044408Y-115801132D01*
X90044539Y-115802965D01*
X90048790Y-115809580D01*
X90727003Y-116487793D01*
X90738777Y-116494223D01*
X90750793Y-116484926D01*
X90780897Y-116441932D01*
X90786377Y-116432441D01*
X90875645Y-116241007D01*
X90879391Y-116230715D01*
X90934059Y-116026691D01*
X90935962Y-116015896D01*
X90954372Y-115805475D01*
X90954372Y-115794525D01*
X90935962Y-115584104D01*
X90934059Y-115573309D01*
X90879391Y-115369285D01*
X90875645Y-115358993D01*
X90786377Y-115167559D01*
X90780897Y-115158068D01*
X90750206Y-115114235D01*
X90739729Y-115105860D01*
X90726282Y-115112928D01*
X90052022Y-115787188D01*
X90044408Y-115801132D01*
X89314356Y-115801132D01*
X89315592Y-115798868D01*
X89315461Y-115797035D01*
X89311210Y-115790420D01*
X88632997Y-115112207D01*
X88621223Y-115105777D01*
X88609207Y-115115074D01*
X88579103Y-115158068D01*
X88573623Y-115167559D01*
X88514471Y-115294410D01*
X88467553Y-115347695D01*
X88399276Y-115367156D01*
X88331316Y-115346614D01*
X88286081Y-115294410D01*
X88226814Y-115167311D01*
X88226811Y-115167306D01*
X88224488Y-115162324D01*
X88213471Y-115146590D01*
X88100136Y-114984730D01*
X88100134Y-114984727D01*
X88096977Y-114980219D01*
X87939781Y-114823023D01*
X87935273Y-114819866D01*
X87935270Y-114819864D01*
X87847043Y-114758087D01*
X87821599Y-114740271D01*
X88985860Y-114740271D01*
X88992928Y-114753718D01*
X89667188Y-115427978D01*
X89681132Y-115435592D01*
X89682965Y-115435461D01*
X89689580Y-115431210D01*
X90367793Y-114752997D01*
X90374223Y-114741223D01*
X90364926Y-114729207D01*
X90321931Y-114699102D01*
X90312445Y-114693624D01*
X90121007Y-114604355D01*
X90110715Y-114600609D01*
X89906691Y-114545941D01*
X89895896Y-114544038D01*
X89735446Y-114530000D01*
X92556502Y-114530000D01*
X92576457Y-114758087D01*
X92577881Y-114763400D01*
X92577881Y-114763402D01*
X92618579Y-114915286D01*
X92635716Y-114979243D01*
X92638039Y-114984224D01*
X92638039Y-114984225D01*
X92730151Y-115181762D01*
X92730154Y-115181767D01*
X92732477Y-115186749D01*
X92735634Y-115191257D01*
X92860171Y-115369114D01*
X92863802Y-115374300D01*
X93025700Y-115536198D01*
X93030208Y-115539355D01*
X93030211Y-115539357D01*
X93078578Y-115573224D01*
X93213251Y-115667523D01*
X93218233Y-115669846D01*
X93218238Y-115669849D01*
X93415775Y-115761961D01*
X93420757Y-115764284D01*
X93426065Y-115765706D01*
X93426067Y-115765707D01*
X93636598Y-115822119D01*
X93636600Y-115822119D01*
X93641913Y-115823543D01*
X93870000Y-115843498D01*
X94098087Y-115823543D01*
X94103400Y-115822119D01*
X94103402Y-115822119D01*
X94313933Y-115765707D01*
X94313935Y-115765706D01*
X94319243Y-115764284D01*
X94324225Y-115761961D01*
X94521762Y-115669849D01*
X94521767Y-115669846D01*
X94526749Y-115667523D01*
X94661422Y-115573224D01*
X94709789Y-115539357D01*
X94709792Y-115539355D01*
X94714300Y-115536198D01*
X94876198Y-115374300D01*
X94879830Y-115369114D01*
X95004366Y-115191257D01*
X95007523Y-115186749D01*
X95009846Y-115181767D01*
X95009849Y-115181762D01*
X95101961Y-114984225D01*
X95101961Y-114984224D01*
X95104284Y-114979243D01*
X95121422Y-114915286D01*
X95162119Y-114763402D01*
X95162119Y-114763400D01*
X95163543Y-114758087D01*
X95183498Y-114530000D01*
X95163543Y-114301913D01*
X95159532Y-114286944D01*
X95105707Y-114086067D01*
X95105706Y-114086065D01*
X95104284Y-114080757D01*
X95042286Y-113947800D01*
X95009849Y-113878238D01*
X95009846Y-113878233D01*
X95007523Y-113873251D01*
X94921811Y-113750842D01*
X94879357Y-113690211D01*
X94879355Y-113690208D01*
X94876198Y-113685700D01*
X94714300Y-113523802D01*
X94709792Y-113520645D01*
X94709789Y-113520643D01*
X94575784Y-113426812D01*
X94526749Y-113392477D01*
X94521767Y-113390154D01*
X94521762Y-113390151D01*
X94324225Y-113298039D01*
X94324224Y-113298039D01*
X94319243Y-113295716D01*
X94313935Y-113294294D01*
X94313933Y-113294293D01*
X94103402Y-113237881D01*
X94103400Y-113237881D01*
X94098087Y-113236457D01*
X93870000Y-113216502D01*
X93641913Y-113236457D01*
X93636600Y-113237881D01*
X93636598Y-113237881D01*
X93426067Y-113294293D01*
X93426065Y-113294294D01*
X93420757Y-113295716D01*
X93415776Y-113298039D01*
X93415775Y-113298039D01*
X93218238Y-113390151D01*
X93218233Y-113390154D01*
X93213251Y-113392477D01*
X93164216Y-113426812D01*
X93030211Y-113520643D01*
X93030208Y-113520645D01*
X93025700Y-113523802D01*
X92863802Y-113685700D01*
X92860645Y-113690208D01*
X92860643Y-113690211D01*
X92818189Y-113750842D01*
X92732477Y-113873251D01*
X92730154Y-113878233D01*
X92730151Y-113878238D01*
X92697714Y-113947800D01*
X92635716Y-114080757D01*
X92634294Y-114086065D01*
X92634293Y-114086067D01*
X92580468Y-114286944D01*
X92576457Y-114301913D01*
X92556502Y-114530000D01*
X89735446Y-114530000D01*
X89685475Y-114525628D01*
X89674525Y-114525628D01*
X89464104Y-114544038D01*
X89453309Y-114545941D01*
X89249285Y-114600609D01*
X89238993Y-114604355D01*
X89047559Y-114693623D01*
X89038068Y-114699103D01*
X88994235Y-114729794D01*
X88985860Y-114740271D01*
X87821599Y-114740271D01*
X87757677Y-114695512D01*
X87752695Y-114693189D01*
X87752690Y-114693186D01*
X87561178Y-114603883D01*
X87561177Y-114603882D01*
X87556196Y-114601560D01*
X87550888Y-114600138D01*
X87550886Y-114600137D01*
X87439115Y-114570188D01*
X87341463Y-114544022D01*
X87120000Y-114524647D01*
X86898537Y-114544022D01*
X86800885Y-114570188D01*
X86689114Y-114600137D01*
X86689112Y-114600138D01*
X86683804Y-114601560D01*
X86678823Y-114603882D01*
X86678822Y-114603883D01*
X86487311Y-114693186D01*
X86487306Y-114693189D01*
X86482324Y-114695512D01*
X86477817Y-114698668D01*
X86477815Y-114698669D01*
X86304730Y-114819864D01*
X86304727Y-114819866D01*
X86300219Y-114823023D01*
X86143023Y-114980219D01*
X86139866Y-114984727D01*
X86139864Y-114984730D01*
X86026529Y-115146590D01*
X86015512Y-115162324D01*
X86013189Y-115167306D01*
X86013186Y-115167311D01*
X85964195Y-115272373D01*
X85917277Y-115325658D01*
X85849000Y-115345119D01*
X85781040Y-115324577D01*
X85735805Y-115272373D01*
X85686814Y-115167311D01*
X85686811Y-115167306D01*
X85684488Y-115162324D01*
X85673471Y-115146590D01*
X85560136Y-114984730D01*
X85560134Y-114984727D01*
X85556977Y-114980219D01*
X85399781Y-114823023D01*
X85394876Y-114819588D01*
X85392229Y-114817735D01*
X85391203Y-114816452D01*
X85391057Y-114816329D01*
X85391082Y-114816300D01*
X85347901Y-114762278D01*
X85338500Y-114714522D01*
X85338500Y-110686371D01*
X85358502Y-110618250D01*
X85375405Y-110597276D01*
X86892086Y-109080595D01*
X86954398Y-109046569D01*
X86992162Y-109044169D01*
X87114524Y-109054874D01*
X87114525Y-109054874D01*
X87120000Y-109055353D01*
X87341463Y-109035978D01*
X87498898Y-108993793D01*
X87550886Y-108979863D01*
X87550888Y-108979862D01*
X87556196Y-108978440D01*
X87562190Y-108975645D01*
X87752690Y-108886814D01*
X87752695Y-108886811D01*
X87757677Y-108884488D01*
X87822959Y-108838777D01*
X88965777Y-108838777D01*
X88975074Y-108850793D01*
X89018069Y-108880898D01*
X89027555Y-108886376D01*
X89218993Y-108975645D01*
X89229285Y-108979391D01*
X89433309Y-109034059D01*
X89444104Y-109035962D01*
X89654525Y-109054372D01*
X89665475Y-109054372D01*
X89875896Y-109035962D01*
X89886691Y-109034059D01*
X90090715Y-108979391D01*
X90101007Y-108975645D01*
X90292445Y-108886376D01*
X90301931Y-108880898D01*
X90345764Y-108850207D01*
X90354139Y-108839729D01*
X90347071Y-108826281D01*
X89672812Y-108152022D01*
X89658868Y-108144408D01*
X89657035Y-108144539D01*
X89650420Y-108148790D01*
X88972207Y-108827003D01*
X88965777Y-108838777D01*
X87822959Y-108838777D01*
X87897277Y-108786739D01*
X87935270Y-108760136D01*
X87935273Y-108760134D01*
X87939781Y-108756977D01*
X88096977Y-108599781D01*
X88184894Y-108474223D01*
X88221331Y-108422185D01*
X88221332Y-108422183D01*
X88224488Y-108417676D01*
X88226811Y-108412694D01*
X88226814Y-108412689D01*
X88276081Y-108307035D01*
X88322999Y-108253750D01*
X88391276Y-108234289D01*
X88459236Y-108254831D01*
X88504471Y-108307035D01*
X88553623Y-108412441D01*
X88559103Y-108421932D01*
X88589794Y-108465765D01*
X88600271Y-108474140D01*
X88613718Y-108467072D01*
X89287978Y-107792812D01*
X89294356Y-107781132D01*
X90024408Y-107781132D01*
X90024539Y-107782965D01*
X90028790Y-107789580D01*
X90707003Y-108467793D01*
X90718777Y-108474223D01*
X90730793Y-108464926D01*
X90760897Y-108421932D01*
X90766377Y-108412441D01*
X90855645Y-108221007D01*
X90859391Y-108210715D01*
X90914059Y-108006691D01*
X90915962Y-107995896D01*
X90934372Y-107785475D01*
X90934372Y-107774525D01*
X90915962Y-107564104D01*
X90914059Y-107553309D01*
X90859391Y-107349285D01*
X90855645Y-107338993D01*
X90766377Y-107147559D01*
X90760897Y-107138068D01*
X90730206Y-107094235D01*
X90719729Y-107085860D01*
X90706282Y-107092928D01*
X90032022Y-107767188D01*
X90024408Y-107781132D01*
X89294356Y-107781132D01*
X89295592Y-107778868D01*
X89295461Y-107777035D01*
X89291210Y-107770420D01*
X88612997Y-107092207D01*
X88601223Y-107085777D01*
X88589207Y-107095074D01*
X88559103Y-107138068D01*
X88553623Y-107147559D01*
X88504471Y-107252965D01*
X88457553Y-107306250D01*
X88389276Y-107325711D01*
X88321316Y-107305169D01*
X88276081Y-107252965D01*
X88226814Y-107147311D01*
X88226811Y-107147306D01*
X88224488Y-107142324D01*
X88221331Y-107137815D01*
X88100136Y-106964730D01*
X88100134Y-106964727D01*
X88096977Y-106960219D01*
X87939781Y-106803023D01*
X87935273Y-106799866D01*
X87935270Y-106799864D01*
X87859505Y-106746813D01*
X87821599Y-106720271D01*
X88965860Y-106720271D01*
X88972928Y-106733718D01*
X89647188Y-107407978D01*
X89661132Y-107415592D01*
X89662965Y-107415461D01*
X89669580Y-107411210D01*
X90347793Y-106732997D01*
X90354223Y-106721223D01*
X90344926Y-106709207D01*
X90301931Y-106679102D01*
X90292445Y-106673624D01*
X90101007Y-106584355D01*
X90090715Y-106580609D01*
X89886691Y-106525941D01*
X89875896Y-106524038D01*
X89665475Y-106505628D01*
X89654525Y-106505628D01*
X89444104Y-106524038D01*
X89433309Y-106525941D01*
X89229285Y-106580609D01*
X89218993Y-106584355D01*
X89027559Y-106673623D01*
X89018068Y-106679103D01*
X88974235Y-106709794D01*
X88965860Y-106720271D01*
X87821599Y-106720271D01*
X87757677Y-106675512D01*
X87752695Y-106673189D01*
X87752690Y-106673186D01*
X87561178Y-106583883D01*
X87561177Y-106583882D01*
X87556196Y-106581560D01*
X87550888Y-106580138D01*
X87550886Y-106580137D01*
X87485051Y-106562497D01*
X87341463Y-106524022D01*
X87120000Y-106504647D01*
X86898537Y-106524022D01*
X86754949Y-106562497D01*
X86689114Y-106580137D01*
X86689112Y-106580138D01*
X86683804Y-106581560D01*
X86678823Y-106583882D01*
X86678822Y-106583883D01*
X86487311Y-106673186D01*
X86487306Y-106673189D01*
X86482324Y-106675512D01*
X86477817Y-106678668D01*
X86477815Y-106678669D01*
X86304730Y-106799864D01*
X86304727Y-106799866D01*
X86300219Y-106803023D01*
X86143023Y-106960219D01*
X86139866Y-106964727D01*
X86139864Y-106964730D01*
X86018669Y-107137815D01*
X86015512Y-107142324D01*
X86013189Y-107147306D01*
X86013186Y-107147311D01*
X85964195Y-107252373D01*
X85917277Y-107305658D01*
X85849000Y-107325119D01*
X85781040Y-107304577D01*
X85735805Y-107252373D01*
X85686814Y-107147311D01*
X85686811Y-107147306D01*
X85684488Y-107142324D01*
X85681331Y-107137815D01*
X85560136Y-106964730D01*
X85560134Y-106964727D01*
X85556977Y-106960219D01*
X85399781Y-106803023D01*
X85395273Y-106799866D01*
X85395270Y-106799864D01*
X85319505Y-106746813D01*
X85217677Y-106675512D01*
X85212695Y-106673189D01*
X85212690Y-106673186D01*
X85021178Y-106583883D01*
X85021177Y-106583882D01*
X85016196Y-106581560D01*
X85010888Y-106580138D01*
X85010886Y-106580137D01*
X84945051Y-106562497D01*
X84801463Y-106524022D01*
X84580000Y-106504647D01*
X84358537Y-106524022D01*
X84214949Y-106562497D01*
X84149114Y-106580137D01*
X84149112Y-106580138D01*
X84143804Y-106581560D01*
X84138823Y-106583882D01*
X84138822Y-106583883D01*
X83947311Y-106673186D01*
X83947306Y-106673189D01*
X83942324Y-106675512D01*
X83937817Y-106678668D01*
X83937815Y-106678669D01*
X83764730Y-106799864D01*
X83764727Y-106799866D01*
X83760219Y-106803023D01*
X83603023Y-106960219D01*
X83599866Y-106964727D01*
X83599864Y-106964730D01*
X83478669Y-107137815D01*
X83475512Y-107142324D01*
X83473189Y-107147306D01*
X83473186Y-107147311D01*
X83399852Y-107304577D01*
X83381560Y-107343804D01*
X83380138Y-107349112D01*
X83380137Y-107349114D01*
X83375689Y-107365713D01*
X83324022Y-107558537D01*
X83304647Y-107780000D01*
X83324022Y-108001463D01*
X83381560Y-108216196D01*
X83383882Y-108221177D01*
X83383883Y-108221178D01*
X83473186Y-108412689D01*
X83473189Y-108412694D01*
X83475512Y-108417676D01*
X83478668Y-108422183D01*
X83478669Y-108422185D01*
X83515107Y-108474223D01*
X83603023Y-108599781D01*
X83760219Y-108756977D01*
X83764727Y-108760134D01*
X83764730Y-108760136D01*
X83802723Y-108786739D01*
X83942323Y-108884488D01*
X83947305Y-108886811D01*
X83947310Y-108886814D01*
X84137810Y-108975645D01*
X84143804Y-108978440D01*
X84149112Y-108979862D01*
X84149114Y-108979863D01*
X84201102Y-108993793D01*
X84261725Y-109030745D01*
X84292746Y-109094606D01*
X84284318Y-109165100D01*
X84239115Y-109219847D01*
X84168491Y-109241500D01*
X77914500Y-109241500D01*
X77846379Y-109221498D01*
X77799886Y-109167842D01*
X77788500Y-109115500D01*
X77788500Y-109101866D01*
X77781745Y-109039684D01*
X77730615Y-108903295D01*
X77643261Y-108786739D01*
X77526705Y-108699385D01*
X77390316Y-108648255D01*
X77328134Y-108641500D01*
X75531866Y-108641500D01*
X75469684Y-108648255D01*
X75333295Y-108699385D01*
X75216739Y-108786739D01*
X75129385Y-108903295D01*
X75078255Y-109039684D01*
X75071500Y-109101866D01*
X75071500Y-110898134D01*
X75078255Y-110960316D01*
X75129385Y-111096705D01*
X75216739Y-111213261D01*
X75333295Y-111300615D01*
X75341704Y-111303767D01*
X75341705Y-111303768D01*
X75450451Y-111344535D01*
X75507216Y-111387176D01*
X75531916Y-111453738D01*
X75516709Y-111523087D01*
X75497316Y-111549568D01*
X75370629Y-111682138D01*
X75367715Y-111686410D01*
X75367714Y-111686411D01*
X75355409Y-111704450D01*
X75244743Y-111866680D01*
X75150688Y-112069305D01*
X75090989Y-112284570D01*
X75067251Y-112506695D01*
X75067548Y-112511848D01*
X75067548Y-112511851D01*
X75073011Y-112606590D01*
X75080110Y-112729715D01*
X75081247Y-112734761D01*
X75081248Y-112734767D01*
X75094597Y-112794000D01*
X75129222Y-112947639D01*
X75213266Y-113154616D01*
X75329987Y-113345088D01*
X75346123Y-113363716D01*
X75349412Y-113367513D01*
X75378894Y-113432099D01*
X75368779Y-113502371D01*
X75343269Y-113539105D01*
X74822884Y-114059490D01*
X74814104Y-114067480D01*
X74814102Y-114067482D01*
X74807409Y-114071729D01*
X74801983Y-114077507D01*
X74801982Y-114077508D01*
X74758885Y-114123402D01*
X74756130Y-114126244D01*
X74735562Y-114146812D01*
X74732845Y-114150315D01*
X74725137Y-114159340D01*
X74693517Y-114193012D01*
X74689696Y-114199963D01*
X74689695Y-114199964D01*
X74683186Y-114211803D01*
X74672332Y-114228327D01*
X74664507Y-114238416D01*
X74659185Y-114245277D01*
X74656038Y-114252549D01*
X74656037Y-114252551D01*
X74640835Y-114287680D01*
X74635613Y-114298340D01*
X74613365Y-114338808D01*
X74608030Y-114359586D01*
X74601631Y-114378276D01*
X74593109Y-114397969D01*
X74590986Y-114411375D01*
X74585883Y-114443593D01*
X74583476Y-114455216D01*
X74571989Y-114499957D01*
X74571989Y-114521404D01*
X74570438Y-114541114D01*
X74567083Y-114562297D01*
X74570705Y-114600609D01*
X74571430Y-114608283D01*
X74571989Y-114620141D01*
X74571989Y-115494799D01*
X74571430Y-115506655D01*
X74569701Y-115514392D01*
X74569950Y-115522314D01*
X74571927Y-115585224D01*
X74571989Y-115589182D01*
X74571989Y-115618287D01*
X74572545Y-115622687D01*
X74573477Y-115634519D01*
X74574927Y-115680686D01*
X74577139Y-115688299D01*
X74577139Y-115688300D01*
X74580908Y-115701271D01*
X74584919Y-115720637D01*
X74587607Y-115741919D01*
X74590523Y-115749284D01*
X74590524Y-115749288D01*
X74604615Y-115784876D01*
X74608454Y-115796086D01*
X74621344Y-115840455D01*
X74632264Y-115858920D01*
X74640955Y-115876660D01*
X74648854Y-115896611D01*
X74676005Y-115933981D01*
X74682522Y-115943903D01*
X74701996Y-115976832D01*
X74701999Y-115976836D01*
X74706036Y-115983662D01*
X74721200Y-115998826D01*
X74734040Y-116013859D01*
X74746648Y-116031212D01*
X74782241Y-116060657D01*
X74791021Y-116068647D01*
X75343334Y-116620960D01*
X75377360Y-116683272D01*
X75372295Y-116754087D01*
X75358327Y-116781059D01*
X75248098Y-116942649D01*
X75243000Y-116951623D01*
X75153338Y-117144783D01*
X75149775Y-117154470D01*
X75094389Y-117354183D01*
X75095912Y-117362607D01*
X75108292Y-117366000D01*
X76558000Y-117366000D01*
X76626121Y-117386002D01*
X76672614Y-117439658D01*
X76684000Y-117492000D01*
X76684000Y-117748000D01*
X76663998Y-117816121D01*
X76610342Y-117862614D01*
X76558000Y-117874000D01*
X75113225Y-117874000D01*
X75099694Y-117877973D01*
X75098257Y-117887966D01*
X75128565Y-118022446D01*
X75131645Y-118032275D01*
X75211770Y-118229603D01*
X75216413Y-118238794D01*
X75327694Y-118420388D01*
X75333777Y-118428699D01*
X75473213Y-118589667D01*
X75480580Y-118596883D01*
X75644434Y-118732916D01*
X75652881Y-118738831D01*
X75721969Y-118779203D01*
X75770693Y-118830842D01*
X75783764Y-118900625D01*
X75757033Y-118966396D01*
X75716584Y-118999752D01*
X75703607Y-119006507D01*
X75699474Y-119009610D01*
X75699471Y-119009612D01*
X75529100Y-119137530D01*
X75524965Y-119140635D01*
X75370629Y-119302138D01*
X75244743Y-119486680D01*
X75150688Y-119689305D01*
X75090989Y-119904570D01*
X75067251Y-120126695D01*
X75067548Y-120131848D01*
X75067548Y-120131851D01*
X75072859Y-120223958D01*
X75080110Y-120349715D01*
X75081247Y-120354761D01*
X75081248Y-120354767D01*
X75095634Y-120418601D01*
X75129222Y-120567639D01*
X75213266Y-120774616D01*
X75329987Y-120965088D01*
X75476250Y-121133938D01*
X75648126Y-121276632D01*
X75714771Y-121315576D01*
X75721445Y-121319476D01*
X75770169Y-121371114D01*
X75783240Y-121440897D01*
X75756509Y-121506669D01*
X75716055Y-121540027D01*
X75703607Y-121546507D01*
X75699474Y-121549610D01*
X75699471Y-121549612D01*
X75529100Y-121677530D01*
X75524965Y-121680635D01*
X75506605Y-121699848D01*
X75380502Y-121831807D01*
X75370629Y-121842138D01*
X75244743Y-122026680D01*
X75150688Y-122229305D01*
X75090989Y-122444570D01*
X75067251Y-122666695D01*
X75067548Y-122671848D01*
X75067548Y-122671851D01*
X75079812Y-122884547D01*
X75080110Y-122889715D01*
X75081247Y-122894761D01*
X75081248Y-122894767D01*
X75099601Y-122976201D01*
X75129222Y-123107639D01*
X75213266Y-123314616D01*
X75215965Y-123319020D01*
X75317851Y-123485283D01*
X75329987Y-123505088D01*
X75476250Y-123673938D01*
X75648126Y-123816632D01*
X75718595Y-123857811D01*
X75721445Y-123859476D01*
X75770169Y-123911114D01*
X75783240Y-123980897D01*
X75756509Y-124046669D01*
X75716055Y-124080027D01*
X75703607Y-124086507D01*
X75699474Y-124089610D01*
X75699471Y-124089612D01*
X75529100Y-124217530D01*
X75524965Y-124220635D01*
X75506605Y-124239848D01*
X75380502Y-124371807D01*
X75370629Y-124382138D01*
X75367715Y-124386410D01*
X75367714Y-124386411D01*
X75331935Y-124438861D01*
X75244743Y-124566680D01*
X75230064Y-124598303D01*
X75179892Y-124706391D01*
X75150688Y-124769305D01*
X75090989Y-124984570D01*
X75067251Y-125206695D01*
X75067548Y-125211848D01*
X75067548Y-125211851D01*
X75078579Y-125403168D01*
X75080110Y-125429715D01*
X75081247Y-125434761D01*
X75081248Y-125434767D01*
X75105595Y-125542799D01*
X75101059Y-125613650D01*
X75058937Y-125670802D01*
X74992604Y-125696108D01*
X74982678Y-125696500D01*
X69333009Y-125696500D01*
X69264888Y-125676498D01*
X69218395Y-125622842D01*
X69208291Y-125552568D01*
X69222277Y-125512833D01*
X69221962Y-125512697D01*
X69223904Y-125508209D01*
X69224553Y-125506365D01*
X69229145Y-125498601D01*
X69233565Y-125483389D01*
X69250659Y-125424547D01*
X69275562Y-125338831D01*
X69277839Y-125309908D01*
X69278307Y-125303958D01*
X69278307Y-125303950D01*
X69278500Y-125301502D01*
X69278500Y-124868498D01*
X69277500Y-124855793D01*
X69276067Y-124837579D01*
X69276066Y-124837574D01*
X69275562Y-124831169D01*
X69229145Y-124671399D01*
X69144453Y-124528193D01*
X69141771Y-124525511D01*
X69116498Y-124461139D01*
X69130400Y-124391516D01*
X69140572Y-124375688D01*
X69144453Y-124371807D01*
X69229145Y-124228601D01*
X69231460Y-124220635D01*
X69262294Y-124114499D01*
X69275562Y-124068831D01*
X69276178Y-124061012D01*
X69278307Y-124033958D01*
X69278307Y-124033950D01*
X69278500Y-124031502D01*
X69278500Y-123598498D01*
X69277182Y-123581750D01*
X69276067Y-123567579D01*
X69276066Y-123567574D01*
X69275562Y-123561169D01*
X69246528Y-123461231D01*
X69231357Y-123409012D01*
X69231356Y-123409010D01*
X69229145Y-123401399D01*
X69144453Y-123258193D01*
X69141771Y-123255511D01*
X69116498Y-123191139D01*
X69130400Y-123121516D01*
X69140572Y-123105688D01*
X69144453Y-123101807D01*
X69229145Y-122958601D01*
X69231436Y-122950717D01*
X69250659Y-122884547D01*
X69275562Y-122798831D01*
X69277839Y-122769908D01*
X69278307Y-122763958D01*
X69278307Y-122763950D01*
X69278500Y-122761502D01*
X69278500Y-122328498D01*
X69277427Y-122314860D01*
X69276067Y-122297579D01*
X69276066Y-122297574D01*
X69275562Y-122291169D01*
X69229145Y-122131399D01*
X69144453Y-121988193D01*
X69141771Y-121985511D01*
X69116498Y-121921139D01*
X69130400Y-121851516D01*
X69140572Y-121835688D01*
X69144453Y-121831807D01*
X69229145Y-121688601D01*
X69231460Y-121680635D01*
X69256948Y-121592901D01*
X69275562Y-121528831D01*
X69277307Y-121506669D01*
X69278307Y-121493958D01*
X69278307Y-121493950D01*
X69278500Y-121491502D01*
X69278500Y-121058498D01*
X69277319Y-121043489D01*
X69276067Y-121027579D01*
X69276066Y-121027574D01*
X69275562Y-121021169D01*
X69229145Y-120861399D01*
X69144453Y-120718193D01*
X69141771Y-120715511D01*
X69116498Y-120651139D01*
X69130400Y-120581516D01*
X69140572Y-120565688D01*
X69144453Y-120561807D01*
X69229145Y-120418601D01*
X69275562Y-120258831D01*
X69277839Y-120229908D01*
X69278307Y-120223958D01*
X69278307Y-120223950D01*
X69278500Y-120221502D01*
X69278500Y-119788498D01*
X69277789Y-119779463D01*
X69276067Y-119757579D01*
X69276066Y-119757574D01*
X69275562Y-119751169D01*
X69229145Y-119591399D01*
X69187269Y-119520590D01*
X69148491Y-119455020D01*
X69148489Y-119455017D01*
X69144453Y-119448193D01*
X69026807Y-119330547D01*
X69019983Y-119326511D01*
X69019980Y-119326509D01*
X68890427Y-119249892D01*
X68890428Y-119249892D01*
X68883601Y-119245855D01*
X68875990Y-119243644D01*
X68875988Y-119243643D01*
X68823769Y-119228472D01*
X68723831Y-119199438D01*
X68717426Y-119198934D01*
X68717421Y-119198933D01*
X68688958Y-119196693D01*
X68688950Y-119196693D01*
X68686502Y-119196500D01*
X66903498Y-119196500D01*
X66901050Y-119196693D01*
X66901042Y-119196693D01*
X66872579Y-119198933D01*
X66872574Y-119198934D01*
X66866169Y-119199438D01*
X66766231Y-119228472D01*
X66714012Y-119243643D01*
X66714010Y-119243644D01*
X66706399Y-119245855D01*
X66699572Y-119249892D01*
X66699573Y-119249892D01*
X66570020Y-119326509D01*
X66570017Y-119326511D01*
X66563193Y-119330547D01*
X66445547Y-119448193D01*
X66441511Y-119455017D01*
X66441509Y-119455020D01*
X66402731Y-119520590D01*
X66360855Y-119591399D01*
X66314438Y-119751169D01*
X66313934Y-119757574D01*
X66313933Y-119757579D01*
X66312211Y-119779463D01*
X66311500Y-119788498D01*
X66311500Y-120221502D01*
X66311693Y-120223950D01*
X66311693Y-120223958D01*
X66312162Y-120229908D01*
X66314438Y-120258831D01*
X66360855Y-120418601D01*
X66445547Y-120561807D01*
X66448229Y-120564489D01*
X66473502Y-120628861D01*
X66459600Y-120698484D01*
X66449428Y-120714312D01*
X66445547Y-120718193D01*
X66360855Y-120861399D01*
X66314438Y-121021169D01*
X66313934Y-121027574D01*
X66313933Y-121027579D01*
X66312681Y-121043489D01*
X66311500Y-121058498D01*
X66311500Y-121491502D01*
X66311693Y-121493950D01*
X66311693Y-121493958D01*
X66312694Y-121506669D01*
X66314438Y-121528831D01*
X66333052Y-121592901D01*
X66358541Y-121680635D01*
X66360855Y-121688601D01*
X66445547Y-121831807D01*
X66448229Y-121834489D01*
X66473502Y-121898861D01*
X66459600Y-121968484D01*
X66449425Y-121984315D01*
X66445547Y-121988193D01*
X66441516Y-121995009D01*
X66441513Y-121995013D01*
X66432065Y-122010990D01*
X66397672Y-122048786D01*
X66380643Y-122061159D01*
X66360338Y-122085704D01*
X66351198Y-122096752D01*
X66343208Y-122105533D01*
X65563360Y-122885380D01*
X65554581Y-122893368D01*
X65547889Y-122897615D01*
X65542464Y-122903392D01*
X65499364Y-122949289D01*
X65496609Y-122952131D01*
X65476042Y-122972698D01*
X65473439Y-122976054D01*
X65473325Y-122976201D01*
X65465617Y-122985226D01*
X65433997Y-123018898D01*
X65430176Y-123025849D01*
X65430175Y-123025850D01*
X65423666Y-123037689D01*
X65412812Y-123054213D01*
X65404987Y-123064302D01*
X65399665Y-123071163D01*
X65396518Y-123078435D01*
X65396517Y-123078437D01*
X65381315Y-123113566D01*
X65376093Y-123124226D01*
X65368908Y-123137296D01*
X65353845Y-123164694D01*
X65348510Y-123185472D01*
X65342111Y-123204162D01*
X65333589Y-123223855D01*
X65328994Y-123252866D01*
X65326363Y-123269479D01*
X65323956Y-123281102D01*
X65316767Y-123309103D01*
X65312469Y-123325843D01*
X65312469Y-123347290D01*
X65310918Y-123367000D01*
X65307563Y-123388183D01*
X65308309Y-123396074D01*
X65311910Y-123434169D01*
X65312469Y-123446027D01*
X65312469Y-124466914D01*
X65292467Y-124535035D01*
X65238811Y-124581528D01*
X65168537Y-124591632D01*
X65112410Y-124568851D01*
X65091775Y-124553859D01*
X65085747Y-124551175D01*
X65085745Y-124551174D01*
X64923342Y-124478868D01*
X64923341Y-124478868D01*
X64917311Y-124476183D01*
X64823910Y-124456330D01*
X64736967Y-124437849D01*
X64736962Y-124437849D01*
X64730510Y-124436477D01*
X64539536Y-124436477D01*
X64533582Y-124437743D01*
X64489384Y-124434497D01*
X64465916Y-124428472D01*
X64465913Y-124428472D01*
X64458234Y-124426500D01*
X64436787Y-124426500D01*
X64417077Y-124424949D01*
X64403724Y-124422834D01*
X64403723Y-124422834D01*
X64395894Y-124421594D01*
X64388000Y-124422340D01*
X64381595Y-124422139D01*
X64314136Y-124400008D01*
X64269351Y-124344919D01*
X64261458Y-124274363D01*
X64273000Y-124243146D01*
X64271962Y-124242697D01*
X64275109Y-124235426D01*
X64279145Y-124228601D01*
X64281460Y-124220635D01*
X64312294Y-124114499D01*
X64325562Y-124068831D01*
X64326178Y-124061012D01*
X64328307Y-124033958D01*
X64328307Y-124033950D01*
X64328500Y-124031502D01*
X64328500Y-123598498D01*
X64327182Y-123581750D01*
X64326067Y-123567579D01*
X64326066Y-123567574D01*
X64325562Y-123561169D01*
X64296528Y-123461231D01*
X64281357Y-123409012D01*
X64281356Y-123409010D01*
X64279145Y-123401399D01*
X64194453Y-123258193D01*
X64191771Y-123255511D01*
X64166498Y-123191139D01*
X64180400Y-123121516D01*
X64190572Y-123105688D01*
X64194453Y-123101807D01*
X64279145Y-122958601D01*
X64281436Y-122950717D01*
X64300659Y-122884547D01*
X64325562Y-122798831D01*
X64327839Y-122769908D01*
X64328307Y-122763958D01*
X64328307Y-122763950D01*
X64328500Y-122761502D01*
X64328500Y-122328498D01*
X64327427Y-122314860D01*
X64326067Y-122297579D01*
X64326066Y-122297574D01*
X64325562Y-122291169D01*
X64279145Y-122131399D01*
X64194453Y-121988193D01*
X64191771Y-121985511D01*
X64166498Y-121921139D01*
X64180400Y-121851516D01*
X64190572Y-121835688D01*
X64194453Y-121831807D01*
X64279145Y-121688601D01*
X64281460Y-121680635D01*
X64306948Y-121592901D01*
X64325562Y-121528831D01*
X64327307Y-121506669D01*
X64328307Y-121493958D01*
X64328307Y-121493950D01*
X64328500Y-121491502D01*
X64328500Y-121058498D01*
X64327319Y-121043489D01*
X64326067Y-121027579D01*
X64326066Y-121027574D01*
X64325562Y-121021169D01*
X64279145Y-120861399D01*
X64194453Y-120718193D01*
X64191771Y-120715511D01*
X64166498Y-120651139D01*
X64180400Y-120581516D01*
X64190572Y-120565688D01*
X64194453Y-120561807D01*
X64279145Y-120418601D01*
X64325562Y-120258831D01*
X64327839Y-120229908D01*
X64328307Y-120223958D01*
X64328307Y-120223950D01*
X64328500Y-120221502D01*
X64328500Y-119788498D01*
X64327789Y-119779463D01*
X64326067Y-119757579D01*
X64326066Y-119757574D01*
X64325562Y-119751169D01*
X64279145Y-119591399D01*
X64237269Y-119520590D01*
X64198491Y-119455020D01*
X64198489Y-119455017D01*
X64194453Y-119448193D01*
X64076807Y-119330547D01*
X64069983Y-119326511D01*
X64069980Y-119326509D01*
X63940427Y-119249892D01*
X63940428Y-119249892D01*
X63933601Y-119245855D01*
X63925990Y-119243644D01*
X63925988Y-119243643D01*
X63873769Y-119228472D01*
X63773831Y-119199438D01*
X63767426Y-119198934D01*
X63767421Y-119198933D01*
X63738958Y-119196693D01*
X63738950Y-119196693D01*
X63736502Y-119196500D01*
X61953498Y-119196500D01*
X61951050Y-119196693D01*
X61951042Y-119196693D01*
X61922579Y-119198933D01*
X61922574Y-119198934D01*
X61916169Y-119199438D01*
X61816231Y-119228472D01*
X61764012Y-119243643D01*
X61764010Y-119243644D01*
X61756399Y-119245855D01*
X61749572Y-119249892D01*
X61749573Y-119249892D01*
X61620020Y-119326509D01*
X61620017Y-119326511D01*
X61613193Y-119330547D01*
X61495547Y-119448193D01*
X61491511Y-119455017D01*
X61491509Y-119455020D01*
X61452731Y-119520590D01*
X61410855Y-119591399D01*
X61364438Y-119751169D01*
X61363934Y-119757574D01*
X61363933Y-119757579D01*
X61362211Y-119779463D01*
X61361500Y-119788498D01*
X61361500Y-120221502D01*
X61361693Y-120223950D01*
X61361693Y-120223958D01*
X61362162Y-120229908D01*
X61364438Y-120258831D01*
X61410855Y-120418601D01*
X61495547Y-120561807D01*
X61498229Y-120564489D01*
X61523502Y-120628861D01*
X61509600Y-120698484D01*
X61499428Y-120714312D01*
X61495547Y-120718193D01*
X61410855Y-120861399D01*
X61364438Y-121021169D01*
X61363934Y-121027574D01*
X61363933Y-121027579D01*
X61362681Y-121043489D01*
X61361500Y-121058498D01*
X61361500Y-121491502D01*
X61361693Y-121493950D01*
X61361693Y-121493958D01*
X61362694Y-121506669D01*
X61364438Y-121528831D01*
X61383052Y-121592901D01*
X61408541Y-121680635D01*
X61410855Y-121688601D01*
X61495547Y-121831807D01*
X61498229Y-121834489D01*
X61523502Y-121898861D01*
X61509600Y-121968484D01*
X61499428Y-121984312D01*
X61495547Y-121988193D01*
X61410855Y-122131399D01*
X61364438Y-122291169D01*
X61363934Y-122297574D01*
X61363933Y-122297579D01*
X61362573Y-122314860D01*
X61361500Y-122328498D01*
X61361500Y-122761502D01*
X61361693Y-122763950D01*
X61361693Y-122763958D01*
X61362162Y-122769908D01*
X61364438Y-122798831D01*
X61389341Y-122884547D01*
X61408565Y-122950717D01*
X61410855Y-122958601D01*
X61495547Y-123101807D01*
X61498229Y-123104489D01*
X61523502Y-123168861D01*
X61509600Y-123238484D01*
X61499428Y-123254312D01*
X61495547Y-123258193D01*
X61410855Y-123401399D01*
X61408644Y-123409010D01*
X61408643Y-123409012D01*
X61393472Y-123461231D01*
X61364438Y-123561169D01*
X61363934Y-123567574D01*
X61363933Y-123567579D01*
X61362818Y-123581750D01*
X61361500Y-123598498D01*
X61361500Y-124031502D01*
X61361693Y-124033950D01*
X61361693Y-124033958D01*
X61363823Y-124061012D01*
X61364438Y-124068831D01*
X61377706Y-124114499D01*
X61408541Y-124220635D01*
X61410855Y-124228601D01*
X61495547Y-124371807D01*
X61498229Y-124374489D01*
X61523502Y-124438861D01*
X61509600Y-124508484D01*
X61499428Y-124524312D01*
X61495547Y-124528193D01*
X61410855Y-124671399D01*
X61364438Y-124831169D01*
X61363934Y-124837574D01*
X61363933Y-124837579D01*
X61362500Y-124855793D01*
X61361500Y-124868498D01*
X61361500Y-125301502D01*
X61361693Y-125303950D01*
X61361693Y-125303958D01*
X61362162Y-125309908D01*
X61364438Y-125338831D01*
X61389341Y-125424547D01*
X61406436Y-125483389D01*
X61410855Y-125498601D01*
X61495547Y-125641807D01*
X61498229Y-125644489D01*
X61523502Y-125708861D01*
X61509600Y-125778484D01*
X61499428Y-125794312D01*
X61495547Y-125798193D01*
X61410855Y-125941399D01*
X61364438Y-126101169D01*
X61363934Y-126107574D01*
X61363933Y-126107579D01*
X61362394Y-126127137D01*
X61361500Y-126138498D01*
X61361500Y-126571502D01*
X61361693Y-126573950D01*
X61361693Y-126573958D01*
X61363106Y-126591905D01*
X61364438Y-126608831D01*
X61393472Y-126708769D01*
X61408541Y-126760635D01*
X61410855Y-126768601D01*
X61495547Y-126911807D01*
X61498229Y-126914489D01*
X61523502Y-126978861D01*
X61509600Y-127048484D01*
X61499428Y-127064312D01*
X61495547Y-127068193D01*
X61410855Y-127211399D01*
X61408644Y-127219010D01*
X61408643Y-127219012D01*
X61393472Y-127271231D01*
X61364438Y-127371169D01*
X61363934Y-127377574D01*
X61363933Y-127377579D01*
X61361693Y-127406042D01*
X61361500Y-127408498D01*
X61361500Y-127841502D01*
X61361693Y-127843950D01*
X61361693Y-127843958D01*
X61363825Y-127871038D01*
X61364438Y-127878831D01*
X61366232Y-127885007D01*
X61366233Y-127885011D01*
X61385941Y-127952848D01*
X61385738Y-128023844D01*
X61347183Y-128083460D01*
X61282518Y-128112768D01*
X61264944Y-128114000D01*
X60728105Y-128114000D01*
X60659984Y-128093998D01*
X60620961Y-128054303D01*
X60609497Y-128035777D01*
X60578478Y-127985652D01*
X60453303Y-127860695D01*
X60439736Y-127852332D01*
X60308968Y-127771725D01*
X60308966Y-127771724D01*
X60302738Y-127767885D01*
X60185473Y-127728990D01*
X60141389Y-127714368D01*
X60141387Y-127714368D01*
X60134861Y-127712203D01*
X60128025Y-127711503D01*
X60128022Y-127711502D01*
X60084969Y-127707091D01*
X60030400Y-127701500D01*
X59283871Y-127701500D01*
X59215750Y-127681498D01*
X59194776Y-127664595D01*
X58775885Y-127245704D01*
X58741859Y-127183392D01*
X58738980Y-127156609D01*
X58738980Y-127044000D01*
X58758982Y-126975879D01*
X58812638Y-126929386D01*
X58864980Y-126918000D01*
X59057885Y-126918000D01*
X59073124Y-126913525D01*
X59074329Y-126912135D01*
X59076000Y-126904452D01*
X59076000Y-126899884D01*
X59584000Y-126899884D01*
X59588475Y-126915123D01*
X59589865Y-126916328D01*
X59597548Y-126917999D01*
X60027095Y-126917999D01*
X60033614Y-126917662D01*
X60129206Y-126907743D01*
X60142600Y-126904851D01*
X60296784Y-126853412D01*
X60309962Y-126847239D01*
X60447807Y-126761937D01*
X60459208Y-126752901D01*
X60573739Y-126638171D01*
X60582751Y-126626760D01*
X60667816Y-126488757D01*
X60673963Y-126475576D01*
X60725138Y-126321290D01*
X60728005Y-126307914D01*
X60737672Y-126213562D01*
X60738000Y-126207146D01*
X60738000Y-126019615D01*
X60733525Y-126004376D01*
X60732135Y-126003171D01*
X60724452Y-126001500D01*
X59602115Y-126001500D01*
X59586876Y-126005975D01*
X59585671Y-126007365D01*
X59584000Y-126015048D01*
X59584000Y-126899884D01*
X59076000Y-126899884D01*
X59076000Y-125619500D01*
X59096002Y-125551379D01*
X59149658Y-125504886D01*
X59202000Y-125493500D01*
X60719884Y-125493500D01*
X60735123Y-125489025D01*
X60736328Y-125487635D01*
X60737999Y-125479952D01*
X60737999Y-125287905D01*
X60737662Y-125281386D01*
X60727743Y-125185794D01*
X60724851Y-125172400D01*
X60673412Y-125018216D01*
X60667239Y-125005038D01*
X60581937Y-124867193D01*
X60572901Y-124855793D01*
X60556573Y-124839493D01*
X60522493Y-124777211D01*
X60527495Y-124706391D01*
X60556417Y-124661301D01*
X60614134Y-124603484D01*
X60614138Y-124603479D01*
X60619305Y-124598303D01*
X60623417Y-124591632D01*
X60708275Y-124453968D01*
X60708276Y-124453966D01*
X60712115Y-124447738D01*
X60767797Y-124279861D01*
X60778500Y-124175400D01*
X60778500Y-123249600D01*
X60777347Y-123238484D01*
X60768238Y-123150692D01*
X60768237Y-123150688D01*
X60767526Y-123143834D01*
X60755451Y-123107639D01*
X60717211Y-122993023D01*
X60711550Y-122976054D01*
X60618478Y-122825652D01*
X60493303Y-122700695D01*
X60487072Y-122696854D01*
X60348968Y-122611725D01*
X60348966Y-122611724D01*
X60342738Y-122607885D01*
X60262995Y-122581436D01*
X60181389Y-122554368D01*
X60181387Y-122554368D01*
X60174861Y-122552203D01*
X60168025Y-122551503D01*
X60168022Y-122551502D01*
X60124969Y-122547091D01*
X60070400Y-122541500D01*
X59323871Y-122541500D01*
X59255750Y-122521498D01*
X59234776Y-122504595D01*
X58815885Y-122085704D01*
X58781859Y-122023392D01*
X58778980Y-121996609D01*
X58778980Y-121884000D01*
X58798982Y-121815879D01*
X58852638Y-121769386D01*
X58904980Y-121758000D01*
X59097885Y-121758000D01*
X59113124Y-121753525D01*
X59114329Y-121752135D01*
X59116000Y-121744452D01*
X59116000Y-121739884D01*
X59624000Y-121739884D01*
X59628475Y-121755123D01*
X59629865Y-121756328D01*
X59637548Y-121757999D01*
X60067095Y-121757999D01*
X60073614Y-121757662D01*
X60169206Y-121747743D01*
X60182600Y-121744851D01*
X60336784Y-121693412D01*
X60349962Y-121687239D01*
X60487807Y-121601937D01*
X60499208Y-121592901D01*
X60613739Y-121478171D01*
X60622751Y-121466760D01*
X60707816Y-121328757D01*
X60713963Y-121315576D01*
X60765138Y-121161290D01*
X60768005Y-121147914D01*
X60777673Y-121053553D01*
X60778000Y-121047146D01*
X60778000Y-120859615D01*
X60773525Y-120844376D01*
X60772135Y-120843171D01*
X60764452Y-120841500D01*
X59642115Y-120841500D01*
X59626876Y-120845975D01*
X59625671Y-120847365D01*
X59624000Y-120855048D01*
X59624000Y-121739884D01*
X59116000Y-121739884D01*
X59116000Y-120315385D01*
X59624000Y-120315385D01*
X59628475Y-120330624D01*
X59629865Y-120331829D01*
X59637548Y-120333500D01*
X60759884Y-120333500D01*
X60775123Y-120329025D01*
X60776328Y-120327635D01*
X60777999Y-120319952D01*
X60777999Y-120127905D01*
X60777662Y-120121386D01*
X60767743Y-120025794D01*
X60764851Y-120012400D01*
X60713412Y-119858216D01*
X60707239Y-119845038D01*
X60621937Y-119707193D01*
X60612901Y-119695792D01*
X60498171Y-119581261D01*
X60486760Y-119572249D01*
X60348757Y-119487184D01*
X60335576Y-119481037D01*
X60181290Y-119429862D01*
X60167914Y-119426995D01*
X60073562Y-119417328D01*
X60067145Y-119417000D01*
X59642115Y-119417000D01*
X59626876Y-119421475D01*
X59625671Y-119422865D01*
X59624000Y-119430548D01*
X59624000Y-120315385D01*
X59116000Y-120315385D01*
X59116000Y-119435116D01*
X59111525Y-119419877D01*
X59110135Y-119418672D01*
X59102452Y-119417001D01*
X58904980Y-119417001D01*
X58836859Y-119396999D01*
X58790366Y-119343343D01*
X58778980Y-119291001D01*
X58778980Y-114338130D01*
X58795861Y-114275130D01*
X58881223Y-114127279D01*
X58881224Y-114127278D01*
X58884527Y-114121556D01*
X58943542Y-113939928D01*
X58945663Y-113919754D01*
X58962814Y-113756565D01*
X58963504Y-113750000D01*
X58943542Y-113560072D01*
X58884527Y-113378444D01*
X58789040Y-113213056D01*
X58736421Y-113154616D01*
X58665675Y-113076045D01*
X58665674Y-113076044D01*
X58661253Y-113071134D01*
X58506752Y-112958882D01*
X58500724Y-112956198D01*
X58500722Y-112956197D01*
X58338319Y-112883891D01*
X58338318Y-112883891D01*
X58332288Y-112881206D01*
X58238888Y-112861353D01*
X58151944Y-112842872D01*
X58151939Y-112842872D01*
X58145487Y-112841500D01*
X57954513Y-112841500D01*
X57948061Y-112842872D01*
X57948056Y-112842872D01*
X57861112Y-112861353D01*
X57767712Y-112881206D01*
X57761682Y-112883891D01*
X57761681Y-112883891D01*
X57599278Y-112956197D01*
X57599276Y-112956198D01*
X57593248Y-112958882D01*
X57438747Y-113071134D01*
X57434326Y-113076044D01*
X57434325Y-113076045D01*
X57363580Y-113154616D01*
X57310960Y-113213056D01*
X57215473Y-113378444D01*
X57156458Y-113560072D01*
X57136496Y-113750000D01*
X57137186Y-113756565D01*
X57154338Y-113919754D01*
X57156458Y-113939928D01*
X57215473Y-114121556D01*
X57245100Y-114172871D01*
X57261980Y-114235869D01*
X57261980Y-122295910D01*
X57260547Y-122314860D01*
X57257281Y-122336329D01*
X57257874Y-122343621D01*
X57257874Y-122343624D01*
X57261565Y-122388998D01*
X57261980Y-122399213D01*
X57261980Y-122407273D01*
X57262405Y-122410917D01*
X57265269Y-122435487D01*
X57265702Y-122439862D01*
X57271620Y-122512617D01*
X57273876Y-122519581D01*
X57275067Y-122525540D01*
X57276451Y-122531395D01*
X57277298Y-122538661D01*
X57302215Y-122607307D01*
X57303632Y-122611435D01*
X57326129Y-122680879D01*
X57329925Y-122687134D01*
X57332431Y-122692608D01*
X57335150Y-122698038D01*
X57337647Y-122704917D01*
X57341660Y-122711037D01*
X57341660Y-122711038D01*
X57377666Y-122765956D01*
X57380003Y-122769660D01*
X57417885Y-122832087D01*
X57421601Y-122836295D01*
X57421602Y-122836296D01*
X57425283Y-122840464D01*
X57425256Y-122840488D01*
X57427909Y-122843480D01*
X57430612Y-122846713D01*
X57434624Y-122852832D01*
X57439936Y-122857864D01*
X57490863Y-122906108D01*
X57493305Y-122908486D01*
X57924595Y-123339776D01*
X57958621Y-123402088D01*
X57961500Y-123428871D01*
X57961500Y-123513629D01*
X57941498Y-123581750D01*
X57924595Y-123602724D01*
X57491569Y-124035750D01*
X57477157Y-124048136D01*
X57465562Y-124056669D01*
X57465557Y-124056674D01*
X57459662Y-124061012D01*
X57454923Y-124066590D01*
X57454920Y-124066593D01*
X57425445Y-124101288D01*
X57418515Y-124108804D01*
X57412820Y-124114499D01*
X57410540Y-124117381D01*
X57395199Y-124136771D01*
X57392408Y-124140175D01*
X57349889Y-124190223D01*
X57345147Y-124195805D01*
X57341819Y-124202321D01*
X57338452Y-124207370D01*
X57335285Y-124212499D01*
X57330746Y-124218236D01*
X57299825Y-124284395D01*
X57297922Y-124288289D01*
X57264711Y-124353328D01*
X57262972Y-124360436D01*
X57260873Y-124366079D01*
X57258956Y-124371842D01*
X57255858Y-124378470D01*
X57254368Y-124385632D01*
X57254368Y-124385633D01*
X57240994Y-124449932D01*
X57240024Y-124454216D01*
X57222672Y-124525130D01*
X57221980Y-124536284D01*
X57221944Y-124536282D01*
X57221705Y-124540275D01*
X57221331Y-124544467D01*
X57219840Y-124551635D01*
X57220038Y-124558952D01*
X57221934Y-124629041D01*
X57221980Y-124632448D01*
X57221980Y-127455910D01*
X57220547Y-127474860D01*
X57217281Y-127496329D01*
X57217874Y-127503621D01*
X57217874Y-127503624D01*
X57221565Y-127548998D01*
X57221980Y-127559213D01*
X57221980Y-127567273D01*
X57222405Y-127570917D01*
X57225269Y-127595487D01*
X57225702Y-127599862D01*
X57227851Y-127626277D01*
X57231620Y-127672617D01*
X57233876Y-127679581D01*
X57235067Y-127685540D01*
X57236451Y-127691395D01*
X57237298Y-127698661D01*
X57262215Y-127767307D01*
X57263632Y-127771435D01*
X57272657Y-127799292D01*
X57286129Y-127840879D01*
X57289925Y-127847134D01*
X57292431Y-127852608D01*
X57295150Y-127858038D01*
X57297647Y-127864917D01*
X57301660Y-127871037D01*
X57301660Y-127871038D01*
X57337666Y-127925956D01*
X57340003Y-127929660D01*
X57377885Y-127992087D01*
X57381601Y-127996295D01*
X57381602Y-127996296D01*
X57385283Y-128000464D01*
X57385256Y-128000488D01*
X57387909Y-128003480D01*
X57390612Y-128006713D01*
X57394624Y-128012832D01*
X57413790Y-128030988D01*
X57450863Y-128066108D01*
X57453305Y-128068486D01*
X57884595Y-128499776D01*
X57918621Y-128562088D01*
X57921500Y-128588871D01*
X57921500Y-129335400D01*
X57932474Y-129441166D01*
X57988450Y-129608946D01*
X58081522Y-129759348D01*
X58206697Y-129884305D01*
X58357262Y-129977115D01*
X58437005Y-130003564D01*
X58518611Y-130030632D01*
X58518613Y-130030632D01*
X58525139Y-130032797D01*
X58531975Y-130033497D01*
X58531978Y-130033498D01*
X58575031Y-130037909D01*
X58629600Y-130043500D01*
X59376129Y-130043500D01*
X59444250Y-130063502D01*
X59465224Y-130080405D01*
X60839114Y-131454295D01*
X60873140Y-131516607D01*
X60876019Y-131543390D01*
X60876020Y-133643379D01*
X60856018Y-133711500D01*
X60839115Y-133732474D01*
X60656994Y-133914595D01*
X60594682Y-133948621D01*
X60567899Y-133951500D01*
X60484513Y-133951500D01*
X60478060Y-133952872D01*
X60478047Y-133952873D01*
X60385196Y-133972610D01*
X60314406Y-133967209D01*
X60257773Y-133924393D01*
X60233279Y-133857755D01*
X60232999Y-133849364D01*
X60232999Y-133825331D01*
X60232629Y-133818510D01*
X60227105Y-133767648D01*
X60223479Y-133752396D01*
X60178324Y-133631946D01*
X60169786Y-133616351D01*
X60093285Y-133514276D01*
X60080724Y-133501715D01*
X59978649Y-133425214D01*
X59963054Y-133416676D01*
X59842606Y-133371522D01*
X59827351Y-133367895D01*
X59776486Y-133362369D01*
X59769672Y-133362000D01*
X59644934Y-133362000D01*
X59610892Y-133354335D01*
X59606648Y-133354000D01*
X59272115Y-133354000D01*
X59256876Y-133358475D01*
X59255671Y-133359865D01*
X59254000Y-133367548D01*
X59254000Y-134035500D01*
X59233998Y-134103621D01*
X59180342Y-134150114D01*
X59128000Y-134161500D01*
X58768137Y-134161500D01*
X58700016Y-134141498D01*
X58653523Y-134087842D01*
X58643419Y-134017568D01*
X58672913Y-133952988D01*
X58732639Y-133914604D01*
X58743124Y-133911525D01*
X58744329Y-133910135D01*
X58746000Y-133902452D01*
X58746000Y-133372115D01*
X58741525Y-133356876D01*
X58740135Y-133355671D01*
X58732452Y-133354000D01*
X58357115Y-133354000D01*
X58341876Y-133358475D01*
X58340671Y-133359865D01*
X58339000Y-133367548D01*
X58339000Y-133825874D01*
X58318998Y-133893995D01*
X58265342Y-133940488D01*
X58195068Y-133950592D01*
X58134461Y-133921176D01*
X58133187Y-133922843D01*
X57994743Y-133816994D01*
X57994739Y-133816991D01*
X57989322Y-133812850D01*
X57983142Y-133809968D01*
X57983140Y-133809967D01*
X57903750Y-133772947D01*
X57850465Y-133726030D01*
X57831000Y-133658752D01*
X57831000Y-133372115D01*
X57826525Y-133356876D01*
X57825135Y-133355671D01*
X57817452Y-133354000D01*
X56577076Y-133354000D01*
X56563545Y-133357973D01*
X56562425Y-133365768D01*
X55176331Y-133365768D01*
X55176456Y-133357205D01*
X55169701Y-133354000D01*
X54177115Y-133354000D01*
X54161876Y-133358475D01*
X54160671Y-133359865D01*
X54159000Y-133367548D01*
X54159000Y-134089885D01*
X53651000Y-134089885D01*
X53651000Y-133372115D01*
X53646525Y-133356876D01*
X53645135Y-133355671D01*
X53637452Y-133354000D01*
X52647076Y-133354000D01*
X52633545Y-133357973D01*
X52632425Y-133365768D01*
X51508000Y-133365768D01*
X51508000Y-132842795D01*
X52633544Y-132842795D01*
X52640299Y-132846000D01*
X53632885Y-132846000D01*
X53648124Y-132841525D01*
X53649329Y-132840135D01*
X53651000Y-132832452D01*
X53651000Y-132827885D01*
X54159000Y-132827885D01*
X54163475Y-132843124D01*
X54164865Y-132844329D01*
X54172548Y-132846000D01*
X55162924Y-132846000D01*
X55173839Y-132842795D01*
X56563544Y-132842795D01*
X56570299Y-132846000D01*
X57812885Y-132846000D01*
X57828124Y-132841525D01*
X57829329Y-132840135D01*
X57831000Y-132832452D01*
X57831000Y-132827885D01*
X58339000Y-132827885D01*
X58343475Y-132843124D01*
X58344865Y-132844329D01*
X58352548Y-132846000D01*
X59592924Y-132846000D01*
X59606455Y-132842027D01*
X59607575Y-132834232D01*
X59575862Y-132726479D01*
X59571269Y-132715111D01*
X59485393Y-132550846D01*
X59478679Y-132540585D01*
X59362532Y-132396127D01*
X59353954Y-132387368D01*
X59211961Y-132268222D01*
X59201841Y-132261292D01*
X59039415Y-132171998D01*
X59028142Y-132167166D01*
X58851462Y-132111120D01*
X58839468Y-132108570D01*
X58695239Y-132092393D01*
X58688215Y-132092000D01*
X58357115Y-132092000D01*
X58341876Y-132096475D01*
X58340671Y-132097865D01*
X58339000Y-132105548D01*
X58339000Y-132827885D01*
X57831000Y-132827885D01*
X57831000Y-132110114D01*
X57826525Y-132094876D01*
X57825135Y-132093671D01*
X57817452Y-132092000D01*
X57488343Y-132092000D01*
X57482195Y-132092301D01*
X57344397Y-132105812D01*
X57332362Y-132108195D01*
X57154924Y-132161767D01*
X57143584Y-132166441D01*
X56979923Y-132253460D01*
X56969706Y-132260249D01*
X56826067Y-132377397D01*
X56817363Y-132386041D01*
X56699216Y-132528856D01*
X56692356Y-132539027D01*
X56604196Y-132702076D01*
X56599444Y-132713381D01*
X56563750Y-132828692D01*
X56563544Y-132842795D01*
X55173839Y-132842795D01*
X55176455Y-132842027D01*
X55177575Y-132834232D01*
X55145862Y-132726479D01*
X55141269Y-132715111D01*
X55055393Y-132550846D01*
X55048679Y-132540585D01*
X54932532Y-132396127D01*
X54923954Y-132387368D01*
X54781961Y-132268222D01*
X54771841Y-132261292D01*
X54609415Y-132171998D01*
X54598142Y-132167166D01*
X54421462Y-132111120D01*
X54409468Y-132108570D01*
X54265239Y-132092393D01*
X54258215Y-132092000D01*
X54177115Y-132092000D01*
X54161876Y-132096475D01*
X54160671Y-132097865D01*
X54159000Y-132105548D01*
X54159000Y-132827885D01*
X53651000Y-132827885D01*
X53651000Y-132110114D01*
X53646525Y-132094876D01*
X53645135Y-132093671D01*
X53637452Y-132092000D01*
X53558343Y-132092000D01*
X53552195Y-132092301D01*
X53414397Y-132105812D01*
X53402362Y-132108195D01*
X53224924Y-132161767D01*
X53213584Y-132166441D01*
X53049923Y-132253460D01*
X53039706Y-132260249D01*
X52896067Y-132377397D01*
X52887363Y-132386041D01*
X52769216Y-132528856D01*
X52762356Y-132539027D01*
X52674196Y-132702076D01*
X52669444Y-132713381D01*
X52633750Y-132828692D01*
X52633544Y-132842795D01*
X51508000Y-132842795D01*
X51508000Y-127746695D01*
X52207251Y-127746695D01*
X52207548Y-127751848D01*
X52207548Y-127751851D01*
X52215741Y-127893938D01*
X52220110Y-127969715D01*
X52221247Y-127974761D01*
X52221248Y-127974767D01*
X52235634Y-128038601D01*
X52269222Y-128187639D01*
X52353266Y-128394616D01*
X52401691Y-128473638D01*
X52455893Y-128562088D01*
X52469987Y-128585088D01*
X52616250Y-128753938D01*
X52788126Y-128896632D01*
X52981000Y-129009338D01*
X52985825Y-129011180D01*
X52985826Y-129011181D01*
X53024306Y-129025875D01*
X53189692Y-129089030D01*
X53194760Y-129090061D01*
X53194763Y-129090062D01*
X53249553Y-129101209D01*
X53408597Y-129133567D01*
X53413772Y-129133757D01*
X53413774Y-129133757D01*
X53626673Y-129141564D01*
X53626677Y-129141564D01*
X53631837Y-129141753D01*
X53636957Y-129141097D01*
X53636959Y-129141097D01*
X53848288Y-129114025D01*
X53848289Y-129114025D01*
X53853416Y-129113368D01*
X53859636Y-129111502D01*
X54062429Y-129050661D01*
X54062434Y-129050659D01*
X54067384Y-129049174D01*
X54267994Y-128950896D01*
X54449860Y-128821173D01*
X54479514Y-128791623D01*
X54604435Y-128667137D01*
X54608096Y-128663489D01*
X54619529Y-128647579D01*
X54735435Y-128486277D01*
X54738453Y-128482077D01*
X54743122Y-128472631D01*
X54835136Y-128286453D01*
X54835137Y-128286451D01*
X54837430Y-128281811D01*
X54902370Y-128068069D01*
X54931529Y-127846590D01*
X54933156Y-127780000D01*
X54914852Y-127557361D01*
X54860431Y-127340702D01*
X54771354Y-127135840D01*
X54677006Y-126990000D01*
X54652822Y-126952617D01*
X54652820Y-126952614D01*
X54650014Y-126948277D01*
X54499670Y-126783051D01*
X54495619Y-126779852D01*
X54495615Y-126779848D01*
X54328414Y-126647800D01*
X54328410Y-126647798D01*
X54324359Y-126644598D01*
X54283053Y-126621796D01*
X54233084Y-126571364D01*
X54218312Y-126501921D01*
X54243428Y-126435516D01*
X54270780Y-126408909D01*
X54331926Y-126365294D01*
X54449860Y-126281173D01*
X54608096Y-126123489D01*
X54619529Y-126107579D01*
X54735435Y-125946277D01*
X54738453Y-125942077D01*
X54744636Y-125929568D01*
X54835136Y-125746453D01*
X54835137Y-125746451D01*
X54837430Y-125741811D01*
X54882563Y-125593261D01*
X54900865Y-125533023D01*
X54900865Y-125533021D01*
X54902370Y-125528069D01*
X54931529Y-125306590D01*
X54933156Y-125240000D01*
X54914852Y-125017361D01*
X54860431Y-124800702D01*
X54771354Y-124595840D01*
X54714841Y-124508484D01*
X54652822Y-124412617D01*
X54652820Y-124412614D01*
X54650014Y-124408277D01*
X54499670Y-124243051D01*
X54495619Y-124239852D01*
X54495615Y-124239848D01*
X54328414Y-124107800D01*
X54328410Y-124107798D01*
X54324359Y-124104598D01*
X54283053Y-124081796D01*
X54233084Y-124031364D01*
X54218312Y-123961921D01*
X54243428Y-123895516D01*
X54270780Y-123868909D01*
X54314603Y-123837650D01*
X54449860Y-123741173D01*
X54608096Y-123583489D01*
X54619529Y-123567579D01*
X54735435Y-123406277D01*
X54738453Y-123402077D01*
X54751005Y-123376681D01*
X54835136Y-123206453D01*
X54835137Y-123206451D01*
X54837430Y-123201811D01*
X54892213Y-123021500D01*
X54900865Y-122993023D01*
X54900865Y-122993021D01*
X54902370Y-122988069D01*
X54931529Y-122766590D01*
X54931714Y-122759033D01*
X54933074Y-122703365D01*
X54933074Y-122703361D01*
X54933156Y-122700000D01*
X54914852Y-122477361D01*
X54860431Y-122260702D01*
X54771354Y-122055840D01*
X54650014Y-121868277D01*
X54499670Y-121703051D01*
X54495619Y-121699852D01*
X54495615Y-121699848D01*
X54328414Y-121567800D01*
X54328410Y-121567798D01*
X54324359Y-121564598D01*
X54283053Y-121541796D01*
X54233084Y-121491364D01*
X54218312Y-121421921D01*
X54243428Y-121355516D01*
X54270780Y-121328909D01*
X54314603Y-121297650D01*
X54449860Y-121201173D01*
X54503306Y-121147914D01*
X54604435Y-121047137D01*
X54608096Y-121043489D01*
X54619529Y-121027579D01*
X54735435Y-120866277D01*
X54738453Y-120862077D01*
X54747202Y-120844376D01*
X54835136Y-120666453D01*
X54835137Y-120666451D01*
X54837430Y-120661811D01*
X54902370Y-120448069D01*
X54931529Y-120226590D01*
X54933156Y-120160000D01*
X54914852Y-119937361D01*
X54860431Y-119720702D01*
X54771354Y-119515840D01*
X54650014Y-119328277D01*
X54499670Y-119163051D01*
X54495619Y-119159852D01*
X54495615Y-119159848D01*
X54328414Y-119027800D01*
X54328410Y-119027798D01*
X54324359Y-119024598D01*
X54283053Y-119001796D01*
X54233084Y-118951364D01*
X54218312Y-118881921D01*
X54243428Y-118815516D01*
X54270780Y-118788909D01*
X54314603Y-118757650D01*
X54449860Y-118661173D01*
X54505889Y-118605340D01*
X54552544Y-118558847D01*
X54608096Y-118503489D01*
X54667594Y-118420689D01*
X54735435Y-118326277D01*
X54738453Y-118322077D01*
X54837430Y-118121811D01*
X54902370Y-117908069D01*
X54931529Y-117686590D01*
X54933156Y-117620000D01*
X54914852Y-117397361D01*
X54860431Y-117180702D01*
X54771354Y-116975840D01*
X54703017Y-116870207D01*
X54652822Y-116792617D01*
X54652820Y-116792614D01*
X54650014Y-116788277D01*
X54499670Y-116623051D01*
X54495619Y-116619852D01*
X54495615Y-116619848D01*
X54328414Y-116487800D01*
X54328410Y-116487798D01*
X54324359Y-116484598D01*
X54283053Y-116461796D01*
X54233084Y-116411364D01*
X54218312Y-116341921D01*
X54243428Y-116275516D01*
X54270780Y-116248909D01*
X54314603Y-116217650D01*
X54449860Y-116121173D01*
X54608096Y-115963489D01*
X54655009Y-115898203D01*
X54735435Y-115786277D01*
X54738453Y-115782077D01*
X54759836Y-115738813D01*
X54835136Y-115586453D01*
X54835137Y-115586451D01*
X54837430Y-115581811D01*
X54902370Y-115368069D01*
X54931529Y-115146590D01*
X54932320Y-115114235D01*
X54933074Y-115083365D01*
X54933074Y-115083361D01*
X54933156Y-115080000D01*
X54914852Y-114857361D01*
X54860431Y-114640702D01*
X54771354Y-114435840D01*
X54650014Y-114248277D01*
X54499670Y-114083051D01*
X54495619Y-114079852D01*
X54495615Y-114079848D01*
X54328414Y-113947800D01*
X54328410Y-113947798D01*
X54324359Y-113944598D01*
X54315900Y-113939928D01*
X54282569Y-113921529D01*
X54232598Y-113871097D01*
X54217826Y-113801654D01*
X54242942Y-113735248D01*
X54270294Y-113708641D01*
X54445328Y-113583792D01*
X54453200Y-113577139D01*
X54604052Y-113426812D01*
X54610730Y-113418965D01*
X54735003Y-113246020D01*
X54740313Y-113237183D01*
X54834670Y-113046267D01*
X54838469Y-113036672D01*
X54900377Y-112832910D01*
X54902555Y-112822837D01*
X54903986Y-112811962D01*
X54901775Y-112797778D01*
X54888617Y-112794000D01*
X52253225Y-112794000D01*
X52239694Y-112797973D01*
X52238257Y-112807966D01*
X52268565Y-112942446D01*
X52271645Y-112952275D01*
X52351770Y-113149603D01*
X52356413Y-113158794D01*
X52467694Y-113340388D01*
X52473777Y-113348699D01*
X52613213Y-113509667D01*
X52620580Y-113516883D01*
X52784434Y-113652916D01*
X52792881Y-113658831D01*
X52861969Y-113699203D01*
X52910693Y-113750842D01*
X52923764Y-113820625D01*
X52897033Y-113886396D01*
X52856584Y-113919752D01*
X52843607Y-113926507D01*
X52839474Y-113929610D01*
X52839471Y-113929612D01*
X52817370Y-113946206D01*
X52664965Y-114060635D01*
X52661393Y-114064373D01*
X52557713Y-114172868D01*
X52510629Y-114222138D01*
X52507715Y-114226410D01*
X52507714Y-114226411D01*
X52456210Y-114301913D01*
X52384743Y-114406680D01*
X52345010Y-114492277D01*
X52292986Y-114604355D01*
X52290688Y-114609305D01*
X52230989Y-114824570D01*
X52207251Y-115046695D01*
X52207548Y-115051848D01*
X52207548Y-115051851D01*
X52214220Y-115167559D01*
X52220110Y-115269715D01*
X52221247Y-115274761D01*
X52221248Y-115274767D01*
X52225675Y-115294410D01*
X52269222Y-115487639D01*
X52308392Y-115584104D01*
X52347610Y-115680686D01*
X52353266Y-115694616D01*
X52404019Y-115777438D01*
X52464830Y-115876672D01*
X52469987Y-115885088D01*
X52616250Y-116053938D01*
X52788126Y-116196632D01*
X52846452Y-116230715D01*
X52861445Y-116239476D01*
X52910169Y-116291114D01*
X52923240Y-116360897D01*
X52896509Y-116426669D01*
X52856055Y-116460027D01*
X52843607Y-116466507D01*
X52839474Y-116469610D01*
X52839471Y-116469612D01*
X52669100Y-116597530D01*
X52664965Y-116600635D01*
X52510629Y-116762138D01*
X52507715Y-116766410D01*
X52507714Y-116766411D01*
X52452738Y-116847003D01*
X52384743Y-116946680D01*
X52338913Y-117045412D01*
X52325238Y-117074874D01*
X52290688Y-117149305D01*
X52230989Y-117364570D01*
X52207251Y-117586695D01*
X52207548Y-117591848D01*
X52207548Y-117591851D01*
X52213011Y-117686590D01*
X52220110Y-117809715D01*
X52221247Y-117814761D01*
X52221248Y-117814767D01*
X52232031Y-117862614D01*
X52269222Y-118027639D01*
X52353266Y-118234616D01*
X52469987Y-118425088D01*
X52616250Y-118593938D01*
X52788126Y-118736632D01*
X52858595Y-118777811D01*
X52861445Y-118779476D01*
X52910169Y-118831114D01*
X52923240Y-118900897D01*
X52896509Y-118966669D01*
X52856055Y-119000027D01*
X52843607Y-119006507D01*
X52839474Y-119009610D01*
X52839471Y-119009612D01*
X52669100Y-119137530D01*
X52664965Y-119140635D01*
X52510629Y-119302138D01*
X52384743Y-119486680D01*
X52290688Y-119689305D01*
X52230989Y-119904570D01*
X52207251Y-120126695D01*
X52207548Y-120131848D01*
X52207548Y-120131851D01*
X52212859Y-120223958D01*
X52220110Y-120349715D01*
X52221247Y-120354761D01*
X52221248Y-120354767D01*
X52235634Y-120418601D01*
X52269222Y-120567639D01*
X52353266Y-120774616D01*
X52469987Y-120965088D01*
X52616250Y-121133938D01*
X52788126Y-121276632D01*
X52854771Y-121315576D01*
X52861445Y-121319476D01*
X52910169Y-121371114D01*
X52923240Y-121440897D01*
X52896509Y-121506669D01*
X52856055Y-121540027D01*
X52843607Y-121546507D01*
X52839474Y-121549610D01*
X52839471Y-121549612D01*
X52669100Y-121677530D01*
X52664965Y-121680635D01*
X52646605Y-121699848D01*
X52520502Y-121831807D01*
X52510629Y-121842138D01*
X52384743Y-122026680D01*
X52290688Y-122229305D01*
X52230989Y-122444570D01*
X52207251Y-122666695D01*
X52207548Y-122671848D01*
X52207548Y-122671851D01*
X52219812Y-122884547D01*
X52220110Y-122889715D01*
X52221247Y-122894761D01*
X52221248Y-122894767D01*
X52239601Y-122976201D01*
X52269222Y-123107639D01*
X52353266Y-123314616D01*
X52355965Y-123319020D01*
X52457851Y-123485283D01*
X52469987Y-123505088D01*
X52616250Y-123673938D01*
X52788126Y-123816632D01*
X52858595Y-123857811D01*
X52861445Y-123859476D01*
X52910169Y-123911114D01*
X52923240Y-123980897D01*
X52896509Y-124046669D01*
X52856055Y-124080027D01*
X52843607Y-124086507D01*
X52839474Y-124089610D01*
X52839471Y-124089612D01*
X52669100Y-124217530D01*
X52664965Y-124220635D01*
X52646605Y-124239848D01*
X52520502Y-124371807D01*
X52510629Y-124382138D01*
X52507715Y-124386410D01*
X52507714Y-124386411D01*
X52471935Y-124438861D01*
X52384743Y-124566680D01*
X52370064Y-124598303D01*
X52319892Y-124706391D01*
X52290688Y-124769305D01*
X52230989Y-124984570D01*
X52207251Y-125206695D01*
X52207548Y-125211848D01*
X52207548Y-125211851D01*
X52218579Y-125403168D01*
X52220110Y-125429715D01*
X52221247Y-125434761D01*
X52221248Y-125434767D01*
X52238778Y-125512552D01*
X52269222Y-125647639D01*
X52353266Y-125854616D01*
X52402264Y-125934573D01*
X52451579Y-126015048D01*
X52469987Y-126045088D01*
X52616250Y-126213938D01*
X52788126Y-126356632D01*
X52821192Y-126375954D01*
X52861445Y-126399476D01*
X52910169Y-126451114D01*
X52923240Y-126520897D01*
X52896509Y-126586669D01*
X52856055Y-126620027D01*
X52843607Y-126626507D01*
X52839474Y-126629610D01*
X52839471Y-126629612D01*
X52669100Y-126757530D01*
X52664965Y-126760635D01*
X52646605Y-126779848D01*
X52520502Y-126911807D01*
X52510629Y-126922138D01*
X52507715Y-126926410D01*
X52507714Y-126926411D01*
X52495404Y-126944457D01*
X52384743Y-127106680D01*
X52290688Y-127309305D01*
X52230989Y-127524570D01*
X52207251Y-127746695D01*
X51508000Y-127746695D01*
X51508000Y-110898134D01*
X52211500Y-110898134D01*
X52218255Y-110960316D01*
X52269385Y-111096705D01*
X52356739Y-111213261D01*
X52473295Y-111300615D01*
X52481704Y-111303767D01*
X52481705Y-111303768D01*
X52590960Y-111344726D01*
X52647725Y-111387367D01*
X52672425Y-111453929D01*
X52657218Y-111523278D01*
X52637825Y-111549759D01*
X52514590Y-111678717D01*
X52508104Y-111686727D01*
X52388098Y-111862649D01*
X52383000Y-111871623D01*
X52293338Y-112064783D01*
X52289775Y-112074470D01*
X52234389Y-112274183D01*
X52235912Y-112282607D01*
X52248292Y-112286000D01*
X54888344Y-112286000D01*
X54901875Y-112282027D01*
X54903180Y-112272947D01*
X54861214Y-112105875D01*
X54857894Y-112096124D01*
X54772972Y-111900814D01*
X54768105Y-111891739D01*
X54652426Y-111712926D01*
X54646136Y-111704757D01*
X54502293Y-111546677D01*
X54471241Y-111482831D01*
X54479635Y-111412333D01*
X54524812Y-111357564D01*
X54551256Y-111343895D01*
X54658297Y-111303767D01*
X54666705Y-111300615D01*
X54783261Y-111213261D01*
X54870615Y-111096705D01*
X54921745Y-110960316D01*
X54928500Y-110898134D01*
X54928500Y-109101866D01*
X54921745Y-109039684D01*
X54906868Y-109000000D01*
X56486540Y-109000000D01*
X56506359Y-109315020D01*
X56565505Y-109625072D01*
X56663044Y-109925266D01*
X56664731Y-109928852D01*
X56664733Y-109928856D01*
X56795750Y-110207283D01*
X56795754Y-110207290D01*
X56797438Y-110210869D01*
X56966568Y-110477375D01*
X57167767Y-110720582D01*
X57397860Y-110936654D01*
X57653221Y-111122184D01*
X57656690Y-111124091D01*
X57656693Y-111124093D01*
X57828676Y-111218642D01*
X57929821Y-111274247D01*
X57933490Y-111275700D01*
X57933495Y-111275702D01*
X58215529Y-111387367D01*
X58223298Y-111390443D01*
X58529025Y-111468940D01*
X58842179Y-111508500D01*
X59157821Y-111508500D01*
X59470975Y-111468940D01*
X59776702Y-111390443D01*
X59784471Y-111387367D01*
X60066505Y-111275702D01*
X60066510Y-111275700D01*
X60070179Y-111274247D01*
X60171324Y-111218642D01*
X60343307Y-111124093D01*
X60343310Y-111124091D01*
X60346779Y-111122184D01*
X60602140Y-110936654D01*
X60832233Y-110720582D01*
X61033432Y-110477375D01*
X61202562Y-110210869D01*
X61204246Y-110207290D01*
X61204250Y-110207283D01*
X61335267Y-109928856D01*
X61335269Y-109928852D01*
X61336956Y-109925266D01*
X61434495Y-109625072D01*
X61493641Y-109315020D01*
X61513460Y-109000000D01*
X61513070Y-108993793D01*
X61506339Y-108886814D01*
X61493641Y-108684980D01*
X61434495Y-108374928D01*
X61359637Y-108144539D01*
X61338182Y-108078507D01*
X61338182Y-108078506D01*
X61336956Y-108074734D01*
X61304938Y-108006691D01*
X61204250Y-107792717D01*
X61204246Y-107792710D01*
X61202562Y-107789131D01*
X61033432Y-107522625D01*
X60881518Y-107338993D01*
X60834758Y-107282470D01*
X60834757Y-107282469D01*
X60832233Y-107279418D01*
X60804064Y-107252965D01*
X60793001Y-107242577D01*
X60602140Y-107063346D01*
X60346779Y-106877816D01*
X60217821Y-106806920D01*
X60073648Y-106727660D01*
X60073647Y-106727659D01*
X60070179Y-106725753D01*
X60066510Y-106724300D01*
X60066505Y-106724298D01*
X59780372Y-106611010D01*
X59780371Y-106611010D01*
X59776702Y-106609557D01*
X59470975Y-106531060D01*
X59157821Y-106491500D01*
X58842179Y-106491500D01*
X58529025Y-106531060D01*
X58223298Y-106609557D01*
X58219629Y-106611010D01*
X58219628Y-106611010D01*
X57933495Y-106724298D01*
X57933490Y-106724300D01*
X57929821Y-106725753D01*
X57926353Y-106727659D01*
X57926352Y-106727660D01*
X57782180Y-106806920D01*
X57653221Y-106877816D01*
X57397860Y-107063346D01*
X57206999Y-107242577D01*
X57195937Y-107252965D01*
X57167767Y-107279418D01*
X57165243Y-107282469D01*
X57165242Y-107282470D01*
X57118482Y-107338993D01*
X56966568Y-107522625D01*
X56797438Y-107789131D01*
X56795754Y-107792710D01*
X56795750Y-107792717D01*
X56695062Y-108006691D01*
X56663044Y-108074734D01*
X56661818Y-108078506D01*
X56661818Y-108078507D01*
X56640363Y-108144539D01*
X56565505Y-108374928D01*
X56506359Y-108684980D01*
X56493661Y-108886814D01*
X56486931Y-108993793D01*
X56486540Y-109000000D01*
X54906868Y-109000000D01*
X54870615Y-108903295D01*
X54783261Y-108786739D01*
X54666705Y-108699385D01*
X54530316Y-108648255D01*
X54468134Y-108641500D01*
X52671866Y-108641500D01*
X52609684Y-108648255D01*
X52473295Y-108699385D01*
X52356739Y-108786739D01*
X52269385Y-108903295D01*
X52218255Y-109039684D01*
X52211500Y-109101866D01*
X52211500Y-110898134D01*
X51508000Y-110898134D01*
X51508000Y-107449328D01*
X51509500Y-107429943D01*
X51511805Y-107415141D01*
X51511805Y-107415139D01*
X51513186Y-107406270D01*
X51512022Y-107397366D01*
X51511195Y-107391041D01*
X51510452Y-107365713D01*
X51511640Y-107349114D01*
X51522543Y-107196657D01*
X51525101Y-107178863D01*
X51543952Y-107092207D01*
X51566521Y-106988460D01*
X51571586Y-106971212D01*
X51639682Y-106788642D01*
X51647149Y-106772290D01*
X51701024Y-106673624D01*
X51740534Y-106601266D01*
X51750248Y-106586152D01*
X51867023Y-106430158D01*
X51878796Y-106416572D01*
X52016572Y-106278796D01*
X52030158Y-106267023D01*
X52076484Y-106232344D01*
X52186152Y-106150248D01*
X52201266Y-106140534D01*
X52306980Y-106082810D01*
X52372290Y-106047149D01*
X52388642Y-106039682D01*
X52571212Y-105971586D01*
X52588460Y-105966521D01*
X52778863Y-105925101D01*
X52796658Y-105922543D01*
X52845557Y-105919046D01*
X52958631Y-105910959D01*
X52976533Y-105911703D01*
X52984858Y-105911805D01*
X52993730Y-105913186D01*
X53002632Y-105912022D01*
X53002635Y-105912022D01*
X53025251Y-105909064D01*
X53041589Y-105908000D01*
X93950672Y-105908000D01*
X93970056Y-105909500D01*
G37*
%TD.AperFunction*%
%TA.AperFunction,Conductor*%
G36*
X86131875Y-128298502D02*
G01*
X86171186Y-128338665D01*
X86273235Y-128505193D01*
X86273242Y-128505203D01*
X86275824Y-128509416D01*
X86430031Y-128689969D01*
X86610584Y-128844176D01*
X86614792Y-128846755D01*
X86614798Y-128846759D01*
X86779832Y-128947892D01*
X86813037Y-128968240D01*
X86817607Y-128970133D01*
X86817611Y-128970135D01*
X87008430Y-129049174D01*
X87032406Y-129059105D01*
X87068561Y-129067785D01*
X87258476Y-129113380D01*
X87258482Y-129113381D01*
X87263289Y-129114535D01*
X87500000Y-129133165D01*
X87736711Y-129114535D01*
X87741518Y-129113381D01*
X87741524Y-129113380D01*
X87931439Y-129067785D01*
X87967594Y-129059105D01*
X88016794Y-129038726D01*
X88087382Y-129031137D01*
X88150869Y-129062916D01*
X88187097Y-129123974D01*
X88191011Y-129155135D01*
X88191011Y-130585406D01*
X88171009Y-130653527D01*
X88117353Y-130700020D01*
X88047079Y-130710124D01*
X88016793Y-130701815D01*
X87972012Y-130683266D01*
X87962627Y-130680217D01*
X87741446Y-130627115D01*
X87731699Y-130625572D01*
X87504930Y-130607725D01*
X87495070Y-130607725D01*
X87268301Y-130625572D01*
X87258554Y-130627115D01*
X87037373Y-130680217D01*
X87027988Y-130683266D01*
X86817837Y-130770313D01*
X86809042Y-130774795D01*
X86641555Y-130877432D01*
X86632093Y-130887890D01*
X86635876Y-130896666D01*
X87770115Y-132030905D01*
X87804141Y-132093217D01*
X87799076Y-132164032D01*
X87770115Y-132209095D01*
X86638920Y-133340290D01*
X86632160Y-133352670D01*
X86637887Y-133360320D01*
X86809042Y-133465205D01*
X86817837Y-133469687D01*
X87027988Y-133556734D01*
X87037373Y-133559783D01*
X87258554Y-133612885D01*
X87268301Y-133614428D01*
X87495070Y-133632275D01*
X87504930Y-133632275D01*
X87731699Y-133614428D01*
X87741446Y-133612885D01*
X87962627Y-133559783D01*
X87972012Y-133556734D01*
X88016793Y-133538185D01*
X88087383Y-133530596D01*
X88150870Y-133562375D01*
X88187097Y-133623434D01*
X88191011Y-133654594D01*
X88191011Y-136295539D01*
X88171009Y-136363660D01*
X88154106Y-136384634D01*
X88049949Y-136488791D01*
X87987637Y-136522817D01*
X87931440Y-136522215D01*
X87741524Y-136476620D01*
X87741518Y-136476619D01*
X87736711Y-136475465D01*
X87500000Y-136456835D01*
X87263289Y-136475465D01*
X87258482Y-136476619D01*
X87258476Y-136476620D01*
X87144336Y-136504023D01*
X87032406Y-136530895D01*
X87027835Y-136532788D01*
X87027833Y-136532789D01*
X86817611Y-136619865D01*
X86817607Y-136619867D01*
X86813037Y-136621760D01*
X86808817Y-136624346D01*
X86614798Y-136743241D01*
X86614792Y-136743245D01*
X86610584Y-136745824D01*
X86430031Y-136900031D01*
X86275824Y-137080584D01*
X86273242Y-137084797D01*
X86273235Y-137084807D01*
X86171186Y-137251335D01*
X86118539Y-137298966D01*
X86063754Y-137311500D01*
X82436246Y-137311500D01*
X82368125Y-137291498D01*
X82328814Y-137251335D01*
X82226765Y-137084807D01*
X82226758Y-137084797D01*
X82224176Y-137080584D01*
X82069969Y-136900031D01*
X81889416Y-136745824D01*
X81885208Y-136743245D01*
X81885202Y-136743241D01*
X81691183Y-136624346D01*
X81686963Y-136621760D01*
X81682393Y-136619867D01*
X81682389Y-136619865D01*
X81472167Y-136532789D01*
X81472165Y-136532788D01*
X81467594Y-136530895D01*
X81355664Y-136504023D01*
X81241524Y-136476620D01*
X81241518Y-136476619D01*
X81236711Y-136475465D01*
X81000000Y-136456835D01*
X80763289Y-136475465D01*
X80758482Y-136476619D01*
X80758476Y-136476620D01*
X80644336Y-136504023D01*
X80532406Y-136530895D01*
X80527835Y-136532788D01*
X80527833Y-136532789D01*
X80317611Y-136619865D01*
X80317607Y-136619867D01*
X80313037Y-136621760D01*
X80308817Y-136624346D01*
X80114798Y-136743241D01*
X80114792Y-136743245D01*
X80110584Y-136745824D01*
X79930031Y-136900031D01*
X79775824Y-137080584D01*
X79773242Y-137084797D01*
X79773235Y-137084807D01*
X79671186Y-137251335D01*
X79618539Y-137298966D01*
X79563754Y-137311500D01*
X78751292Y-137311500D01*
X78683171Y-137291498D01*
X78636678Y-137237842D01*
X78630357Y-137220864D01*
X78629459Y-137217791D01*
X78602497Y-137125590D01*
X78543217Y-136995211D01*
X78540805Y-136991440D01*
X78540801Y-136991432D01*
X78467157Y-136876279D01*
X78467156Y-136876278D01*
X78464742Y-136872503D01*
X78371252Y-136764002D01*
X78261489Y-136668250D01*
X78254538Y-136663744D01*
X78167396Y-136607262D01*
X78141304Y-136590350D01*
X78133630Y-136586804D01*
X78013145Y-136531132D01*
X78013143Y-136531131D01*
X78009076Y-136529252D01*
X77924714Y-136504023D01*
X77876156Y-136489501D01*
X77876151Y-136489500D01*
X77871858Y-136488216D01*
X77867426Y-136487554D01*
X77867423Y-136487553D01*
X77732235Y-136467350D01*
X77732232Y-136467350D01*
X77727804Y-136466688D01*
X77653145Y-136466232D01*
X77589055Y-136465840D01*
X77589050Y-136465840D01*
X77584583Y-136465813D01*
X77582139Y-136466148D01*
X77578344Y-136466271D01*
X77150000Y-136466271D01*
X77141024Y-136466913D01*
X77083627Y-136471018D01*
X77083626Y-136471018D01*
X77076889Y-136471500D01*
X77040560Y-136482167D01*
X76987132Y-136485988D01*
X76850000Y-136466271D01*
X76359992Y-136466271D01*
X76359222Y-136466269D01*
X76289069Y-136465840D01*
X76289063Y-136465840D01*
X76284583Y-136465813D01*
X76205686Y-136476620D01*
X76144724Y-136484970D01*
X76144720Y-136484971D01*
X76140273Y-136485580D01*
X76002564Y-136524937D01*
X75869602Y-136584414D01*
X75865820Y-136586800D01*
X75865813Y-136586804D01*
X75802221Y-136626928D01*
X75748474Y-136660840D01*
X75637548Y-136755246D01*
X75634577Y-136758610D01*
X75559114Y-136844057D01*
X75542740Y-136862597D01*
X75540285Y-136866334D01*
X75540283Y-136866337D01*
X75515683Y-136903787D01*
X75462774Y-136984334D01*
X75460869Y-136988391D01*
X75460867Y-136988395D01*
X75427422Y-137059630D01*
X75401905Y-137113979D01*
X75400596Y-137118262D01*
X75400594Y-137118266D01*
X75390920Y-137149908D01*
X75359317Y-137253277D01*
X75358628Y-137257700D01*
X75358627Y-137257706D01*
X75356256Y-137272938D01*
X75337283Y-137394795D01*
X75335503Y-137540438D01*
X75336063Y-137544723D01*
X75336271Y-137551760D01*
X75336271Y-137760280D01*
X75316269Y-137828401D01*
X75299366Y-137849375D01*
X74034625Y-139114115D01*
X73972313Y-139148141D01*
X73945530Y-139151020D01*
X73629500Y-139151020D01*
X73561379Y-139131018D01*
X73514886Y-139077362D01*
X73503500Y-139025020D01*
X73503500Y-138359600D01*
X73503163Y-138356350D01*
X73493238Y-138260692D01*
X73493237Y-138260688D01*
X73492526Y-138253834D01*
X73476805Y-138206711D01*
X73438868Y-138093002D01*
X73436550Y-138086054D01*
X73343478Y-137935652D01*
X73218303Y-137810695D01*
X73169156Y-137780400D01*
X73073968Y-137721725D01*
X73073966Y-137721724D01*
X73067738Y-137717885D01*
X72951374Y-137679289D01*
X72906389Y-137664368D01*
X72906387Y-137664368D01*
X72899861Y-137662203D01*
X72893025Y-137661503D01*
X72893022Y-137661502D01*
X72849969Y-137657091D01*
X72795400Y-137651500D01*
X71944950Y-137651500D01*
X71876829Y-137631498D01*
X71855855Y-137614595D01*
X70485405Y-136244145D01*
X70451379Y-136181833D01*
X70448500Y-136155050D01*
X70448500Y-136061866D01*
X70441745Y-135999684D01*
X70390615Y-135863295D01*
X70303261Y-135746739D01*
X70186705Y-135659385D01*
X70050316Y-135608255D01*
X69988134Y-135601500D01*
X69933949Y-135601500D01*
X69865828Y-135581498D01*
X69819335Y-135527842D01*
X69809231Y-135457568D01*
X69838725Y-135392988D01*
X69844854Y-135386405D01*
X70385854Y-134845405D01*
X70448166Y-134811379D01*
X70474949Y-134808500D01*
X75340831Y-134808500D01*
X75408952Y-134828502D01*
X75450698Y-134873984D01*
X75450928Y-134873841D01*
X75453296Y-134877645D01*
X75524971Y-134992795D01*
X75527897Y-134997496D01*
X75530779Y-135000924D01*
X75530780Y-135000926D01*
X75616836Y-135103303D01*
X75620054Y-135107131D01*
X75728639Y-135204218D01*
X75732372Y-135206703D01*
X75732376Y-135206706D01*
X75844135Y-135281099D01*
X75847864Y-135283581D01*
X75979333Y-135346289D01*
X75983612Y-135347626D01*
X75983615Y-135347627D01*
X76034201Y-135363431D01*
X76116039Y-135388999D01*
X76120463Y-135389716D01*
X76120465Y-135389716D01*
X76157597Y-135395730D01*
X76259821Y-135412287D01*
X76326782Y-135413514D01*
X76398539Y-135414830D01*
X76398541Y-135414830D01*
X76403020Y-135414912D01*
X76407465Y-135414359D01*
X76411944Y-135414122D01*
X76411951Y-135414249D01*
X76420339Y-135413729D01*
X76850000Y-135413729D01*
X76906557Y-135409684D01*
X76916373Y-135408982D01*
X76916374Y-135408982D01*
X76923111Y-135408500D01*
X76959440Y-135397833D01*
X77012868Y-135394012D01*
X77150000Y-135413729D01*
X77637322Y-135413729D01*
X77639630Y-135413750D01*
X77703020Y-135414912D01*
X77744991Y-135409684D01*
X77843128Y-135397460D01*
X77843132Y-135397459D01*
X77847565Y-135396907D01*
X77985745Y-135359234D01*
X77989862Y-135357452D01*
X77989866Y-135357451D01*
X78115296Y-135303173D01*
X78115301Y-135303171D01*
X78119420Y-135301388D01*
X78241472Y-135226448D01*
X78266633Y-135205559D01*
X78350093Y-135136270D01*
X78350095Y-135136268D01*
X78353540Y-135133408D01*
X78449654Y-135027224D01*
X78472270Y-134993694D01*
X78528599Y-134910183D01*
X78528602Y-134910178D01*
X78531107Y-134906464D01*
X78539810Y-134888502D01*
X78578570Y-134808500D01*
X78593554Y-134777572D01*
X78637838Y-134638812D01*
X78661600Y-134497574D01*
X78668682Y-134418627D01*
X78668833Y-134406285D01*
X78663995Y-134331964D01*
X78663729Y-134323779D01*
X78663729Y-133979481D01*
X78664233Y-133968223D01*
X78665733Y-133951500D01*
X78668682Y-133918627D01*
X78668833Y-133906285D01*
X78665674Y-133857755D01*
X78663841Y-133829592D01*
X78663840Y-133829582D01*
X78663683Y-133827171D01*
X78661219Y-133809967D01*
X78644016Y-133689839D01*
X78644015Y-133689833D01*
X78643379Y-133685394D01*
X78637755Y-133666159D01*
X78603755Y-133549892D01*
X78602497Y-133545590D01*
X78543217Y-133415211D01*
X78540805Y-133411440D01*
X78540801Y-133411432D01*
X78503221Y-133352670D01*
X80132160Y-133352670D01*
X80137887Y-133360320D01*
X80309042Y-133465205D01*
X80317837Y-133469687D01*
X80527988Y-133556734D01*
X80537373Y-133559783D01*
X80758554Y-133612885D01*
X80768301Y-133614428D01*
X80995070Y-133632275D01*
X81004930Y-133632275D01*
X81231699Y-133614428D01*
X81241446Y-133612885D01*
X81462627Y-133559783D01*
X81472012Y-133556734D01*
X81682163Y-133469687D01*
X81690958Y-133465205D01*
X81858445Y-133362568D01*
X81867907Y-133352110D01*
X81864124Y-133343334D01*
X81012812Y-132492022D01*
X80998868Y-132484408D01*
X80997035Y-132484539D01*
X80990420Y-132488790D01*
X80138920Y-133340290D01*
X80132160Y-133352670D01*
X78503221Y-133352670D01*
X78467157Y-133296279D01*
X78467156Y-133296278D01*
X78464742Y-133292503D01*
X78371252Y-133184002D01*
X78367875Y-133181056D01*
X78367872Y-133181053D01*
X78351670Y-133166919D01*
X78313486Y-133107065D01*
X78308500Y-133071971D01*
X78308500Y-132124930D01*
X79487725Y-132124930D01*
X79505572Y-132351699D01*
X79507115Y-132361446D01*
X79560217Y-132582627D01*
X79563266Y-132592012D01*
X79650313Y-132802163D01*
X79654795Y-132810958D01*
X79757432Y-132978445D01*
X79767890Y-132987907D01*
X79776666Y-132984124D01*
X80627978Y-132132812D01*
X80634356Y-132121132D01*
X81364408Y-132121132D01*
X81364539Y-132122965D01*
X81368790Y-132129580D01*
X82220290Y-132981080D01*
X82232670Y-132987840D01*
X82240320Y-132982113D01*
X82345205Y-132810958D01*
X82349687Y-132802163D01*
X82436734Y-132592012D01*
X82439783Y-132582627D01*
X82492885Y-132361446D01*
X82494428Y-132351699D01*
X82512275Y-132124930D01*
X85987725Y-132124930D01*
X86005572Y-132351699D01*
X86007115Y-132361446D01*
X86060217Y-132582627D01*
X86063266Y-132592012D01*
X86150313Y-132802163D01*
X86154795Y-132810958D01*
X86257432Y-132978445D01*
X86267890Y-132987907D01*
X86276666Y-132984124D01*
X87127978Y-132132812D01*
X87135592Y-132118868D01*
X87135461Y-132117035D01*
X87131210Y-132110420D01*
X86279710Y-131258920D01*
X86267330Y-131252160D01*
X86259680Y-131257887D01*
X86154795Y-131429042D01*
X86150313Y-131437837D01*
X86063266Y-131647988D01*
X86060217Y-131657373D01*
X86007115Y-131878554D01*
X86005572Y-131888301D01*
X85987725Y-132115070D01*
X85987725Y-132124930D01*
X82512275Y-132124930D01*
X82512275Y-132115070D01*
X82494428Y-131888301D01*
X82492885Y-131878554D01*
X82439783Y-131657373D01*
X82436734Y-131647988D01*
X82349687Y-131437837D01*
X82345205Y-131429042D01*
X82242568Y-131261555D01*
X82232110Y-131252093D01*
X82223334Y-131255876D01*
X81372022Y-132107188D01*
X81364408Y-132121132D01*
X80634356Y-132121132D01*
X80635592Y-132118868D01*
X80635461Y-132117035D01*
X80631210Y-132110420D01*
X79779710Y-131258920D01*
X79767330Y-131252160D01*
X79759680Y-131257887D01*
X79654795Y-131429042D01*
X79650313Y-131437837D01*
X79563266Y-131647988D01*
X79560217Y-131657373D01*
X79507115Y-131878554D01*
X79505572Y-131888301D01*
X79487725Y-132115070D01*
X79487725Y-132124930D01*
X78308500Y-132124930D01*
X78308500Y-131294950D01*
X78328502Y-131226829D01*
X78345405Y-131205855D01*
X78663370Y-130887890D01*
X80132093Y-130887890D01*
X80135876Y-130896666D01*
X80987188Y-131747978D01*
X81001132Y-131755592D01*
X81002965Y-131755461D01*
X81009580Y-131751210D01*
X81861080Y-130899710D01*
X81867840Y-130887330D01*
X81862113Y-130879680D01*
X81690958Y-130774795D01*
X81682163Y-130770313D01*
X81472012Y-130683266D01*
X81462627Y-130680217D01*
X81241446Y-130627115D01*
X81231699Y-130625572D01*
X81004930Y-130607725D01*
X80995070Y-130607725D01*
X80768301Y-130625572D01*
X80758554Y-130627115D01*
X80537373Y-130680217D01*
X80527988Y-130683266D01*
X80317837Y-130770313D01*
X80309042Y-130774795D01*
X80141555Y-130877432D01*
X80132093Y-130887890D01*
X78663370Y-130887890D01*
X80450051Y-129101209D01*
X80512363Y-129067183D01*
X80568560Y-129067785D01*
X80758476Y-129113380D01*
X80758482Y-129113381D01*
X80763289Y-129114535D01*
X81000000Y-129133165D01*
X81236711Y-129114535D01*
X81241518Y-129113381D01*
X81241524Y-129113380D01*
X81431439Y-129067785D01*
X81467594Y-129059105D01*
X81491570Y-129049174D01*
X81682389Y-128970135D01*
X81682393Y-128970133D01*
X81686963Y-128968240D01*
X81720168Y-128947892D01*
X81885202Y-128846759D01*
X81885208Y-128846755D01*
X81889416Y-128844176D01*
X82069969Y-128689969D01*
X82224176Y-128509416D01*
X82226758Y-128505203D01*
X82226765Y-128505193D01*
X82328814Y-128338665D01*
X82381461Y-128291034D01*
X82436246Y-128278500D01*
X86063754Y-128278500D01*
X86131875Y-128298502D01*
G37*
%TD.AperFunction*%
%TA.AperFunction,Conductor*%
G36*
X78996523Y-118578237D02*
G01*
X79003106Y-118584366D01*
X80304595Y-119885855D01*
X80338621Y-119948167D01*
X80341500Y-119974950D01*
X80341500Y-126183754D01*
X80321498Y-126251875D01*
X80281335Y-126291186D01*
X80114807Y-126393235D01*
X80114799Y-126393241D01*
X80110584Y-126395824D01*
X79930031Y-126550031D01*
X79775824Y-126730584D01*
X79773245Y-126734792D01*
X79773241Y-126734798D01*
X79676999Y-126891851D01*
X79651760Y-126933037D01*
X79649867Y-126937607D01*
X79649865Y-126937611D01*
X79579835Y-127106680D01*
X79560895Y-127152406D01*
X79559740Y-127157218D01*
X79506836Y-127377579D01*
X79505465Y-127383289D01*
X79486835Y-127620000D01*
X79505465Y-127856711D01*
X79506619Y-127861518D01*
X79506620Y-127861524D01*
X79552215Y-128051440D01*
X79548668Y-128122348D01*
X79518791Y-128169949D01*
X77242395Y-130446345D01*
X77233615Y-130454335D01*
X77233613Y-130454337D01*
X77226920Y-130458584D01*
X77221494Y-130464362D01*
X77221493Y-130464363D01*
X77178396Y-130510257D01*
X77175641Y-130513099D01*
X77155073Y-130533667D01*
X77152356Y-130537170D01*
X77144648Y-130546195D01*
X77113028Y-130579867D01*
X77109207Y-130586818D01*
X77109206Y-130586819D01*
X77102697Y-130598658D01*
X77091843Y-130615182D01*
X77084018Y-130625271D01*
X77078696Y-130632132D01*
X77075549Y-130639404D01*
X77075548Y-130639406D01*
X77060346Y-130674535D01*
X77055124Y-130685195D01*
X77039998Y-130712709D01*
X77032876Y-130725663D01*
X77027541Y-130746441D01*
X77021142Y-130765131D01*
X77012620Y-130784824D01*
X77011380Y-130792655D01*
X77005394Y-130830448D01*
X77002987Y-130842071D01*
X77000942Y-130850036D01*
X76991500Y-130886812D01*
X76991500Y-130908259D01*
X76989949Y-130927969D01*
X76986594Y-130949152D01*
X76987340Y-130957043D01*
X76990941Y-130995138D01*
X76991500Y-131006996D01*
X76991500Y-132761380D01*
X76971498Y-132829501D01*
X76917842Y-132875994D01*
X76856508Y-132887059D01*
X76854463Y-132886913D01*
X76850000Y-132886271D01*
X76359992Y-132886271D01*
X76359222Y-132886269D01*
X76289069Y-132885840D01*
X76289063Y-132885840D01*
X76284583Y-132885813D01*
X76200493Y-132897331D01*
X76144724Y-132904970D01*
X76144720Y-132904971D01*
X76140273Y-132905580D01*
X76002564Y-132944937D01*
X75869602Y-133004414D01*
X75865820Y-133006800D01*
X75865813Y-133006804D01*
X75788998Y-133055271D01*
X75748474Y-133080840D01*
X75637548Y-133175246D01*
X75542740Y-133282597D01*
X75540285Y-133286334D01*
X75540283Y-133286337D01*
X75491686Y-133360320D01*
X75462774Y-133404334D01*
X75460867Y-133408396D01*
X75455864Y-133419051D01*
X75408807Y-133472212D01*
X75341810Y-133491500D01*
X70232056Y-133491500D01*
X70220200Y-133490941D01*
X70220197Y-133490941D01*
X70212463Y-133489212D01*
X70157446Y-133490941D01*
X70141631Y-133491438D01*
X70137673Y-133491500D01*
X70108568Y-133491500D01*
X70104168Y-133492056D01*
X70092336Y-133492988D01*
X70046169Y-133494438D01*
X70025579Y-133500420D01*
X70006218Y-133504430D01*
X69999230Y-133505312D01*
X69992796Y-133506125D01*
X69992795Y-133506125D01*
X69984936Y-133507118D01*
X69977571Y-133510034D01*
X69977567Y-133510035D01*
X69941979Y-133524126D01*
X69930769Y-133527965D01*
X69886400Y-133540855D01*
X69867943Y-133551771D01*
X69850193Y-133560466D01*
X69830244Y-133568365D01*
X69823833Y-133573023D01*
X69823831Y-133573024D01*
X69792864Y-133595523D01*
X69782946Y-133602038D01*
X69743193Y-133625548D01*
X69728032Y-133640709D01*
X69713000Y-133653548D01*
X69695643Y-133666159D01*
X69695642Y-133666160D01*
X69695399Y-133665825D01*
X69636495Y-133695624D01*
X69565874Y-133688336D01*
X69510403Y-133644024D01*
X69492148Y-133603396D01*
X69491745Y-133599684D01*
X69440615Y-133463295D01*
X69353261Y-133346739D01*
X69236705Y-133259385D01*
X69100316Y-133208255D01*
X69038134Y-133201500D01*
X68241866Y-133201500D01*
X68179684Y-133208255D01*
X68043295Y-133259385D01*
X67926739Y-133346739D01*
X67839385Y-133463295D01*
X67836233Y-133471703D01*
X67831923Y-133479575D01*
X67830259Y-133478664D01*
X67794337Y-133526490D01*
X67727776Y-133551193D01*
X67718991Y-133551500D01*
X67409809Y-133551500D01*
X67341688Y-133531498D01*
X67295195Y-133477842D01*
X67285091Y-133407568D01*
X67316173Y-133341190D01*
X67414621Y-133231852D01*
X67414622Y-133231851D01*
X67419040Y-133226944D01*
X67514527Y-133061556D01*
X67573542Y-132879928D01*
X67577725Y-132840135D01*
X67592814Y-132696565D01*
X67593504Y-132690000D01*
X67582219Y-132582627D01*
X67574232Y-132506635D01*
X67574232Y-132506633D01*
X67573542Y-132500072D01*
X67514527Y-132318444D01*
X67419040Y-132153056D01*
X67380651Y-132110420D01*
X67295675Y-132016045D01*
X67295674Y-132016044D01*
X67291253Y-132011134D01*
X67136752Y-131898882D01*
X67130724Y-131896198D01*
X67130722Y-131896197D01*
X66968319Y-131823891D01*
X66968318Y-131823891D01*
X66962288Y-131821206D01*
X66857914Y-131799021D01*
X66795442Y-131765293D01*
X66761120Y-131703143D01*
X66765848Y-131632304D01*
X66795017Y-131586679D01*
X66878085Y-131503611D01*
X66886865Y-131495621D01*
X66886867Y-131495619D01*
X66893560Y-131491372D01*
X66942085Y-131439698D01*
X66944839Y-131436857D01*
X66965407Y-131416289D01*
X66968127Y-131412782D01*
X66975833Y-131403760D01*
X67002024Y-131375869D01*
X67007452Y-131370089D01*
X67012551Y-131360814D01*
X67017783Y-131351298D01*
X67028637Y-131334774D01*
X67036925Y-131324088D01*
X67041784Y-131317824D01*
X67044932Y-131310550D01*
X67060134Y-131275421D01*
X67065356Y-131264761D01*
X67083785Y-131231240D01*
X67083786Y-131231238D01*
X67087604Y-131224293D01*
X67092939Y-131203515D01*
X67099338Y-131184825D01*
X67107860Y-131165132D01*
X67115086Y-131119508D01*
X67117493Y-131107885D01*
X67127008Y-131070824D01*
X67128980Y-131063144D01*
X67128980Y-131041697D01*
X67130531Y-131021987D01*
X67132646Y-131008633D01*
X67133886Y-131000804D01*
X67129539Y-130954815D01*
X67128980Y-130942960D01*
X67128980Y-129829000D01*
X67148982Y-129760879D01*
X67202638Y-129714386D01*
X67254980Y-129703000D01*
X67522885Y-129703000D01*
X67538124Y-129698525D01*
X67539329Y-129697135D01*
X67541000Y-129689452D01*
X67541000Y-129684884D01*
X68049000Y-129684884D01*
X68053475Y-129700123D01*
X68054865Y-129701328D01*
X68062548Y-129702999D01*
X68683984Y-129702999D01*
X68688920Y-129702805D01*
X68717336Y-129700570D01*
X68729931Y-129698270D01*
X68875790Y-129655893D01*
X68890221Y-129649648D01*
X69019678Y-129573089D01*
X69032104Y-129563449D01*
X69138449Y-129457104D01*
X69148089Y-129444678D01*
X69224648Y-129315221D01*
X69230893Y-129300790D01*
X69269939Y-129166395D01*
X69269899Y-129152294D01*
X69262630Y-129149000D01*
X68067115Y-129149000D01*
X68051876Y-129153475D01*
X68050671Y-129154865D01*
X68049000Y-129162548D01*
X68049000Y-129684884D01*
X67541000Y-129684884D01*
X67541000Y-128767000D01*
X67561002Y-128698879D01*
X67614658Y-128652386D01*
X67667000Y-128641000D01*
X69256878Y-128641000D01*
X69270409Y-128637027D01*
X69271544Y-128629129D01*
X69230893Y-128489210D01*
X69224646Y-128474775D01*
X69223974Y-128473638D01*
X69223719Y-128472631D01*
X69221499Y-128467502D01*
X69222326Y-128467144D01*
X69206515Y-128404822D01*
X69229033Y-128337490D01*
X69284377Y-128293022D01*
X69332428Y-128283500D01*
X74806578Y-128283500D01*
X74818434Y-128284059D01*
X74818437Y-128284059D01*
X74826171Y-128285788D01*
X74897003Y-128283562D01*
X74900961Y-128283500D01*
X74930066Y-128283500D01*
X74934466Y-128282944D01*
X74946298Y-128282012D01*
X74992465Y-128280562D01*
X75013055Y-128274580D01*
X75032416Y-128270570D01*
X75037613Y-128269914D01*
X75053701Y-128267882D01*
X75053908Y-128269520D01*
X75115526Y-128271634D01*
X75173901Y-128312042D01*
X75192646Y-128343837D01*
X75211319Y-128389823D01*
X75211322Y-128389829D01*
X75213266Y-128394616D01*
X75261691Y-128473638D01*
X75315893Y-128562088D01*
X75329987Y-128585088D01*
X75476250Y-128753938D01*
X75648126Y-128896632D01*
X75841000Y-129009338D01*
X75845825Y-129011180D01*
X75845826Y-129011181D01*
X75884306Y-129025875D01*
X76049692Y-129089030D01*
X76054760Y-129090061D01*
X76054763Y-129090062D01*
X76109553Y-129101209D01*
X76268597Y-129133567D01*
X76273772Y-129133757D01*
X76273774Y-129133757D01*
X76486673Y-129141564D01*
X76486677Y-129141564D01*
X76491837Y-129141753D01*
X76496957Y-129141097D01*
X76496959Y-129141097D01*
X76708288Y-129114025D01*
X76708289Y-129114025D01*
X76713416Y-129113368D01*
X76719636Y-129111502D01*
X76922429Y-129050661D01*
X76922434Y-129050659D01*
X76927384Y-129049174D01*
X77127994Y-128950896D01*
X77309860Y-128821173D01*
X77339514Y-128791623D01*
X77464435Y-128667137D01*
X77468096Y-128663489D01*
X77479529Y-128647579D01*
X77595435Y-128486277D01*
X77598453Y-128482077D01*
X77603122Y-128472631D01*
X77695136Y-128286453D01*
X77695137Y-128286451D01*
X77697430Y-128281811D01*
X77762370Y-128068069D01*
X77791529Y-127846590D01*
X77793156Y-127780000D01*
X77774852Y-127557361D01*
X77757705Y-127489095D01*
X77753919Y-127474022D01*
X77756723Y-127403081D01*
X77787028Y-127354232D01*
X78537116Y-126604144D01*
X78545896Y-126596154D01*
X78545898Y-126596152D01*
X78552591Y-126591905D01*
X78601116Y-126540231D01*
X78603870Y-126537390D01*
X78624438Y-126516822D01*
X78627158Y-126513315D01*
X78634864Y-126504293D01*
X78666483Y-126470622D01*
X78675458Y-126454297D01*
X78676814Y-126451831D01*
X78687668Y-126435307D01*
X78695956Y-126424621D01*
X78700815Y-126418357D01*
X78704044Y-126410896D01*
X78719165Y-126375954D01*
X78724387Y-126365294D01*
X78742816Y-126331773D01*
X78742817Y-126331771D01*
X78746635Y-126324826D01*
X78751970Y-126304048D01*
X78758369Y-126285358D01*
X78766891Y-126265665D01*
X78769076Y-126251875D01*
X78774119Y-126220032D01*
X78776526Y-126208410D01*
X78786040Y-126171356D01*
X78786041Y-126171352D01*
X78788011Y-126163677D01*
X78788011Y-126142236D01*
X78789562Y-126122525D01*
X78791678Y-126109165D01*
X78792918Y-126101337D01*
X78789616Y-126066411D01*
X78788570Y-126055341D01*
X78788011Y-126043483D01*
X78788011Y-118673461D01*
X78808013Y-118605340D01*
X78861669Y-118558847D01*
X78931943Y-118548743D01*
X78996523Y-118578237D01*
G37*
%TD.AperFunction*%
%TD*%
M02*
