%TF.GenerationSoftware,KiCad,Pcbnew,(6.0.2)*%
%TF.CreationDate,2023-02-15T15:55:09+01:00*%
%TF.ProjectId,usb,7573622e-6b69-4636-9164-5f7063625858,rev?*%
%TF.SameCoordinates,Original*%
%TF.FileFunction,Soldermask,Top*%
%TF.FilePolarity,Negative*%
%FSLAX46Y46*%
G04 Gerber Fmt 4.6, Leading zero omitted, Abs format (unit mm)*
G04 Created by KiCad (PCBNEW (6.0.2)) date 2023-02-15 15:55:09*
%MOMM*%
%LPD*%
G01*
G04 APERTURE LIST*
G04 Aperture macros list*
%AMRoundRect*
0 Rectangle with rounded corners*
0 $1 Rounding radius*
0 $2 $3 $4 $5 $6 $7 $8 $9 X,Y pos of 4 corners*
0 Add a 4 corners polygon primitive as box body*
4,1,4,$2,$3,$4,$5,$6,$7,$8,$9,$2,$3,0*
0 Add four circle primitives for the rounded corners*
1,1,$1+$1,$2,$3*
1,1,$1+$1,$4,$5*
1,1,$1+$1,$6,$7*
1,1,$1+$1,$8,$9*
0 Add four rect primitives between the rounded corners*
20,1,$1+$1,$2,$3,$4,$5,0*
20,1,$1+$1,$4,$5,$6,$7,0*
20,1,$1+$1,$6,$7,$8,$9,0*
20,1,$1+$1,$8,$9,$2,$3,0*%
%AMFreePoly0*
4,1,22,0.500000,-0.750000,0.000000,-0.750000,0.000000,-0.745033,-0.079941,-0.743568,-0.215256,-0.701293,-0.333266,-0.622738,-0.424486,-0.514219,-0.481581,-0.384460,-0.499164,-0.250000,-0.500000,-0.250000,-0.500000,0.250000,-0.499164,0.250000,-0.499963,0.256109,-0.478152,0.396186,-0.417904,0.524511,-0.324060,0.630769,-0.204165,0.706417,-0.067858,0.745374,0.000000,0.744959,0.000000,0.750000,
0.500000,0.750000,0.500000,-0.750000,0.500000,-0.750000,$1*%
%AMFreePoly1*
4,1,20,0.000000,0.744959,0.073905,0.744508,0.209726,0.703889,0.328688,0.626782,0.421226,0.519385,0.479903,0.390333,0.500000,0.250000,0.500000,-0.250000,0.499851,-0.262216,0.476331,-0.402017,0.414519,-0.529596,0.319384,-0.634700,0.198574,-0.708877,0.061801,-0.746166,0.000000,-0.745033,0.000000,-0.750000,-0.500000,-0.750000,-0.500000,0.750000,0.000000,0.750000,0.000000,0.744959,
0.000000,0.744959,$1*%
G04 Aperture macros list end*
%ADD10C,1.524000*%
%ADD11C,1.600000*%
%ADD12FreePoly0,0.000000*%
%ADD13FreePoly1,0.000000*%
%ADD14C,4.000000*%
%ADD15R,1.700000X1.700000*%
%ADD16O,1.700000X1.700000*%
%ADD17RoundRect,0.250000X-0.650000X0.412500X-0.650000X-0.412500X0.650000X-0.412500X0.650000X0.412500X0*%
%ADD18RoundRect,0.250000X0.625000X-0.400000X0.625000X0.400000X-0.625000X0.400000X-0.625000X-0.400000X0*%
%ADD19C,0.650000*%
%ADD20R,1.450000X0.600000*%
%ADD21R,1.450000X0.300000*%
%ADD22O,2.100000X1.000000*%
%ADD23O,1.600000X1.000000*%
%ADD24RoundRect,0.150000X0.825000X0.150000X-0.825000X0.150000X-0.825000X-0.150000X0.825000X-0.150000X0*%
%ADD25R,0.700000X1.000000*%
%ADD26RoundRect,0.250000X-0.625000X0.400000X-0.625000X-0.400000X0.625000X-0.400000X0.625000X0.400000X0*%
%ADD27C,2.000000*%
G04 APERTURE END LIST*
D10*
%TO.C,J4*%
X84580000Y-107780000D03*
X87120000Y-115800000D03*
X87120000Y-107780000D03*
X84580000Y-115800000D03*
X89680000Y-115800000D03*
X89660000Y-107780000D03*
D11*
X80370000Y-114530000D03*
X93870000Y-114530000D03*
%TD*%
D12*
%TO.C,JP2*%
X76350000Y-134150000D03*
D13*
X77650000Y-134150000D03*
%TD*%
D14*
%TO.C,REF\u002A\u002A*%
X59000000Y-109000000D03*
%TD*%
%TO.C,REF\u002A\u002A*%
X77000000Y-142000000D03*
%TD*%
D12*
%TO.C,JP1*%
X76350000Y-137730000D03*
D13*
X77650000Y-137730000D03*
%TD*%
D15*
%TO.C,J5*%
X91130000Y-124380000D03*
D16*
X91130000Y-126920000D03*
X91130000Y-129460000D03*
X91130000Y-132000000D03*
X91130000Y-134540000D03*
X91130000Y-137080000D03*
X91130000Y-139620000D03*
X91130000Y-142160000D03*
%TD*%
D17*
%TO.C,C3*%
X59330000Y-128872500D03*
X59330000Y-125747500D03*
%TD*%
D18*
%TO.C,R4*%
X62560000Y-139530000D03*
X62560000Y-142630000D03*
%TD*%
D19*
%TO.C,J3*%
X57555000Y-134530000D03*
X57555000Y-140310000D03*
D20*
X59000000Y-134170000D03*
X59000000Y-134970000D03*
D21*
X59000000Y-136170000D03*
X59000000Y-137170000D03*
X59000000Y-137670000D03*
X59000000Y-138670000D03*
D20*
X59000000Y-139870000D03*
X59000000Y-140670000D03*
X59000000Y-140670000D03*
X59000000Y-139870000D03*
D21*
X59000000Y-139170000D03*
X59000000Y-138170000D03*
X59000000Y-136670000D03*
X59000000Y-135670000D03*
D20*
X59000000Y-134970000D03*
X59000000Y-134170000D03*
D22*
X58085000Y-141740000D03*
X58085000Y-133100000D03*
D23*
X53905000Y-133100000D03*
X53905000Y-141740000D03*
%TD*%
D24*
%TO.C,U1*%
X62845000Y-128895000D03*
X62845000Y-127625000D03*
X62845000Y-126355000D03*
X62845000Y-125085000D03*
X62845000Y-123815000D03*
X62845000Y-122545000D03*
X62845000Y-121275000D03*
X62845000Y-120005000D03*
X67795000Y-120005000D03*
X67795000Y-121275000D03*
X67795000Y-122545000D03*
X67795000Y-123815000D03*
X67795000Y-125085000D03*
X67795000Y-126355000D03*
X67795000Y-127625000D03*
X67795000Y-128895000D03*
%TD*%
D25*
%TO.C,Q2*%
X67690000Y-136610000D03*
X69590000Y-136610000D03*
X68640000Y-134210000D03*
%TD*%
D26*
%TO.C,R2*%
X72120000Y-138810000D03*
X72120000Y-141910000D03*
%TD*%
D25*
%TO.C,Q1*%
X69540000Y-139510000D03*
X67640000Y-139510000D03*
X68590000Y-141910000D03*
%TD*%
D18*
%TO.C,R1*%
X65240000Y-137330000D03*
X65240000Y-134230000D03*
%TD*%
D17*
%TO.C,C4*%
X59370000Y-123712500D03*
X59370000Y-120587500D03*
%TD*%
D15*
%TO.C,J1*%
X53570000Y-110000000D03*
D16*
X53570000Y-112540000D03*
X53570000Y-115080000D03*
X53570000Y-117620000D03*
X53570000Y-120160000D03*
X53570000Y-122700000D03*
X53570000Y-125240000D03*
X53570000Y-127780000D03*
%TD*%
D27*
%TO.C,SW1*%
X81000000Y-132120000D03*
X87500000Y-132120000D03*
X87500000Y-127620000D03*
X81000000Y-127620000D03*
%TD*%
D15*
%TO.C,J2*%
X76430000Y-110000000D03*
D16*
X76430000Y-112540000D03*
X76430000Y-115080000D03*
X76430000Y-117620000D03*
X76430000Y-120160000D03*
X76430000Y-122700000D03*
X76430000Y-125240000D03*
X76430000Y-127780000D03*
%TD*%
D27*
%TO.C,SW2*%
X81000000Y-137970000D03*
X87500000Y-137970000D03*
X81000000Y-142470000D03*
X87500000Y-142470000D03*
%TD*%
M02*
